{"glyphs":{"0":{"ha":867,"x_min":75,"x_max":785,"o":"m 498 784 q 715 698 645 784 q 785 467 785 612 q 730 230 785 340 q 579 55 675 120 q 366 -11 483 -11 q 202 33 268 -11 q 106 148 137 76 q 75 307 75 220 q 133 550 75 441 q 287 722 190 659 q 498 784 384 784 m 381 62 q 542 119 475 62 q 643 267 609 176 q 677 458 677 358 q 485 712 677 712 q 317 652 386 712 q 215 501 249 593 q 182 315 182 410 q 203 188 182 245 q 270 96 225 130 q 381 62 315 62 z "},"1":{"ha":618,"x_min":124,"x_max":452,"o":"m 312 642 q 221 608 261 622 q 136 585 182 594 l 124 651 q 267 704 190 665 q 406 788 343 743 l 452 775 l 340 0 l 237 0 l 330 650 l 312 642 z "},"2":{"ha":847,"x_min":42,"x_max":718,"o":"m 42 69 q 310 221 186 140 q 510 388 433 302 q 588 550 588 473 q 547 665 588 625 q 421 704 505 704 q 288 672 349 704 q 172 593 228 640 l 134 652 q 212 715 164 685 q 321 766 259 746 q 450 787 382 787 q 591 756 534 787 q 675 674 648 725 q 702 561 702 623 q 557 303 702 425 q 188 70 412 181 l 718 90 l 703 0 l 59 0 l 42 69 z "},"3":{"ha":746,"x_min":28,"x_max":637,"o":"m 135 -142 q 319 -112 233 -142 q 457 -24 405 -81 q 510 111 510 34 q 461 231 510 186 q 307 276 413 275 q 223 252 294 270 l 186 241 l 195 330 q 434 425 345 366 q 523 577 523 484 q 485 660 523 628 q 380 691 447 691 q 254 666 310 691 q 140 600 197 642 l 108 675 q 179 726 134 701 q 287 769 225 751 q 416 787 348 787 q 526 766 476 787 q 607 703 576 745 q 637 596 637 660 q 603 484 637 537 q 511 391 568 431 q 388 326 454 350 q 519 298 465 326 q 601 223 574 270 q 628 119 628 176 q 558 -59 628 19 q 375 -179 488 -136 q 142 -222 263 -222 q 28 -214 94 -222 l 37 -136 q 135 -142 95 -142 z "},"4":{"ha":841,"x_min":16,"x_max":759,"o":"m 520 852 l 592 806 l 201 176 l 127 68 l 483 77 l 526 421 l 626 440 l 581 83 l 759 90 l 748 0 l 570 0 l 538 -254 l 439 -254 l 473 0 l 34 0 l 16 49 q 494 852 260 431 l 520 852 z "},"5":{"ha":749,"x_min":26,"x_max":705,"o":"m 101 -157 q 306 -124 210 -157 q 463 -28 403 -92 q 522 123 522 35 q 476 263 522 214 q 338 312 429 312 q 238 298 289 312 q 145 265 186 284 l 106 304 l 210 776 l 605 776 l 618 787 l 705 787 l 684 689 l 290 689 l 208 358 q 292 381 244 372 q 385 391 340 391 q 577 325 514 391 q 641 142 641 258 q 569 -53 641 33 q 375 -187 496 -139 q 115 -235 254 -235 q 26 -223 60 -235 l 39 -150 q 101 -157 71 -157 z "},"6":{"ha":844,"x_min":101,"x_max":745,"o":"m 698 1006 q 501 905 591 969 q 347 755 412 840 q 250 572 283 670 q 503 669 357 669 q 642 633 587 669 q 720 538 696 597 q 745 410 745 480 q 701 211 745 308 q 572 51 656 113 q 374 -11 488 -11 q 223 35 285 -11 q 132 158 162 81 q 101 331 101 235 q 175 651 101 500 q 379 911 248 802 q 675 1066 510 1020 l 698 1006 m 397 61 q 533 114 477 61 q 615 244 588 166 q 642 396 642 321 q 598 540 642 490 q 479 590 554 590 q 222 476 330 590 q 208 399 213 435 q 203 321 203 363 q 253 132 203 203 q 397 61 302 61 z "},"7":{"ha":721,"x_min":66,"x_max":701,"o":"m 66 692 l 84 776 l 683 776 l 701 752 l 281 -214 l 189 -179 l 585 694 l 66 692 z "},"8":{"ha":847,"x_min":81,"x_max":768,"o":"m 351 556 q 242 665 283 608 q 201 794 201 721 q 242 940 201 879 q 354 1033 283 1001 q 514 1064 425 1064 q 644 1037 586 1064 q 734 960 701 1010 q 768 843 768 910 q 734 719 768 778 q 643 615 701 660 q 517 546 586 571 q 664 417 608 484 q 720 272 720 351 q 673 121 720 186 q 546 23 626 57 q 370 -12 467 -12 q 232 17 298 -12 q 123 101 165 45 q 81 236 81 157 q 120 370 81 307 q 220 479 159 432 q 351 556 281 526 m 666 836 q 644 924 666 888 q 584 979 621 960 q 503 997 547 997 q 403 974 448 997 q 331 908 357 950 q 304 812 304 866 q 347 692 304 745 q 463 586 389 639 q 560 645 514 609 q 636 730 606 681 q 666 836 666 779 m 389 59 q 498 83 447 59 q 579 152 549 108 q 610 253 610 196 q 556 389 610 325 q 405 517 503 452 q 304 453 352 492 q 223 360 256 413 q 191 249 191 308 q 214 152 191 195 q 283 84 238 109 q 389 59 328 59 z "},"9":{"ha":844,"x_min":94,"x_max":738,"o":"m 589 204 q 353 102 491 102 q 206 139 264 102 q 121 235 148 176 q 94 366 94 295 q 138 566 94 469 q 266 725 182 663 q 463 787 350 787 q 614 742 552 787 q 707 618 676 696 q 738 446 738 541 q 664 125 738 277 q 459 -136 590 -27 q 162 -292 328 -245 l 139 -231 q 336 -130 246 -195 q 491 21 426 -64 q 589 204 555 107 m 377 181 q 486 202 438 181 q 562 247 534 222 q 616 300 590 271 q 631 379 626 344 q 636 455 636 414 q 586 645 636 574 q 440 715 536 715 q 305 663 360 715 q 223 533 250 610 q 197 380 197 455 q 245 233 197 284 q 377 181 294 181 z "},"\u0000":{"ha":0,"x_min":0,"x_max":0,"o":""},"\r":{"ha":0,"x_min":0,"x_max":0,"o":""}," ":{"ha":329,"x_min":0,"x_max":0,"o":""},"A":{"ha":858,"x_min":-34,"x_max":781,"o":"m 628 292 l 212 292 l 75 0 l -34 0 l 471 1038 l 585 1038 l 781 0 l 680 0 l 628 292 m 614 370 l 527 868 l 517 946 l 479 865 l 248 370 l 614 370 z "},"Á":{"ha":858,"x_min":-34,"x_max":781,"o":"m 628 292 l 212 292 l 75 0 l -34 0 l 471 1038 l 585 1038 l 781 0 l 680 0 l 628 292 m 614 370 l 527 868 l 517 946 l 479 865 l 248 370 l 614 370 m 691 1356 l 755 1291 q 660 1180 726 1240 q 541 1087 595 1120 l 503 1122 l 691 1356 z "},"Ă":{"ha":858,"x_min":-34,"x_max":781,"o":"m 628 292 l 212 292 l 75 0 l -34 0 l 471 1038 l 585 1038 l 781 0 l 680 0 l 628 292 m 614 370 l 527 868 l 517 946 l 479 865 l 248 370 l 614 370 m 343 1329 q 344 1343 343 1339 l 414 1343 q 416 1322 414 1333 q 454 1226 422 1265 q 547 1186 485 1186 q 627 1212 593 1186 q 678 1273 660 1237 q 703 1343 696 1309 l 771 1343 l 771 1337 q 770 1321 771 1332 q 734 1221 764 1270 q 655 1141 705 1173 q 544 1110 605 1110 q 432 1141 477 1110 q 365 1222 387 1172 q 343 1329 343 1272 z "},"Ǎ":{"ha":858,"x_min":-34,"x_max":781,"o":"m 628 292 l 212 292 l 75 0 l -34 0 l 471 1038 l 585 1038 l 781 0 l 680 0 l 628 292 m 614 370 l 527 868 l 517 946 l 479 865 l 248 370 l 614 370 m 544 1356 l 636 1356 l 775 1120 l 726 1084 l 577 1264 l 353 1081 l 313 1121 l 544 1356 z "},"Â":{"ha":858,"x_min":-34,"x_max":781,"o":"m 628 292 l 212 292 l 75 0 l -34 0 l 471 1038 l 585 1038 l 781 0 l 680 0 l 628 292 m 614 370 l 527 868 l 517 946 l 479 865 l 248 370 l 614 370 m 544 1356 l 636 1356 l 775 1120 l 726 1084 l 577 1264 l 353 1081 l 313 1121 l 544 1356 z "},"Ä":{"ha":858,"x_min":-34,"x_max":781,"o":"m 628 292 l 212 292 l 75 0 l -34 0 l 471 1038 l 585 1038 l 781 0 l 680 0 l 628 292 m 614 370 l 527 868 l 517 946 l 479 865 l 248 370 l 614 370 m 341 1230 q 352 1271 341 1252 q 381 1301 363 1290 q 416 1312 398 1312 q 461 1295 445 1312 q 478 1251 478 1278 q 467 1209 478 1228 q 437 1178 456 1190 q 399 1167 419 1167 q 358 1185 374 1167 q 341 1230 341 1202 m 625 1232 q 637 1272 625 1254 q 666 1301 648 1291 q 701 1312 684 1312 q 746 1296 730 1312 q 763 1253 763 1280 q 740 1193 763 1218 q 684 1167 717 1167 q 642 1185 659 1167 q 625 1232 625 1204 z "},"À":{"ha":858,"x_min":-34,"x_max":781,"o":"m 628 292 l 212 292 l 75 0 l -34 0 l 471 1038 l 585 1038 l 781 0 l 680 0 l 628 292 m 614 370 l 527 868 l 517 946 l 479 865 l 248 370 l 614 370 m 410 1356 l 595 1120 l 557 1086 q 441 1178 505 1117 q 346 1291 376 1240 l 410 1356 z "},"Ā":{"ha":858,"x_min":-34,"x_max":781,"o":"m 628 292 l 212 292 l 75 0 l -34 0 l 471 1038 l 585 1038 l 781 0 l 680 0 l 628 292 m 614 370 l 527 868 l 517 946 l 479 865 l 248 370 l 614 370 m 705 1263 l 701 1185 l 356 1185 l 359 1263 l 705 1263 z "},"Ą":{"ha":858,"x_min":-34,"x_max":798,"o":"m 798 -232 q 725 -277 767 -258 q 631 -296 683 -296 q 558 -279 587 -296 q 516 -240 530 -263 q 503 -195 503 -216 q 556 -86 503 -133 q 680 1 608 -39 l 628 292 l 212 292 l 75 0 l -34 0 l 471 1038 l 585 1038 l 781 0 l 762 0 q 686 -52 717 -30 q 629 -105 655 -75 q 604 -164 604 -135 q 620 -204 604 -190 q 663 -218 637 -218 q 770 -179 720 -218 l 798 -232 m 614 370 l 527 868 l 517 946 l 479 865 l 248 370 l 614 370 z "},"Å":{"ha":858,"x_min":-34,"x_max":781,"o":"m 628 292 l 212 292 l 75 0 l -34 0 l 460 1013 q 369 1069 401 1028 q 338 1172 338 1109 q 372 1274 338 1232 q 459 1336 406 1316 q 570 1356 513 1356 q 704 1311 654 1356 q 753 1186 753 1265 q 708 1069 753 1113 q 590 1011 663 1025 l 781 0 l 680 0 l 628 292 m 410 1168 q 426 1114 410 1138 q 468 1075 441 1089 q 531 1061 496 1061 q 679 1195 679 1061 q 647 1271 679 1242 q 562 1299 615 1299 q 455 1269 499 1299 q 410 1168 410 1238 m 614 370 l 527 868 l 517 946 l 479 865 l 248 370 l 614 370 z "},"Ã":{"ha":858,"x_min":-34,"x_max":812,"o":"m 628 292 l 212 292 l 75 0 l -34 0 l 471 1038 l 585 1038 l 781 0 l 680 0 l 628 292 m 614 370 l 527 868 l 517 946 l 479 865 l 248 370 l 614 370 m 294 1219 q 338 1274 309 1248 q 404 1316 368 1299 q 475 1332 441 1332 q 536 1317 511 1332 q 589 1274 560 1302 q 627 1242 611 1253 q 663 1232 643 1232 q 708 1244 688 1232 q 738 1272 727 1257 q 768 1314 749 1286 l 812 1266 q 775 1207 802 1234 q 714 1164 749 1180 q 644 1148 679 1148 q 581 1162 606 1148 q 528 1204 557 1177 q 488 1237 505 1226 q 448 1248 471 1247 q 404 1237 423 1248 q 374 1215 385 1226 q 340 1175 364 1204 l 294 1219 z "},"Æ":{"ha":1208,"x_min":-73,"x_max":1164,"o":"m 744 961 l 694 568 l 1016 572 l 1010 486 l 685 494 l 632 77 l 1132 86 l 1124 0 l 521 0 l 560 311 l 208 311 l 37 0 l -73 0 l 474 974 l 272 985 l 279 1038 l 1164 1038 l 1160 956 l 744 961 m 642 963 l 567 966 l 251 390 l 570 390 l 642 963 z "},"Ǽ":{"ha":1208,"x_min":-73,"x_max":1164,"o":"m 874 1356 l 939 1291 q 843 1180 909 1240 q 724 1087 778 1120 l 686 1122 l 874 1356 m 744 961 l 694 568 l 1016 572 l 1010 486 l 685 494 l 632 77 l 1132 86 l 1124 0 l 521 0 l 560 311 l 208 311 l 37 0 l -73 0 l 474 974 l 272 985 l 279 1038 l 1164 1038 l 1160 956 l 744 961 m 642 963 l 567 966 l 251 390 l 570 390 l 642 963 z "},"B":{"ha":841,"x_min":82,"x_max":772,"o":"m 555 543 q 661 508 613 536 q 738 435 709 480 q 767 332 766 389 q 711 137 769 214 q 550 26 653 61 q 311 -9 447 -9 q 259 -7 290 -9 q 216 -5 228 -5 q 130 0 161 0 l 82 0 l 213 1038 l 259 1038 q 359 1043 290 1038 q 469 1048 430 1048 q 703 984 633 1048 q 772 819 772 920 q 714 643 772 714 q 555 543 656 571 m 256 575 q 319 574 275 574 l 415 574 q 545 602 487 574 q 636 683 603 630 q 670 810 670 736 q 617 935 670 893 q 445 977 565 977 q 380 975 425 977 q 306 968 334 972 l 256 575 m 333 64 q 570 123 481 64 q 659 316 659 183 q 596 454 659 407 q 425 501 533 501 q 247 497 317 501 l 194 77 q 260 68 213 72 q 333 64 308 64 z "},"Ḃ":{"ha":841,"x_min":82,"x_max":772,"o":"m 401 1219 q 412 1260 401 1241 q 440 1291 422 1280 q 475 1302 457 1302 q 520 1286 504 1302 q 537 1242 537 1270 q 526 1200 537 1219 q 497 1169 515 1180 q 458 1158 479 1158 q 417 1175 433 1158 q 401 1219 401 1192 m 555 543 q 661 508 613 536 q 738 435 709 480 q 767 332 766 389 q 711 137 769 214 q 550 26 653 61 q 311 -9 447 -9 q 259 -7 290 -9 q 216 -5 228 -5 q 130 0 161 0 l 82 0 l 213 1038 l 259 1038 q 359 1043 290 1038 q 469 1048 430 1048 q 703 984 633 1048 q 772 819 772 920 q 714 643 772 714 q 555 543 656 571 m 256 575 q 319 574 275 574 l 415 574 q 545 602 487 574 q 636 683 603 630 q 670 810 670 736 q 617 935 670 893 q 445 977 565 977 q 380 975 425 977 q 306 968 334 972 l 256 575 m 333 64 q 570 123 481 64 q 659 316 659 183 q 596 454 659 407 q 425 501 533 501 q 247 497 317 501 l 194 77 q 260 68 213 72 q 333 64 308 64 z "},"C":{"ha":774,"x_min":75,"x_max":778,"o":"m 559 1048 q 657 1040 617 1048 q 743 1017 698 1032 l 778 1006 l 742 921 q 711 935 736 923 q 645 955 686 947 q 555 963 604 963 q 347 887 432 963 q 220 692 262 810 q 179 450 179 574 q 206 258 179 344 q 292 122 233 173 q 440 71 351 71 q 541 83 492 71 q 629 111 591 94 q 688 143 667 127 l 704 56 q 422 -10 597 -10 q 219 55 297 -10 q 108 222 142 120 q 75 442 75 324 q 138 758 75 620 q 313 972 202 896 q 559 1048 423 1048 z "},"Ć":{"ha":774,"x_min":75,"x_max":778,"o":"m 559 1048 q 657 1040 617 1048 q 743 1017 698 1032 l 778 1006 l 742 921 q 711 935 736 923 q 645 955 686 947 q 555 963 604 963 q 347 887 432 963 q 220 692 262 810 q 179 450 179 574 q 206 258 179 344 q 292 122 233 173 q 440 71 351 71 q 541 83 492 71 q 629 111 591 94 q 688 143 667 127 l 704 56 q 422 -10 597 -10 q 219 55 297 -10 q 108 222 142 120 q 75 442 75 324 q 138 758 75 620 q 313 972 202 896 q 559 1048 423 1048 m 703 1356 l 768 1291 q 672 1180 738 1240 q 553 1087 607 1120 l 515 1122 l 703 1356 z "},"Č":{"ha":774,"x_min":75,"x_max":806,"o":"m 559 1048 q 657 1040 617 1048 q 743 1017 698 1032 l 778 1006 l 742 921 q 711 935 736 923 q 645 955 686 947 q 555 963 604 963 q 347 887 432 963 q 220 692 262 810 q 179 450 179 574 q 206 258 179 344 q 292 122 233 173 q 440 71 351 71 q 541 83 492 71 q 629 111 591 94 q 688 143 667 127 l 704 56 q 422 -10 597 -10 q 219 55 297 -10 q 108 222 142 120 q 75 442 75 324 q 138 758 75 620 q 313 972 202 896 q 559 1048 423 1048 m 380 1356 l 545 1173 l 763 1356 l 806 1311 l 587 1095 l 496 1095 l 334 1311 l 380 1356 z "},"Ç":{"ha":774,"x_min":75,"x_max":778,"o":"m 555 963 q 347 887 432 963 q 220 692 262 810 q 179 450 179 574 q 206 258 179 344 q 292 122 233 173 q 440 71 351 71 q 541 83 492 71 q 629 111 591 94 q 688 143 667 127 l 704 56 q 471 -9 612 -1 q 490 -121 490 -55 q 441 -269 490 -224 q 312 -314 393 -314 q 254 -308 284 -314 q 213 -294 224 -302 l 227 -216 q 286 -229 250 -229 q 401 -98 401 -229 q 396 -9 401 -45 q 209 64 281 -2 q 106 230 137 130 q 75 442 75 329 q 138 758 75 620 q 313 972 202 896 q 559 1048 423 1048 q 657 1040 617 1048 q 743 1017 698 1032 l 778 1006 l 742 921 q 711 935 736 923 q 645 955 686 947 q 555 963 604 963 z "},"Ĉ":{"ha":774,"x_min":75,"x_max":787,"o":"m 559 1048 q 657 1040 617 1048 q 743 1017 698 1032 l 778 1006 l 742 921 q 711 935 736 923 q 645 955 686 947 q 555 963 604 963 q 347 887 432 963 q 220 692 262 810 q 179 450 179 574 q 206 258 179 344 q 292 122 233 173 q 440 71 351 71 q 541 83 492 71 q 629 111 591 94 q 688 143 667 127 l 704 56 q 422 -10 597 -10 q 219 55 297 -10 q 108 222 142 120 q 75 442 75 324 q 138 758 75 620 q 313 972 202 896 q 559 1048 423 1048 m 556 1356 l 648 1356 l 787 1120 l 738 1084 l 589 1264 l 366 1081 l 326 1121 l 556 1356 z "},"Ċ":{"ha":774,"x_min":75,"x_max":778,"o":"m 496 1219 q 507 1260 496 1241 q 535 1291 517 1280 q 570 1302 552 1302 q 615 1286 599 1302 q 632 1242 632 1270 q 621 1200 632 1219 q 592 1169 610 1180 q 553 1158 574 1158 q 512 1175 528 1158 q 496 1219 496 1192 m 559 1048 q 657 1040 617 1048 q 743 1017 698 1032 l 778 1006 l 742 921 q 711 935 736 923 q 645 955 686 947 q 555 963 604 963 q 347 887 432 963 q 220 692 262 810 q 179 450 179 574 q 206 258 179 344 q 292 122 233 173 q 440 71 351 71 q 541 83 492 71 q 629 111 591 94 q 688 143 667 127 l 704 56 q 422 -10 597 -10 q 219 55 297 -10 q 108 222 142 120 q 75 442 75 324 q 138 758 75 620 q 313 972 202 896 q 559 1048 423 1048 z "},"D":{"ha":934,"x_min":82,"x_max":880,"o":"m 880 614 q 814 293 880 437 q 628 67 748 149 q 354 -11 508 -15 q 277 -6 311 -9 q 208 -2 254 -4 q 134 0 162 0 l 82 0 l 213 1038 l 262 1038 q 372 1043 294 1038 q 490 1048 453 1048 q 786 933 691 1048 q 880 614 880 817 m 368 67 q 589 144 497 67 q 728 344 681 220 q 774 609 774 468 q 743 817 774 737 q 643 934 711 896 q 460 972 574 972 q 304 960 397 972 l 195 85 q 368 67 296 67 z "},"Ǳ":{"ha":1718,"x_min":82,"x_max":1735,"o":"m 880 614 q 814 293 880 437 q 628 67 748 149 q 354 -11 508 -15 q 277 -6 311 -9 q 208 -2 254 -4 q 134 0 162 0 l 82 0 l 213 1038 l 262 1038 q 372 1043 294 1038 q 490 1048 453 1048 q 786 933 691 1048 q 880 614 880 817 m 368 67 q 589 144 497 67 q 728 344 681 220 q 774 609 774 468 q 743 817 774 737 q 643 934 711 896 q 460 972 574 972 q 304 960 397 972 l 195 85 q 368 67 296 67 m 1501 832 l 1604 958 l 1099 951 l 1110 1038 l 1723 1038 l 1735 993 l 1164 182 l 1080 82 l 1630 88 l 1616 0 l 958 0 l 944 47 l 1501 832 z "},"Ǆ":{"ha":1718,"x_min":82,"x_max":1735,"o":"m 880 614 q 814 293 880 437 q 628 67 748 149 q 354 -11 508 -15 q 277 -6 311 -9 q 208 -2 254 -4 q 134 0 162 0 l 82 0 l 213 1038 l 262 1038 q 372 1043 294 1038 q 490 1048 453 1048 q 786 933 691 1048 q 880 614 880 817 m 368 67 q 589 144 497 67 q 728 344 681 220 q 774 609 774 468 q 743 817 774 737 q 643 934 711 896 q 460 972 574 972 q 304 960 397 972 l 195 85 q 368 67 296 67 m 1501 832 l 1604 958 l 1099 951 l 1110 1038 l 1723 1038 l 1735 993 l 1164 182 l 1080 82 l 1630 88 l 1616 0 l 958 0 l 944 47 l 1501 832 m 1271 1356 l 1436 1173 l 1654 1356 l 1697 1311 l 1478 1095 l 1387 1095 l 1225 1311 l 1271 1356 z "},"Ð":{"ha":933,"x_min":35,"x_max":880,"o":"m 880 614 q 814 294 880 438 q 628 68 748 150 q 354 -10 508 -14 q 277 -5 311 -9 q 208 -1 254 -3 q 134 1 162 1 l 82 1 l 144 497 l 35 497 l 43 565 l 153 565 l 213 1038 l 262 1038 q 372 1044 294 1038 q 490 1049 453 1049 q 786 933 691 1049 q 880 614 880 818 m 368 68 q 589 144 497 68 q 728 345 681 221 q 774 610 774 469 q 743 817 774 738 q 643 935 711 897 q 460 973 574 973 q 304 960 397 973 l 255 565 l 545 565 l 536 497 l 246 497 l 195 85 q 368 68 296 68 z "},"Ď":{"ha":934,"x_min":82,"x_max":880,"o":"m 354 1356 l 519 1173 l 737 1356 l 780 1311 l 562 1095 l 470 1095 l 309 1311 l 354 1356 m 880 614 q 814 293 880 437 q 628 67 748 149 q 354 -11 508 -15 q 277 -6 311 -9 q 208 -2 254 -4 q 134 0 162 0 l 82 0 l 213 1038 l 262 1038 q 372 1043 294 1038 q 490 1048 453 1048 q 786 933 691 1048 q 880 614 880 817 m 368 67 q 589 144 497 67 q 728 344 681 220 q 774 609 774 468 q 743 817 774 737 q 643 934 711 896 q 460 972 574 972 q 304 960 397 972 l 195 85 q 368 67 296 67 z "},"Đ":{"ha":933,"x_min":36,"x_max":880,"o":"m 880 614 q 814 294 880 438 q 628 68 748 150 q 354 -10 508 -14 q 277 -5 311 -9 q 208 -1 254 -3 q 134 1 162 1 l 82 1 l 144 497 l 36 497 l 44 565 l 153 565 l 213 1038 l 262 1038 q 372 1044 294 1038 q 490 1049 453 1049 q 786 933 691 1049 q 880 614 880 818 m 368 68 q 589 144 497 68 q 728 345 681 221 q 774 610 774 469 q 743 817 774 738 q 643 935 711 897 q 460 973 574 973 q 304 960 397 973 l 255 565 l 545 565 l 537 497 l 246 497 l 195 85 q 368 68 296 68 z "},"Ḋ":{"ha":934,"x_min":82,"x_max":880,"o":"m 469 1219 q 480 1260 469 1241 q 508 1291 491 1280 q 544 1302 526 1302 q 589 1286 572 1302 q 606 1242 606 1270 q 595 1200 606 1219 q 566 1169 584 1180 q 526 1158 547 1158 q 486 1175 502 1158 q 469 1219 469 1192 m 880 614 q 814 293 880 437 q 628 67 748 149 q 354 -11 508 -15 q 277 -6 311 -9 q 208 -2 254 -4 q 134 0 162 0 l 82 0 l 213 1038 l 262 1038 q 372 1043 294 1038 q 490 1048 453 1048 q 786 933 691 1048 q 880 614 880 817 m 368 67 q 589 144 497 67 q 728 344 681 220 q 774 609 774 468 q 743 817 774 737 q 643 934 711 896 q 460 972 574 972 q 304 960 397 972 l 195 85 q 368 67 296 67 z "},"ǲ":{"ha":1587,"x_min":82,"x_max":1585,"o":"m 880 614 q 814 293 880 437 q 628 67 748 149 q 354 -11 508 -15 q 277 -6 311 -9 q 208 -2 254 -4 q 134 0 162 0 l 82 0 l 213 1038 l 262 1038 q 372 1043 294 1038 q 490 1048 453 1048 q 786 933 691 1048 q 880 614 880 817 m 368 67 q 589 144 497 67 q 728 344 681 220 q 774 609 774 468 q 743 817 774 737 q 643 934 711 896 q 460 972 574 972 q 304 960 397 972 l 195 85 q 368 67 296 67 m 1049 81 l 1485 81 l 1477 0 l 951 0 l 920 31 l 1341 568 l 1455 692 l 1059 692 l 1070 773 l 1560 773 l 1585 745 l 1145 184 l 1049 81 z "},"ǅ":{"ha":1587,"x_min":82,"x_max":1613,"o":"m 880 614 q 814 293 880 437 q 628 67 748 149 q 354 -11 508 -15 q 277 -6 311 -9 q 208 -2 254 -4 q 134 0 162 0 l 82 0 l 213 1038 l 262 1038 q 372 1043 294 1038 q 490 1048 453 1048 q 786 933 691 1048 q 880 614 880 817 m 368 67 q 589 144 497 67 q 728 344 681 220 q 774 609 774 468 q 743 817 774 737 q 643 934 711 896 q 460 972 574 972 q 304 960 397 972 l 195 85 q 368 67 296 67 m 1049 81 l 1485 81 l 1477 0 l 951 0 l 920 31 l 1341 568 l 1455 692 l 1059 692 l 1070 773 l 1560 773 l 1585 745 l 1145 184 l 1049 81 m 1175 1141 l 1344 952 l 1570 1141 l 1613 1096 l 1385 873 l 1294 873 l 1130 1096 l 1175 1141 z "},"E":{"ha":772,"x_min":82,"x_max":726,"o":"m 726 1038 l 722 956 l 305 961 l 256 568 l 577 572 l 571 486 l 246 494 l 193 77 l 693 86 l 686 0 l 82 0 l 213 1038 l 726 1038 z "},"É":{"ha":772,"x_min":82,"x_max":726,"o":"m 635 1356 l 700 1291 q 605 1180 670 1240 q 486 1087 539 1120 l 447 1122 l 635 1356 m 726 1038 l 722 956 l 305 961 l 256 568 l 577 572 l 571 486 l 246 494 l 193 77 l 693 86 l 686 0 l 82 0 l 213 1038 l 726 1038 z "},"Ĕ":{"ha":772,"x_min":82,"x_max":726,"o":"m 288 1329 q 288 1343 288 1339 l 358 1343 q 360 1322 358 1333 q 398 1226 367 1265 q 492 1186 429 1186 q 571 1212 538 1186 q 623 1273 604 1237 q 647 1343 641 1309 l 715 1343 l 715 1337 q 714 1321 715 1332 q 679 1221 709 1270 q 599 1141 649 1173 q 488 1110 549 1110 q 376 1141 421 1110 q 309 1222 331 1172 q 288 1329 288 1272 m 726 1038 l 722 956 l 305 961 l 256 568 l 577 572 l 571 486 l 246 494 l 193 77 l 693 86 l 686 0 l 82 0 l 213 1038 l 726 1038 z "},"Ě":{"ha":772,"x_min":82,"x_max":738,"o":"m 312 1356 l 477 1173 l 695 1356 l 738 1311 l 519 1095 l 428 1095 l 267 1311 l 312 1356 m 726 1038 l 722 956 l 305 961 l 256 568 l 577 572 l 571 486 l 246 494 l 193 77 l 693 86 l 686 0 l 82 0 l 213 1038 l 726 1038 z "},"Ê":{"ha":772,"x_min":82,"x_max":726,"o":"m 726 1038 l 722 956 l 305 961 l 256 568 l 577 572 l 571 486 l 246 494 l 193 77 l 693 86 l 686 0 l 82 0 l 213 1038 l 726 1038 m 488 1356 l 581 1356 l 720 1120 l 670 1084 l 522 1264 l 298 1081 l 258 1121 l 488 1356 z "},"Ë":{"ha":772,"x_min":82,"x_max":726,"o":"m 285 1230 q 296 1271 285 1252 q 325 1301 307 1290 q 359 1312 342 1312 q 405 1295 389 1312 q 422 1251 422 1278 q 411 1209 422 1228 q 381 1178 399 1190 q 342 1167 363 1167 q 301 1185 318 1167 q 285 1230 285 1202 m 569 1232 q 581 1272 569 1254 q 610 1301 592 1291 q 645 1312 627 1312 q 690 1296 673 1312 q 707 1253 707 1280 q 684 1193 707 1218 q 627 1167 661 1167 q 586 1185 602 1167 q 569 1232 569 1204 m 726 1038 l 722 956 l 305 961 l 256 568 l 577 572 l 571 486 l 246 494 l 193 77 l 693 86 l 686 0 l 82 0 l 213 1038 l 726 1038 z "},"Ė":{"ha":772,"x_min":82,"x_max":726,"o":"m 427 1219 q 438 1260 427 1241 q 466 1291 449 1280 q 502 1302 484 1302 q 547 1286 530 1302 q 564 1242 564 1270 q 553 1200 564 1219 q 524 1169 542 1180 q 484 1158 505 1158 q 444 1175 460 1158 q 427 1219 427 1192 m 726 1038 l 722 956 l 305 961 l 256 568 l 577 572 l 571 486 l 246 494 l 193 77 l 693 86 l 686 0 l 82 0 l 213 1038 l 726 1038 z "},"È":{"ha":772,"x_min":82,"x_max":726,"o":"m 354 1356 l 539 1120 l 501 1086 q 385 1178 450 1117 q 290 1291 321 1240 l 354 1356 m 726 1038 l 722 956 l 305 961 l 256 568 l 577 572 l 571 486 l 246 494 l 193 77 l 693 86 l 686 0 l 82 0 l 213 1038 l 726 1038 z "},"Ē":{"ha":772,"x_min":82,"x_max":726,"o":"m 649 1263 l 646 1185 l 300 1185 l 303 1263 l 649 1263 m 726 1038 l 722 956 l 305 961 l 256 568 l 577 572 l 571 486 l 246 494 l 193 77 l 693 86 l 686 0 l 82 0 l 213 1038 l 726 1038 z "},"Ę":{"ha":772,"x_min":82,"x_max":726,"o":"m 305 961 l 256 568 l 577 572 l 571 486 l 246 494 l 193 77 l 693 86 l 686 0 l 642 0 l 629 -9 q 557 -58 587 -36 q 504 -109 527 -81 q 480 -164 480 -137 q 497 -204 480 -190 q 540 -218 513 -218 q 648 -179 597 -218 l 674 -232 q 603 -276 645 -257 q 507 -296 560 -296 q 435 -279 464 -296 q 393 -240 406 -263 q 380 -195 380 -216 q 409 -115 380 -152 q 476 -51 439 -77 q 559 0 513 -25 l 82 0 l 213 1038 l 726 1038 l 722 956 l 305 961 z "},"F":{"ha":717,"x_min":82,"x_max":741,"o":"m 741 1038 l 734 956 l 305 961 l 256 566 l 600 572 l 593 484 l 246 492 l 184 0 l 82 0 l 213 1038 l 741 1038 z "},"Ḟ":{"ha":717,"x_min":82,"x_max":741,"o":"m 421 1219 q 432 1260 421 1241 q 460 1291 443 1280 q 496 1302 477 1302 q 541 1286 524 1302 q 557 1242 557 1270 q 547 1200 557 1219 q 517 1169 536 1180 q 478 1158 499 1158 q 437 1175 454 1158 q 421 1219 421 1192 m 741 1038 l 734 956 l 305 961 l 256 566 l 600 572 l 593 484 l 246 492 l 184 0 l 82 0 l 213 1038 l 741 1038 z "},"G":{"ha":909,"x_min":73,"x_max":846,"o":"m 544 494 l 836 494 l 780 64 q 742 57 762 62 q 687 41 722 52 l 666 35 q 538 1 595 14 q 418 -12 481 -12 q 226 51 302 -12 q 114 213 150 114 q 76 425 78 312 q 138 749 73 607 q 318 970 203 891 q 573 1048 433 1048 q 711 1038 655 1048 q 819 1011 768 1027 l 846 1003 l 813 910 q 715 949 775 932 q 572 966 654 966 q 358 890 447 966 q 224 694 269 814 q 180 444 180 574 q 205 260 180 345 q 289 122 231 176 q 436 68 346 68 q 556 85 490 68 q 688 126 622 101 l 724 412 l 534 412 l 544 494 z "},"Ǵ":{"ha":909,"x_min":73,"x_max":846,"o":"m 544 494 l 836 494 l 780 64 q 742 57 762 62 q 687 41 722 52 l 666 35 q 538 1 595 14 q 418 -12 481 -12 q 226 51 302 -12 q 114 213 150 114 q 76 425 78 312 q 138 749 73 607 q 318 970 203 891 q 573 1048 433 1048 q 711 1038 655 1048 q 819 1011 768 1027 l 846 1003 l 813 910 q 715 949 775 932 q 572 966 654 966 q 358 890 447 966 q 224 694 269 814 q 180 444 180 574 q 205 260 180 345 q 289 122 231 176 q 436 68 346 68 q 556 85 490 68 q 688 126 622 101 l 724 412 l 534 412 l 544 494 m 725 1356 l 789 1291 q 694 1180 760 1240 q 575 1087 629 1120 l 536 1122 l 725 1356 z "},"Ğ":{"ha":909,"x_min":73,"x_max":846,"o":"m 377 1329 q 378 1343 377 1339 l 448 1343 q 450 1322 448 1333 q 488 1226 456 1265 q 581 1186 519 1186 q 661 1212 627 1186 q 712 1273 694 1237 q 736 1343 730 1309 l 805 1343 l 805 1337 q 804 1321 805 1332 q 768 1221 798 1270 q 689 1141 739 1173 q 578 1110 639 1110 q 466 1141 511 1110 q 399 1222 420 1172 q 377 1329 377 1272 m 544 494 l 836 494 l 780 64 q 742 57 762 62 q 687 41 722 52 l 666 35 q 538 1 595 14 q 418 -12 481 -12 q 226 51 302 -12 q 114 213 150 114 q 76 425 78 312 q 138 749 73 607 q 318 970 203 891 q 573 1048 433 1048 q 711 1038 655 1048 q 819 1011 768 1027 l 846 1003 l 813 910 q 715 949 775 932 q 572 966 654 966 q 358 890 447 966 q 224 694 269 814 q 180 444 180 574 q 205 260 180 345 q 289 122 231 176 q 436 68 346 68 q 556 85 490 68 q 688 126 622 101 l 724 412 l 534 412 l 544 494 z "},"Ǧ":{"ha":909,"x_min":73,"x_max":846,"o":"m 544 494 l 836 494 l 780 64 q 742 57 762 62 q 687 41 722 52 l 666 35 q 538 1 595 14 q 418 -12 481 -12 q 226 51 302 -12 q 114 213 150 114 q 76 425 78 312 q 138 749 73 607 q 318 970 203 891 q 573 1048 433 1048 q 711 1038 655 1048 q 819 1011 768 1027 l 846 1003 l 813 910 q 715 949 775 932 q 572 966 654 966 q 358 890 447 966 q 224 694 269 814 q 180 444 180 574 q 205 260 180 345 q 289 122 231 176 q 436 68 346 68 q 556 85 490 68 q 688 126 622 101 l 724 412 l 534 412 l 544 494 m 401 1356 l 567 1173 l 785 1356 l 827 1311 l 609 1095 l 517 1095 l 356 1311 l 401 1356 z "},"Ĝ":{"ha":909,"x_min":73,"x_max":846,"o":"m 544 494 l 836 494 l 780 64 q 742 57 762 62 q 687 41 722 52 l 666 35 q 538 1 595 14 q 418 -12 481 -12 q 226 51 302 -12 q 114 213 150 114 q 76 425 78 312 q 138 749 73 607 q 318 970 203 891 q 573 1048 433 1048 q 711 1038 655 1048 q 819 1011 768 1027 l 846 1003 l 813 910 q 715 949 775 932 q 572 966 654 966 q 358 890 447 966 q 224 694 269 814 q 180 444 180 574 q 205 260 180 345 q 289 122 231 176 q 436 68 346 68 q 556 85 490 68 q 688 126 622 101 l 724 412 l 534 412 l 544 494 m 578 1356 l 670 1356 l 809 1120 l 760 1084 l 611 1264 l 387 1081 l 347 1121 l 578 1356 z "},"Ģ":{"ha":909,"x_min":73,"x_max":846,"o":"m 368 -97 l 432 -35 q 491 -88 469 -47 q 513 -178 513 -129 q 494 -274 513 -230 q 448 -345 475 -317 q 395 -380 420 -372 l 353 -353 l 355 -340 q 398 -289 382 -321 q 414 -210 414 -256 q 400 -158 414 -182 q 366 -125 387 -134 l 368 -97 m 544 494 l 836 494 l 780 64 q 742 57 762 62 q 687 41 722 52 l 666 35 q 538 1 595 14 q 418 -12 481 -12 q 226 51 302 -12 q 114 213 150 114 q 76 425 78 312 q 138 749 73 607 q 318 970 203 891 q 573 1048 433 1048 q 711 1038 655 1048 q 819 1011 768 1027 l 846 1003 l 813 910 q 715 949 775 932 q 572 966 654 966 q 358 890 447 966 q 224 694 269 814 q 180 444 180 574 q 205 260 180 345 q 289 122 231 176 q 436 68 346 68 q 556 85 490 68 q 688 126 622 101 l 724 412 l 534 412 l 544 494 z "},"Ġ":{"ha":909,"x_min":73,"x_max":846,"o":"m 517 1219 q 528 1260 517 1241 q 556 1291 538 1280 q 591 1302 573 1302 q 636 1286 620 1302 q 653 1242 653 1270 q 642 1200 653 1219 q 613 1169 631 1180 q 574 1158 595 1158 q 533 1175 549 1158 q 517 1219 517 1192 m 544 494 l 836 494 l 780 64 q 742 57 762 62 q 687 41 722 52 l 666 35 q 538 1 595 14 q 418 -12 481 -12 q 226 51 302 -12 q 114 213 150 114 q 76 425 78 312 q 138 749 73 607 q 318 970 203 891 q 573 1048 433 1048 q 711 1038 655 1048 q 819 1011 768 1027 l 846 1003 l 813 910 q 715 949 775 932 q 572 966 654 966 q 358 890 447 966 q 224 694 269 814 q 180 444 180 574 q 205 260 180 345 q 289 122 231 176 q 436 68 346 68 q 556 85 490 68 q 688 126 622 101 l 724 412 l 534 412 l 544 494 z "},"Ḡ":{"ha":909,"x_min":73,"x_max":846,"o":"m 544 494 l 836 494 l 780 64 q 742 57 762 62 q 687 41 722 52 l 666 35 q 538 1 595 14 q 418 -12 481 -12 q 226 51 302 -12 q 114 213 150 114 q 76 425 78 312 q 138 749 73 607 q 318 970 203 891 q 573 1048 433 1048 q 711 1038 655 1048 q 819 1011 768 1027 l 846 1003 l 813 910 q 715 949 775 932 q 572 966 654 966 q 358 890 447 966 q 224 694 269 814 q 180 444 180 574 q 205 260 180 345 q 289 122 231 176 q 436 68 346 68 q 556 85 490 68 q 688 126 622 101 l 724 412 l 534 412 l 544 494 m 739 1263 l 735 1185 l 390 1185 l 393 1263 l 739 1263 z "},"H":{"ha":956,"x_min":82,"x_max":909,"o":"m 909 1038 l 779 0 l 676 0 l 737 484 l 245 484 l 184 0 l 82 0 l 213 1038 l 315 1038 l 255 562 l 747 562 l 807 1038 l 909 1038 z "},"Ħ":{"ha":956,"x_min":38,"x_max":1028,"o":"m 1021 703 l 867 703 l 779 0 l 676 0 l 728 414 l 236 414 l 184 0 l 82 0 l 171 703 l 38 703 l 45 781 l 180 781 l 213 1038 l 315 1038 l 282 781 l 774 781 l 807 1038 l 909 1038 l 876 781 l 1028 781 l 1021 703 m 765 703 l 273 703 l 245 492 l 738 492 l 765 703 z "},"Ĥ":{"ha":956,"x_min":82,"x_max":909,"o":"m 909 1038 l 779 0 l 676 0 l 737 484 l 245 484 l 184 0 l 82 0 l 213 1038 l 315 1038 l 255 562 l 747 562 l 807 1038 l 909 1038 m 571 1356 l 663 1356 l 802 1120 l 753 1084 l 604 1264 l 380 1081 l 340 1121 l 571 1356 z "},"I":{"ha":388,"x_min":98,"x_max":332,"o":"m 332 1038 l 201 0 l 98 0 l 229 1038 l 332 1038 z "},"Ĳ":{"ha":784,"x_min":98,"x_max":728,"o":"m 332 1038 l 201 0 l 98 0 l 229 1038 l 332 1038 m 728 1038 q 652 397 691 694 q 598 51 613 99 q 527 -94 572 -38 q 424 -178 481 -149 q 292 -219 367 -206 l 273 -173 q 384 -119 336 -156 q 460 -37 431 -83 q 499 58 489 9 q 550 372 528 192 q 602 819 573 551 l 625 1038 l 728 1038 z "},"Í":{"ha":388,"x_min":98,"x_max":509,"o":"m 332 1038 l 201 0 l 98 0 l 229 1038 l 332 1038 m 444 1356 l 509 1291 q 413 1180 479 1240 q 294 1087 348 1120 l 256 1122 l 444 1356 z "},"Ĭ":{"ha":388,"x_min":96,"x_max":524,"o":"m 332 1038 l 201 0 l 98 0 l 229 1038 l 332 1038 m 96 1329 q 97 1343 96 1339 l 167 1343 q 169 1322 167 1333 q 207 1226 176 1265 q 300 1186 238 1186 q 380 1212 347 1186 q 431 1273 413 1237 q 456 1343 450 1309 l 524 1343 l 524 1337 q 523 1321 524 1332 q 488 1221 517 1270 q 408 1141 458 1173 q 297 1110 358 1110 q 185 1141 230 1110 q 118 1222 140 1172 q 96 1329 96 1272 z "},"Ǐ":{"ha":388,"x_min":75,"x_max":547,"o":"m 332 1038 l 201 0 l 98 0 l 229 1038 l 332 1038 m 121 1356 l 286 1173 l 504 1356 l 547 1311 l 328 1095 l 237 1095 l 75 1311 l 121 1356 z "},"Î":{"ha":388,"x_min":66,"x_max":528,"o":"m 332 1038 l 201 0 l 98 0 l 229 1038 l 332 1038 m 297 1356 l 389 1356 l 528 1120 l 479 1084 l 330 1264 l 106 1081 l 66 1121 l 297 1356 z "},"Ï":{"ha":388,"x_min":94,"x_max":516,"o":"m 332 1038 l 201 0 l 98 0 l 229 1038 l 332 1038 m 94 1230 q 105 1271 94 1252 q 134 1301 117 1290 q 169 1312 151 1312 q 215 1295 198 1312 q 231 1251 231 1278 q 220 1209 231 1228 q 191 1178 209 1190 q 152 1167 172 1167 q 111 1185 127 1167 q 94 1230 94 1202 m 378 1232 q 390 1272 378 1254 q 419 1301 401 1291 q 454 1312 437 1312 q 499 1296 483 1312 q 516 1253 516 1280 q 493 1193 516 1218 q 437 1167 470 1167 q 395 1185 412 1167 q 378 1232 378 1204 z "},"İ":{"ha":388,"x_min":98,"x_max":372,"o":"m 332 1038 l 201 0 l 98 0 l 229 1038 l 332 1038 m 236 1219 q 247 1260 236 1241 q 275 1291 258 1280 q 311 1302 292 1302 q 356 1286 339 1302 q 372 1242 372 1270 q 361 1200 372 1219 q 332 1169 351 1180 q 293 1158 314 1158 q 252 1175 269 1158 q 236 1219 236 1192 z "},"Ì":{"ha":388,"x_min":98,"x_max":348,"o":"m 332 1038 l 201 0 l 98 0 l 229 1038 l 332 1038 m 163 1356 l 348 1120 l 310 1086 q 194 1178 258 1117 q 99 1291 130 1240 l 163 1356 z "},"Ī":{"ha":388,"x_min":98,"x_max":458,"o":"m 332 1038 l 201 0 l 98 0 l 229 1038 l 332 1038 m 458 1263 l 454 1185 l 109 1185 l 112 1263 l 458 1263 z "},"Į":{"ha":388,"x_min":-83,"x_max":332,"o":"m 77 -218 q 184 -179 134 -218 l 212 -232 q 139 -277 181 -258 q 44 -296 96 -296 q -28 -279 1 -296 q -70 -240 -56 -263 q -83 -195 -83 -217 q -53 -114 -83 -151 q 15 -50 -23 -76 q 98 1 52 -24 l 229 1038 l 332 1038 l 201 0 l 180 0 q 100 -54 130 -33 q 44 -105 71 -75 q 18 -164 18 -135 q 34 -204 18 -190 q 77 -218 51 -218 z "},"Ĩ":{"ha":388,"x_min":47,"x_max":566,"o":"m 332 1038 l 201 0 l 98 0 l 229 1038 l 332 1038 m 47 1219 q 91 1274 62 1248 q 157 1316 121 1299 q 229 1332 194 1332 q 289 1317 264 1332 q 342 1274 313 1302 q 380 1242 364 1253 q 416 1232 396 1232 q 461 1244 441 1232 q 491 1272 480 1257 q 521 1314 503 1286 l 566 1266 q 528 1207 555 1234 q 467 1164 502 1180 q 397 1148 432 1148 q 334 1162 359 1148 q 281 1204 310 1177 q 241 1237 258 1226 q 201 1248 224 1247 q 157 1237 176 1248 q 127 1215 138 1226 q 93 1175 117 1204 l 47 1219 z "},"J":{"ha":396,"x_min":-115,"x_max":340,"o":"m 340 1038 q 264 397 303 694 q 210 51 225 99 q 139 -94 184 -38 q 36 -178 94 -149 q -96 -219 -21 -206 l -115 -173 q -4 -119 -52 -156 q 72 -37 43 -83 q 111 58 101 9 q 162 372 140 192 q 214 819 185 551 l 237 1038 l 340 1038 z "},"Ĵ":{"ha":396,"x_min":-115,"x_max":535,"o":"m 340 1038 q 264 397 303 694 q 210 51 225 99 q 139 -94 184 -38 q 36 -178 94 -149 q -96 -219 -21 -206 l -115 -173 q -4 -119 -52 -156 q 72 -37 43 -83 q 111 58 101 9 q 162 372 140 192 q 214 819 185 551 l 237 1038 l 340 1038 m 304 1356 l 396 1356 l 535 1120 l 486 1084 l 337 1264 l 113 1081 l 73 1121 l 304 1356 z "},"K":{"ha":844,"x_min":82,"x_max":870,"o":"m 448 579 q 584 345 497 500 q 647 234 578 355 l 661 209 q 737 79 710 123 q 789 0 764 35 l 666 0 q 637 48 660 7 q 585 141 614 89 l 535 233 l 506 287 q 383 508 419 447 l 227 337 l 184 0 l 82 0 l 213 1038 l 315 1038 l 244 477 l 749 1038 l 870 1038 l 448 579 z "},"Ķ":{"ha":844,"x_min":82,"x_max":870,"o":"m 358 -96 l 422 -34 q 481 -87 459 -46 q 503 -176 503 -127 q 484 -272 503 -229 q 438 -343 465 -316 q 385 -378 410 -371 l 343 -352 l 345 -338 q 388 -288 372 -320 q 404 -209 404 -255 q 390 -156 404 -180 q 355 -123 376 -132 l 358 -96 m 448 579 q 584 345 497 500 q 647 234 578 355 l 661 209 q 737 79 710 123 q 789 0 764 35 l 666 0 q 637 48 660 7 q 585 141 614 89 l 535 233 l 506 287 q 383 508 419 447 l 227 337 l 184 0 l 82 0 l 213 1038 l 315 1038 l 244 477 l 749 1038 l 870 1038 l 448 579 z "},"L":{"ha":663,"x_min":82,"x_max":597,"o":"m 315 1038 l 195 85 l 597 88 l 586 0 l 82 0 l 213 1038 l 315 1038 z "},"Ǉ":{"ha":1059,"x_min":82,"x_max":1003,"o":"m 315 1038 l 195 85 l 597 88 l 586 0 l 82 0 l 213 1038 l 315 1038 m 1003 1038 q 927 397 966 694 q 873 51 888 99 q 802 -94 847 -38 q 700 -178 757 -149 q 568 -219 642 -206 l 549 -173 q 659 -119 612 -156 q 735 -37 707 -83 q 774 58 764 9 q 826 372 803 192 q 877 819 848 551 l 901 1038 l 1003 1038 z "},"Ĺ":{"ha":663,"x_min":82,"x_max":597,"o":"m 448 1358 l 512 1292 q 417 1181 482 1242 q 298 1088 351 1121 l 259 1123 l 448 1358 m 315 1038 l 195 85 l 597 88 l 586 0 l 82 0 l 213 1038 l 315 1038 z "},"Ľ":{"ha":663,"x_min":82,"x_max":681,"o":"m 315 1038 l 195 85 l 597 88 l 586 0 l 82 0 l 213 1038 l 315 1038 m 538 695 q 586 939 586 829 q 581 1011 586 979 q 566 1056 575 1042 l 571 1073 l 661 1097 q 681 975 681 1058 q 680 941 681 952 q 653 790 677 868 q 593 661 629 713 l 541 682 l 538 695 z "},"Ļ":{"ha":663,"x_min":82,"x_max":597,"o":"m 290 -96 l 353 -34 q 412 -87 391 -46 q 434 -176 434 -127 q 415 -272 434 -229 q 369 -343 397 -316 q 316 -378 342 -371 l 275 -352 l 276 -338 q 319 -288 303 -320 q 336 -209 336 -255 q 322 -156 336 -180 q 287 -123 308 -132 l 290 -96 m 315 1038 l 195 85 l 597 88 l 586 0 l 82 0 l 213 1038 l 315 1038 z "},"Ŀ":{"ha":723,"x_min":82,"x_max":682,"o":"m 315 1038 l 195 85 l 597 88 l 586 0 l 82 0 l 213 1038 l 315 1038 m 622 673 q 668 656 653 673 q 682 612 682 640 q 660 547 682 570 q 600 524 638 524 q 557 540 574 524 q 540 585 540 557 q 563 647 540 622 q 622 673 585 673 z "},"ǈ":{"ha":1054,"x_min":82,"x_max":1008,"o":"m 315 1038 l 195 85 l 597 88 l 586 0 l 82 0 l 213 1038 l 315 1038 m 964 776 l 861 3 q 769 -257 838 -165 q 590 -349 699 -349 q 536 -342 559 -349 q 498 -323 512 -334 l 525 -265 q 547 -275 532 -271 q 576 -279 562 -279 q 674 -239 637 -279 q 731 -131 711 -199 q 764 40 751 -63 l 863 776 l 964 776 m 871 1031 q 881 1073 871 1054 q 909 1103 892 1092 q 946 1114 926 1114 q 991 1098 975 1114 q 1008 1055 1008 1081 q 998 1012 1008 1031 q 968 981 987 992 q 929 969 950 969 q 887 986 904 969 q 871 1031 871 1004 z "},"Ł":{"ha":663,"x_min":-20,"x_max":597,"o":"m 597 89 l 586 1 l 82 1 l 133 402 l -1 346 l -20 408 l 142 477 l 213 1038 l 315 1038 l 250 524 l 540 649 l 558 583 l 240 448 l 195 86 l 597 89 z "},"M":{"ha":1215,"x_min":49,"x_max":1099,"o":"m 438 1038 l 555 313 l 576 153 l 639 312 l 951 1038 l 1099 1038 l 1069 0 l 965 0 l 998 693 l 1015 970 l 907 726 l 591 -3 l 519 -12 l 404 709 l 370 970 l 317 703 l 153 0 l 49 0 l 307 1038 l 438 1038 z "},"Ṁ":{"ha":1215,"x_min":49,"x_max":1099,"o":"m 650 1219 q 661 1260 650 1241 q 689 1291 672 1280 q 725 1302 707 1302 q 770 1286 753 1302 q 787 1242 787 1270 q 776 1200 787 1219 q 747 1169 765 1180 q 707 1158 728 1158 q 667 1175 683 1158 q 650 1219 650 1192 m 438 1038 l 555 313 l 576 153 l 639 312 l 951 1038 l 1099 1038 l 1069 0 l 965 0 l 998 693 l 1015 970 l 907 726 l 591 -3 l 519 -12 l 404 709 l 370 970 l 317 703 l 153 0 l 49 0 l 307 1038 l 438 1038 z "},"N":{"ha":951,"x_min":82,"x_max":904,"o":"m 320 1038 l 653 273 l 702 133 l 716 294 l 807 1038 l 904 1038 l 773 0 l 672 0 l 337 761 l 288 923 l 269 728 l 178 0 l 82 0 l 213 1038 l 320 1038 z "},"Ǌ":{"ha":1347,"x_min":82,"x_max":1291,"o":"m 320 1038 l 653 273 l 702 133 l 716 294 l 807 1038 l 904 1038 l 773 0 l 672 0 l 337 761 l 288 923 l 269 728 l 178 0 l 82 0 l 213 1038 l 320 1038 m 1291 1038 q 1215 397 1254 694 q 1161 51 1176 99 q 1089 -94 1135 -38 q 987 -178 1044 -149 q 855 -219 930 -206 l 836 -173 q 947 -119 899 -156 q 1023 -37 994 -83 q 1062 58 1052 9 q 1113 372 1090 192 q 1164 819 1136 551 l 1188 1038 l 1291 1038 z "},"Ń":{"ha":951,"x_min":82,"x_max":904,"o":"m 734 1356 l 799 1291 q 704 1180 769 1240 q 585 1087 638 1120 l 546 1122 l 734 1356 m 320 1038 l 653 273 l 702 133 l 716 294 l 807 1038 l 904 1038 l 773 0 l 672 0 l 337 761 l 288 923 l 269 728 l 178 0 l 82 0 l 213 1038 l 320 1038 z "},"Ň":{"ha":951,"x_min":82,"x_max":904,"o":"m 411 1356 l 576 1173 l 794 1356 l 837 1311 l 618 1095 l 527 1095 l 366 1311 l 411 1356 m 320 1038 l 653 273 l 702 133 l 716 294 l 807 1038 l 904 1038 l 773 0 l 672 0 l 337 761 l 288 923 l 269 728 l 178 0 l 82 0 l 213 1038 l 320 1038 z "},"Ņ":{"ha":951,"x_min":82,"x_max":904,"o":"m 359 -97 l 422 -35 q 481 -88 460 -47 q 503 -178 503 -129 q 485 -274 503 -230 q 438 -345 466 -317 q 385 -380 411 -372 l 344 -353 l 345 -340 q 389 -289 372 -321 q 405 -210 405 -256 q 391 -158 405 -182 q 356 -125 377 -134 l 359 -97 m 320 1038 l 653 273 l 702 133 l 716 294 l 807 1038 l 904 1038 l 773 0 l 672 0 l 337 761 l 288 923 l 269 728 l 178 0 l 82 0 l 213 1038 l 320 1038 z "},"Ṅ":{"ha":951,"x_min":82,"x_max":904,"o":"m 320 1038 l 653 273 l 702 133 l 716 294 l 807 1038 l 904 1038 l 773 0 l 672 0 l 337 761 l 288 923 l 269 728 l 178 0 l 82 0 l 213 1038 l 320 1038 m 526 1219 q 537 1260 526 1241 q 565 1291 548 1280 q 601 1302 583 1302 q 646 1286 629 1302 q 663 1242 663 1270 q 652 1200 663 1219 q 623 1169 641 1180 q 583 1158 604 1158 q 543 1175 559 1158 q 526 1219 526 1192 z "},"Ŋ":{"ha":1009,"x_min":82,"x_max":904,"o":"m 904 1038 l 773 0 l 771 0 q 475 -214 711 -172 l 456 -168 q 590 -99 534 -146 q 669 8 646 -52 l 337 761 l 288 923 l 269 728 l 178 0 l 82 0 l 213 1038 l 320 1038 l 653 273 l 702 133 l 716 294 l 807 1038 l 904 1038 z "},"ǋ":{"ha":1341,"x_min":82,"x_max":1296,"o":"m 320 1038 l 653 273 l 702 133 l 716 294 l 807 1038 l 904 1038 l 773 0 l 672 0 l 337 761 l 288 923 l 269 728 l 178 0 l 82 0 l 213 1038 l 320 1038 m 1252 776 l 1148 3 q 1056 -257 1126 -165 q 878 -349 987 -349 q 823 -342 847 -349 q 785 -323 800 -334 l 812 -265 q 834 -275 819 -271 q 863 -279 850 -279 q 962 -239 924 -279 q 1019 -131 999 -199 q 1052 40 1038 -63 l 1151 776 l 1252 776 m 1158 1031 q 1169 1073 1158 1054 q 1197 1103 1179 1092 q 1234 1114 1214 1114 q 1279 1098 1262 1114 q 1296 1055 1296 1081 q 1285 1012 1296 1031 q 1256 981 1274 992 q 1217 969 1238 969 q 1175 986 1192 969 q 1158 1031 1158 1004 z "},"Ñ":{"ha":951,"x_min":82,"x_max":904,"o":"m 338 1219 q 381 1274 352 1248 q 448 1316 411 1299 q 519 1332 484 1332 q 579 1317 555 1332 q 632 1274 604 1302 q 670 1242 654 1253 q 707 1232 686 1232 q 751 1244 732 1232 q 782 1272 770 1257 q 811 1314 793 1286 l 856 1266 q 819 1207 845 1234 q 757 1164 792 1180 q 687 1148 722 1148 q 625 1162 649 1148 q 572 1204 600 1177 q 531 1237 548 1226 q 492 1248 515 1247 q 447 1237 467 1248 q 418 1215 428 1226 q 383 1175 408 1204 l 338 1219 m 320 1038 l 653 273 l 702 133 l 716 294 l 807 1038 l 904 1038 l 773 0 l 672 0 l 337 761 l 288 923 l 269 728 l 178 0 l 82 0 l 213 1038 l 320 1038 z "},"O":{"ha":935,"x_min":76,"x_max":882,"o":"m 76 433 q 138 747 76 606 q 310 968 201 888 q 551 1049 418 1049 q 733 990 659 1049 q 845 830 808 931 q 882 605 882 729 q 821 293 882 433 q 653 70 761 152 q 410 -12 546 -12 q 228 46 304 -12 q 114 204 153 104 q 76 433 76 305 m 775 587 q 715 871 775 774 q 535 968 656 968 q 355 897 435 968 q 228 706 274 825 q 182 448 182 587 q 245 162 182 258 q 427 67 308 67 q 606 137 526 67 q 730 326 686 207 q 775 587 775 446 z "},"Ó":{"ha":935,"x_min":76,"x_max":882,"o":"m 718 1356 l 783 1291 q 687 1180 753 1240 q 568 1087 622 1120 l 530 1122 l 718 1356 m 76 433 q 138 747 76 606 q 310 968 201 888 q 551 1049 418 1049 q 733 990 659 1049 q 845 830 808 931 q 882 605 882 729 q 821 293 882 433 q 653 70 761 152 q 410 -12 546 -12 q 228 46 304 -12 q 114 204 153 104 q 76 433 76 305 m 775 587 q 715 871 775 774 q 535 968 656 968 q 355 897 435 968 q 228 706 274 825 q 182 448 182 587 q 245 162 182 258 q 427 67 308 67 q 606 137 526 67 q 730 326 686 207 q 775 587 775 446 z "},"Ŏ":{"ha":935,"x_min":76,"x_max":882,"o":"m 370 1329 q 370 1343 370 1339 l 440 1343 q 442 1322 440 1333 q 480 1226 449 1265 q 574 1186 511 1186 q 653 1212 620 1186 q 705 1273 686 1237 q 729 1343 723 1309 l 798 1343 l 798 1337 q 796 1321 798 1332 q 761 1221 791 1270 q 681 1141 731 1173 q 570 1110 631 1110 q 458 1141 503 1110 q 391 1222 413 1172 q 370 1329 370 1272 m 76 433 q 138 747 76 606 q 310 968 201 888 q 551 1049 418 1049 q 733 990 659 1049 q 845 830 808 931 q 882 605 882 729 q 821 293 882 433 q 653 70 761 152 q 410 -12 546 -12 q 228 46 304 -12 q 114 204 153 104 q 76 433 76 305 m 775 587 q 715 871 775 774 q 535 968 656 968 q 355 897 435 968 q 228 706 274 825 q 182 448 182 587 q 245 162 182 258 q 427 67 308 67 q 606 137 526 67 q 730 326 686 207 q 775 587 775 446 z "},"Ǒ":{"ha":935,"x_min":76,"x_max":882,"o":"m 76 433 q 138 747 76 606 q 310 968 201 888 q 551 1049 418 1049 q 733 990 659 1049 q 845 830 808 931 q 882 605 882 729 q 821 293 882 433 q 653 70 761 152 q 410 -12 546 -12 q 228 46 304 -12 q 114 204 153 104 q 76 433 76 305 m 775 587 q 715 871 775 774 q 535 968 656 968 q 355 897 435 968 q 228 706 274 825 q 182 448 182 587 q 245 162 182 258 q 427 67 308 67 q 606 137 526 67 q 730 326 686 207 q 775 587 775 446 m 395 1356 l 560 1173 l 778 1356 l 821 1311 l 602 1095 l 511 1095 l 349 1311 l 395 1356 z "},"Ô":{"ha":935,"x_min":76,"x_max":882,"o":"m 76 433 q 138 747 76 606 q 310 968 201 888 q 551 1049 418 1049 q 733 990 659 1049 q 845 830 808 931 q 882 605 882 729 q 821 293 882 433 q 653 70 761 152 q 410 -12 546 -12 q 228 46 304 -12 q 114 204 153 104 q 76 433 76 305 m 775 587 q 715 871 775 774 q 535 968 656 968 q 355 897 435 968 q 228 706 274 825 q 182 448 182 587 q 245 162 182 258 q 427 67 308 67 q 606 137 526 67 q 730 326 686 207 q 775 587 775 446 m 571 1356 l 663 1356 l 802 1120 l 753 1084 l 604 1264 l 380 1081 l 340 1121 l 571 1356 z "},"Ö":{"ha":935,"x_min":76,"x_max":882,"o":"m 368 1230 q 379 1271 368 1252 q 407 1301 390 1290 q 442 1312 425 1312 q 488 1295 471 1312 q 505 1251 505 1278 q 493 1209 505 1228 q 464 1178 482 1190 q 425 1167 446 1167 q 384 1185 401 1167 q 368 1230 368 1202 m 652 1232 q 663 1272 652 1254 q 692 1301 675 1291 q 728 1312 710 1312 q 773 1296 756 1312 q 789 1253 789 1280 q 766 1193 789 1218 q 710 1167 743 1167 q 668 1185 685 1167 q 652 1232 652 1204 m 76 433 q 138 747 76 606 q 310 968 201 888 q 551 1049 418 1049 q 733 990 659 1049 q 845 830 808 931 q 882 605 882 729 q 821 293 882 433 q 653 70 761 152 q 410 -12 546 -12 q 228 46 304 -12 q 114 204 153 104 q 76 433 76 305 m 775 587 q 715 871 775 774 q 535 968 656 968 q 355 897 435 968 q 228 706 274 825 q 182 448 182 587 q 245 162 182 258 q 427 67 308 67 q 606 137 526 67 q 730 326 686 207 q 775 587 775 446 z "},"Ò":{"ha":935,"x_min":76,"x_max":882,"o":"m 437 1356 l 622 1120 l 584 1086 q 468 1178 532 1117 q 373 1291 404 1240 l 437 1356 m 76 433 q 138 747 76 606 q 310 968 201 888 q 551 1049 418 1049 q 733 990 659 1049 q 845 830 808 931 q 882 605 882 729 q 821 293 882 433 q 653 70 761 152 q 410 -12 546 -12 q 228 46 304 -12 q 114 204 153 104 q 76 433 76 305 m 775 587 q 715 871 775 774 q 535 968 656 968 q 355 897 435 968 q 228 706 274 825 q 182 448 182 587 q 245 162 182 258 q 427 67 308 67 q 606 137 526 67 q 730 326 686 207 q 775 587 775 446 z "},"Ő":{"ha":935,"x_min":76,"x_max":940,"o":"m 76 433 q 138 747 76 606 q 310 968 201 888 q 551 1049 418 1049 q 733 990 659 1049 q 845 830 808 931 q 882 605 882 729 q 821 293 882 433 q 653 70 761 152 q 410 -12 546 -12 q 228 46 304 -12 q 114 204 153 104 q 76 433 76 305 m 775 587 q 715 871 775 774 q 535 968 656 968 q 355 897 435 968 q 228 706 274 825 q 182 448 182 587 q 245 162 182 258 q 427 67 308 67 q 606 137 526 67 q 730 326 686 207 q 775 587 775 446 m 870 1354 l 940 1293 q 878 1214 921 1259 q 785 1128 836 1169 q 697 1065 735 1088 l 659 1099 l 870 1354 m 590 1352 l 659 1292 q 565 1178 634 1242 q 427 1064 495 1113 l 378 1098 l 590 1352 z "},"Ō":{"ha":935,"x_min":76,"x_max":882,"o":"m 732 1263 l 728 1185 l 383 1185 l 386 1263 l 732 1263 m 76 433 q 138 747 76 606 q 310 968 201 888 q 551 1049 418 1049 q 733 990 659 1049 q 845 830 808 931 q 882 605 882 729 q 821 293 882 433 q 653 70 761 152 q 410 -12 546 -12 q 228 46 304 -12 q 114 204 153 104 q 76 433 76 305 m 775 587 q 715 871 775 774 q 535 968 656 968 q 355 897 435 968 q 228 706 274 825 q 182 448 182 587 q 245 162 182 258 q 427 67 308 67 q 606 137 526 67 q 730 326 686 207 q 775 587 775 446 z "},"Ø":{"ha":935,"x_min":37,"x_max":890,"o":"m 783 942 q 857 795 832 882 q 882 606 882 708 q 821 293 882 434 q 653 71 761 153 q 410 -11 546 -11 q 289 12 344 -11 q 193 77 235 35 l 85 -83 l 37 -56 l 158 121 q 97 260 117 180 q 76 433 76 340 q 138 748 76 607 q 310 969 201 888 q 551 1050 418 1050 q 745 981 665 1050 l 842 1125 l 890 1099 l 783 942 m 535 968 q 355 897 435 968 q 228 707 274 826 q 182 448 182 587 q 222 206 182 300 l 689 907 q 535 968 631 968 m 427 68 q 606 138 526 68 q 730 327 686 208 q 775 587 775 446 q 722 859 775 764 l 252 153 q 427 68 315 68 z "},"Ǿ":{"ha":935,"x_min":37,"x_max":890,"o":"m 783 942 q 857 795 832 882 q 882 606 882 708 q 821 293 882 434 q 653 71 761 153 q 410 -11 546 -11 q 289 12 344 -11 q 193 77 235 35 l 85 -83 l 37 -56 l 158 121 q 97 260 117 180 q 76 433 76 340 q 138 748 76 607 q 310 969 201 888 q 551 1050 418 1050 q 745 981 665 1050 l 842 1125 l 890 1099 l 783 942 m 535 968 q 355 897 435 968 q 228 707 274 826 q 182 448 182 587 q 222 206 182 300 l 689 907 q 535 968 631 968 m 427 68 q 606 138 526 68 q 730 327 686 208 q 775 587 775 446 q 722 859 775 764 l 252 153 q 427 68 315 68 m 691 1356 l 755 1291 q 660 1180 726 1240 q 541 1087 595 1120 l 503 1122 l 691 1356 z "},"Õ":{"ha":935,"x_min":76,"x_max":882,"o":"m 321 1219 q 365 1274 336 1248 q 431 1316 395 1299 q 503 1332 468 1332 q 563 1317 538 1332 q 616 1274 587 1302 q 654 1242 638 1253 q 690 1232 670 1232 q 735 1244 715 1232 q 765 1272 754 1257 q 795 1314 777 1286 l 840 1266 q 802 1207 829 1234 q 741 1164 776 1180 q 671 1148 706 1148 q 608 1162 633 1148 q 555 1204 584 1177 q 515 1237 532 1226 q 475 1248 498 1247 q 431 1237 450 1248 q 401 1215 412 1226 q 367 1175 391 1204 l 321 1219 m 76 433 q 138 747 76 606 q 310 968 201 888 q 551 1049 418 1049 q 733 990 659 1049 q 845 830 808 931 q 882 605 882 729 q 821 293 882 433 q 653 70 761 152 q 410 -12 546 -12 q 228 46 304 -12 q 114 204 153 104 q 76 433 76 305 m 775 587 q 715 871 775 774 q 535 968 656 968 q 355 897 435 968 q 228 706 274 825 q 182 448 182 587 q 245 162 182 258 q 427 67 308 67 q 606 137 526 67 q 730 326 686 207 q 775 587 775 446 z "},"Œ":{"ha":1441,"x_min":76,"x_max":1396,"o":"m 975 961 l 926 568 l 1247 572 l 1241 486 l 916 494 l 863 77 l 1363 86 l 1356 0 l 752 0 l 779 209 q 622 47 716 105 q 414 -12 528 -12 q 230 46 306 -12 q 115 204 153 104 q 76 433 76 305 q 139 747 76 606 q 311 968 201 888 q 555 1049 420 1049 q 745 983 670 1049 q 853 801 820 916 l 883 1038 l 1396 1038 l 1392 956 l 975 961 m 430 67 q 612 137 531 67 q 738 327 692 208 q 783 589 783 447 q 538 968 783 968 q 356 897 437 968 q 229 706 275 825 q 182 448 182 587 q 245 162 182 257 q 430 67 309 67 z "},"P":{"ha":800,"x_min":82,"x_max":791,"o":"m 273 1038 q 378 1043 310 1038 q 481 1048 444 1048 q 712 981 633 1048 q 791 774 791 913 q 738 552 791 646 q 590 407 685 458 q 374 357 496 357 q 231 366 302 357 l 184 0 l 82 0 l 213 1038 l 273 1038 m 372 437 q 607 525 527 437 q 688 779 688 613 q 632 923 688 874 q 465 972 576 972 q 304 958 410 972 l 241 449 q 301 441 262 445 q 372 437 341 437 z "},"Ṗ":{"ha":800,"x_min":82,"x_max":791,"o":"m 462 1219 q 473 1260 462 1241 q 501 1291 484 1280 q 536 1302 518 1302 q 582 1286 565 1302 q 598 1242 598 1270 q 587 1200 598 1219 q 558 1169 576 1180 q 519 1158 540 1158 q 478 1175 494 1158 q 462 1219 462 1192 m 273 1038 q 378 1043 310 1038 q 481 1048 444 1048 q 712 981 633 1048 q 791 774 791 913 q 738 552 791 646 q 590 407 685 458 q 374 357 496 357 q 231 366 302 357 l 184 0 l 82 0 l 213 1038 l 273 1038 m 372 437 q 607 525 527 437 q 688 779 688 613 q 632 923 688 874 q 465 972 576 972 q 304 958 410 972 l 241 449 q 301 441 262 445 q 372 437 341 437 z "},"Þ":{"ha":810,"x_min":82,"x_max":764,"o":"m 764 594 q 711 382 764 473 q 563 243 658 292 q 346 194 469 194 q 209 201 267 194 l 184 0 l 82 0 l 213 1038 l 315 1038 l 292 859 q 336 862 306 859 q 458 869 414 869 q 686 800 609 869 q 764 594 764 730 m 661 597 q 608 741 661 690 q 442 791 555 791 q 364 787 417 791 q 282 779 311 783 l 220 284 q 278 277 241 280 q 349 274 315 274 q 581 359 502 275 q 661 597 661 443 z "},"Q":{"ha":935,"x_min":76,"x_max":882,"o":"m 466 -8 q 526 -120 467 -90 q 677 -149 585 -149 q 754 -143 712 -149 q 825 -125 796 -137 l 825 -205 q 739 -233 799 -222 q 618 -243 679 -243 q 505 -221 557 -243 q 421 -153 453 -199 q 390 -43 390 -108 q 392 -11 390 -28 q 220 53 291 -6 q 112 210 149 111 q 76 433 76 309 q 138 747 76 606 q 310 968 201 888 q 551 1049 418 1049 q 733 990 659 1049 q 845 830 808 931 q 882 606 882 730 q 829 312 882 446 q 682 93 777 178 q 466 -8 587 9 m 182 448 q 245 162 182 258 q 427 67 308 67 q 606 137 526 67 q 730 326 686 207 q 775 587 775 446 q 715 871 775 774 q 535 968 656 968 q 355 897 435 968 q 228 706 274 825 q 182 448 182 587 z "},"R":{"ha":852,"x_min":81,"x_max":793,"o":"m 542 460 q 609 360 572 433 q 669 229 646 287 l 690 178 q 745 54 728 90 q 776 -1 762 18 l 659 1 q 583 175 635 39 q 500 369 541 294 q 417 445 459 444 l 239 446 l 184 0 l 81 0 l 212 1038 l 263 1038 q 367 1043 300 1038 q 473 1048 433 1048 q 711 985 629 1048 q 793 801 793 922 q 762 648 793 718 q 675 529 732 578 q 542 460 618 480 m 431 527 q 565 561 508 527 q 652 657 621 595 q 682 797 682 718 q 459 970 682 970 q 384 966 435 970 q 304 959 332 962 l 250 528 q 365 527 273 527 l 431 527 z "},"Ŕ":{"ha":852,"x_min":81,"x_max":793,"o":"m 542 460 q 609 360 572 433 q 669 229 646 287 l 690 178 q 745 54 728 90 q 776 -1 762 18 l 659 1 q 583 175 635 39 q 500 369 541 294 q 417 445 459 444 l 239 446 l 184 0 l 81 0 l 212 1038 l 263 1038 q 367 1043 300 1038 q 473 1048 433 1048 q 711 985 629 1048 q 793 801 793 922 q 762 648 793 718 q 675 529 732 578 q 542 460 618 480 m 431 527 q 565 561 508 527 q 652 657 621 595 q 682 797 682 718 q 459 970 682 970 q 384 966 435 970 q 304 959 332 962 l 250 528 q 365 527 273 527 l 431 527 m 667 1356 l 732 1291 q 636 1180 702 1240 q 517 1087 571 1120 l 479 1122 l 667 1356 z "},"Ř":{"ha":852,"x_min":81,"x_max":793,"o":"m 344 1356 l 509 1173 l 727 1356 l 770 1311 l 551 1095 l 460 1095 l 298 1311 l 344 1356 m 542 460 q 609 360 572 433 q 669 229 646 287 l 690 178 q 745 54 728 90 q 776 -1 762 18 l 659 1 q 583 175 635 39 q 500 369 541 294 q 417 445 459 444 l 239 446 l 184 0 l 81 0 l 212 1038 l 263 1038 q 367 1043 300 1038 q 473 1048 433 1048 q 711 985 629 1048 q 793 801 793 922 q 762 648 793 718 q 675 529 732 578 q 542 460 618 480 m 431 527 q 565 561 508 527 q 652 657 621 595 q 682 797 682 718 q 459 970 682 970 q 384 966 435 970 q 304 959 332 962 l 250 528 q 365 527 273 527 l 431 527 z "},"Ŗ":{"ha":852,"x_min":81,"x_max":793,"o":"m 347 -97 l 410 -35 q 469 -88 448 -47 q 491 -178 491 -129 q 472 -274 491 -230 q 426 -345 454 -317 q 373 -380 399 -372 l 332 -353 l 333 -340 q 376 -289 360 -321 q 393 -210 393 -256 q 379 -158 393 -182 q 344 -125 365 -134 l 347 -97 m 542 460 q 609 360 572 433 q 669 229 646 287 l 690 178 q 745 54 728 90 q 776 -1 762 18 l 659 1 q 583 175 635 39 q 500 369 541 294 q 417 445 459 444 l 239 446 l 184 0 l 81 0 l 212 1038 l 263 1038 q 367 1043 300 1038 q 473 1048 433 1048 q 711 985 629 1048 q 793 801 793 922 q 762 648 793 718 q 675 529 732 578 q 542 460 618 480 m 431 527 q 565 561 508 527 q 652 657 621 595 q 682 797 682 718 q 459 970 682 970 q 384 966 435 970 q 304 959 332 962 l 250 528 q 365 527 273 527 l 431 527 z "},"S":{"ha":708,"x_min":20,"x_max":672,"o":"m 48 133 q 97 104 61 119 q 181 79 134 89 q 276 69 229 69 q 397 89 342 69 q 485 150 452 109 q 519 254 519 191 q 479 371 519 321 q 354 477 439 422 q 239 560 286 522 q 160 655 193 598 q 127 787 127 713 q 167 927 127 868 q 278 1018 208 987 q 437 1049 349 1049 q 672 991 591 1049 l 640 913 q 557 956 612 941 q 444 970 503 970 q 295 933 360 970 q 229 800 229 895 q 252 703 229 744 q 310 633 274 663 q 414 558 347 603 q 522 480 479 515 q 595 392 565 444 q 625 273 625 340 q 580 118 625 182 q 455 22 534 54 q 274 -11 375 -11 q 167 -1 220 -11 q 75 22 114 8 q 20 50 36 37 l 48 133 z "},"Ś":{"ha":708,"x_min":20,"x_max":680,"o":"m 48 133 q 97 104 61 119 q 181 79 134 89 q 276 69 229 69 q 397 89 342 69 q 485 150 452 109 q 519 254 519 191 q 479 371 519 321 q 354 477 439 422 q 239 560 286 522 q 160 655 193 598 q 127 787 127 713 q 167 927 127 868 q 278 1018 208 987 q 437 1049 349 1049 q 672 991 591 1049 l 640 913 q 557 956 612 941 q 444 970 503 970 q 295 933 360 970 q 229 800 229 895 q 252 703 229 744 q 310 633 274 663 q 414 558 347 603 q 522 480 479 515 q 595 392 565 444 q 625 273 625 340 q 580 118 625 182 q 455 22 534 54 q 274 -11 375 -11 q 167 -1 220 -11 q 75 22 114 8 q 20 50 36 37 l 48 133 m 615 1356 l 680 1291 q 584 1180 650 1240 q 465 1087 519 1120 l 427 1122 l 615 1356 z "},"Š":{"ha":708,"x_min":20,"x_max":718,"o":"m 48 133 q 97 104 61 119 q 181 79 134 89 q 276 69 229 69 q 397 89 342 69 q 485 150 452 109 q 519 254 519 191 q 479 371 519 321 q 354 477 439 422 q 239 560 286 522 q 160 655 193 598 q 127 787 127 713 q 167 927 127 868 q 278 1018 208 987 q 437 1049 349 1049 q 672 991 591 1049 l 640 913 q 557 956 612 941 q 444 970 503 970 q 295 933 360 970 q 229 800 229 895 q 252 703 229 744 q 310 633 274 663 q 414 558 347 603 q 522 480 479 515 q 595 392 565 444 q 625 273 625 340 q 580 118 625 182 q 455 22 534 54 q 274 -11 375 -11 q 167 -1 220 -11 q 75 22 114 8 q 20 50 36 37 l 48 133 m 292 1356 l 457 1173 l 675 1356 l 718 1311 l 499 1095 l 408 1095 l 246 1311 l 292 1356 z "},"Ş":{"ha":708,"x_min":20,"x_max":672,"o":"m 444 970 q 295 933 360 970 q 229 800 229 895 q 252 703 229 744 q 310 633 274 663 q 414 558 347 603 q 523 479 480 515 q 595 391 565 444 q 625 272 625 339 q 587 129 625 189 q 482 34 549 68 q 328 -8 415 0 q 347 -123 347 -54 q 298 -270 347 -225 q 169 -315 250 -315 q 111 -310 141 -315 q 70 -296 81 -304 l 83 -218 q 143 -230 106 -230 q 258 -99 258 -230 q 253 -10 258 -45 q 154 1 202 -9 q 70 24 106 11 q 20 50 35 37 l 48 133 q 97 104 61 119 q 181 79 134 89 q 276 69 229 69 q 397 89 342 69 q 485 150 452 109 q 519 254 519 191 q 479 371 519 321 q 354 477 439 422 q 239 560 286 522 q 160 655 193 598 q 127 787 127 713 q 167 927 127 868 q 278 1018 208 987 q 437 1049 349 1049 q 672 991 591 1049 l 640 913 q 557 956 612 941 q 444 970 503 970 z "},"Ŝ":{"ha":708,"x_min":20,"x_max":699,"o":"m 48 133 q 97 104 61 119 q 181 79 134 89 q 276 69 229 69 q 397 89 342 69 q 485 150 452 109 q 519 254 519 191 q 479 371 519 321 q 354 477 439 422 q 239 560 286 522 q 160 655 193 598 q 127 787 127 713 q 167 927 127 868 q 278 1018 208 987 q 437 1049 349 1049 q 672 991 591 1049 l 640 913 q 557 956 612 941 q 444 970 503 970 q 295 933 360 970 q 229 800 229 895 q 252 703 229 744 q 310 633 274 663 q 414 558 347 603 q 522 480 479 515 q 595 392 565 444 q 625 273 625 340 q 580 118 625 182 q 455 22 534 54 q 274 -11 375 -11 q 167 -1 220 -11 q 75 22 114 8 q 20 50 36 37 l 48 133 m 468 1356 l 560 1356 l 699 1120 l 650 1084 l 501 1264 l 277 1081 l 237 1121 l 468 1356 z "},"Ș":{"ha":708,"x_min":20,"x_max":672,"o":"m 204 -97 l 268 -35 q 327 -88 305 -47 q 349 -178 349 -129 q 330 -274 349 -230 q 284 -345 311 -317 q 231 -380 256 -372 l 189 -353 l 191 -340 q 234 -289 218 -321 q 250 -210 250 -256 q 236 -158 250 -182 q 201 -125 222 -134 l 204 -97 m 48 133 q 97 104 61 119 q 181 79 134 89 q 276 69 229 69 q 397 89 342 69 q 485 150 452 109 q 519 254 519 191 q 479 371 519 321 q 354 477 439 422 q 239 560 286 522 q 160 655 193 598 q 127 787 127 713 q 167 927 127 868 q 278 1018 208 987 q 437 1049 349 1049 q 672 991 591 1049 l 640 913 q 557 956 612 941 q 444 970 503 970 q 295 933 360 970 q 229 800 229 895 q 252 703 229 744 q 310 633 274 663 q 414 558 347 603 q 522 480 479 515 q 595 392 565 444 q 625 273 625 340 q 580 118 625 182 q 455 22 534 54 q 274 -11 375 -11 q 167 -1 220 -11 q 75 22 114 8 q 20 50 36 37 l 48 133 z "},"Ṡ":{"ha":708,"x_min":20,"x_max":672,"o":"m 408 1219 q 418 1260 408 1241 q 447 1291 429 1280 q 482 1302 464 1302 q 527 1286 511 1302 q 544 1242 544 1270 q 533 1200 544 1219 q 504 1169 522 1180 q 465 1158 486 1158 q 424 1175 440 1158 q 408 1219 408 1192 m 48 133 q 97 104 61 119 q 181 79 134 89 q 276 69 229 69 q 397 89 342 69 q 485 150 452 109 q 519 254 519 191 q 479 371 519 321 q 354 477 439 422 q 239 560 286 522 q 160 655 193 598 q 127 787 127 713 q 167 927 127 868 q 278 1018 208 987 q 437 1049 349 1049 q 672 991 591 1049 l 640 913 q 557 956 612 941 q 444 970 503 970 q 295 933 360 970 q 229 800 229 895 q 252 703 229 744 q 310 633 274 663 q 414 558 347 603 q 522 480 479 515 q 595 392 565 444 q 625 273 625 340 q 580 118 625 182 q 455 22 534 54 q 274 -11 375 -11 q 167 -1 220 -11 q 75 22 114 8 q 20 50 36 37 l 48 133 z "},"ẞ":{"ha":987,"x_min":71,"x_max":924,"o":"m 140 511 q 220 797 159 677 q 381 979 281 916 q 620 1043 482 1043 q 737 1031 690 1043 q 836 1000 785 1020 q 878 985 862 990 q 909 981 893 981 l 901 928 l 651 594 q 781 563 718 594 q 884 472 844 532 q 924 332 924 413 q 883 159 924 239 q 763 32 842 80 q 577 -16 685 -16 q 421 0 478 -16 q 321 43 363 15 l 376 127 q 457 85 404 102 q 575 68 510 68 q 692 98 637 68 q 782 184 748 127 q 817 320 817 241 q 746 479 817 425 q 521 532 675 532 l 521 564 l 780 917 q 705 948 749 936 q 612 961 661 961 q 446 917 522 961 q 318 784 370 872 q 252 568 267 695 l 176 0 l 71 0 l 140 511 z "},"T":{"ha":761,"x_min":94,"x_max":813,"o":"m 94 956 l 105 1038 l 813 1038 l 802 956 l 501 962 l 380 0 l 278 0 l 399 962 l 94 956 z "},"Ŧ":{"ha":761,"x_min":94,"x_max":813,"o":"m 501 962 l 451 565 l 661 565 l 652 497 l 442 497 l 380 0 l 278 0 l 340 497 l 149 497 l 157 565 l 349 565 l 399 962 l 94 956 l 105 1038 l 813 1038 l 802 956 l 501 962 z "},"Ť":{"ha":761,"x_min":94,"x_max":813,"o":"m 323 1356 l 489 1173 l 707 1356 l 749 1311 l 531 1095 l 439 1095 l 278 1311 l 323 1356 m 94 956 l 105 1038 l 813 1038 l 802 956 l 501 962 l 380 0 l 278 0 l 399 962 l 94 956 z "},"Ţ":{"ha":761,"x_min":94,"x_max":813,"o":"m 813 1038 l 802 956 l 501 962 l 380 0 l 357 0 q 381 -123 381 -49 q 332 -270 381 -225 q 203 -315 283 -315 q 145 -310 175 -315 q 104 -296 115 -304 l 117 -218 q 177 -230 140 -230 q 292 -99 292 -230 q 285 0 292 -37 l 278 0 l 399 962 l 94 956 l 105 1038 l 813 1038 z "},"Ț":{"ha":761,"x_min":94,"x_max":813,"o":"m 238 -97 l 302 -35 q 361 -88 339 -47 q 382 -178 382 -129 q 364 -274 382 -230 q 318 -345 345 -317 q 264 -380 290 -372 l 223 -353 l 224 -340 q 268 -289 252 -321 q 284 -210 284 -256 q 270 -158 284 -182 q 235 -125 256 -134 l 238 -97 m 94 956 l 105 1038 l 813 1038 l 802 956 l 501 962 l 380 0 l 278 0 l 399 962 l 94 956 z "},"Ṫ":{"ha":761,"x_min":94,"x_max":813,"o":"m 439 1219 q 450 1260 439 1241 q 478 1291 460 1280 q 513 1302 495 1302 q 558 1286 542 1302 q 575 1242 575 1270 q 564 1200 575 1219 q 535 1169 553 1180 q 496 1158 517 1158 q 455 1175 471 1158 q 439 1219 439 1192 m 94 956 l 105 1038 l 813 1038 l 802 956 l 501 962 l 380 0 l 278 0 l 399 962 l 94 956 z "},"U":{"ha":922,"x_min":104,"x_max":892,"o":"m 193 1038 l 295 1038 l 217 420 q 209 302 209 354 q 262 132 209 192 q 422 72 315 72 q 566 108 507 72 q 663 223 625 144 q 717 434 700 303 l 793 1038 l 892 1038 l 815 425 q 744 171 795 267 q 610 32 692 75 q 408 -12 528 -12 q 182 68 260 -12 q 104 294 104 148 q 113 402 104 328 l 193 1038 z "},"Ú":{"ha":922,"x_min":104,"x_max":892,"o":"m 705 1356 l 770 1291 q 674 1180 740 1240 q 555 1087 609 1120 l 517 1122 l 705 1356 m 193 1038 l 295 1038 l 217 420 q 209 302 209 354 q 262 132 209 192 q 422 72 315 72 q 566 108 507 72 q 663 223 625 144 q 717 434 700 303 l 793 1038 l 892 1038 l 815 425 q 744 171 795 267 q 610 32 692 75 q 408 -12 528 -12 q 182 68 260 -12 q 104 294 104 148 q 113 402 104 328 l 193 1038 z "},"Ŭ":{"ha":922,"x_min":104,"x_max":892,"o":"m 357 1329 q 357 1343 357 1339 l 427 1343 q 429 1322 427 1333 q 467 1226 436 1265 q 561 1186 498 1186 q 640 1212 607 1186 q 692 1273 673 1237 q 716 1343 710 1309 l 785 1343 l 785 1337 q 783 1321 785 1332 q 748 1221 778 1270 q 668 1141 718 1173 q 557 1110 618 1110 q 445 1141 490 1110 q 378 1222 400 1172 q 357 1329 357 1272 m 193 1038 l 295 1038 l 217 420 q 209 302 209 354 q 262 132 209 192 q 422 72 315 72 q 566 108 507 72 q 663 223 625 144 q 717 434 700 303 l 793 1038 l 892 1038 l 815 425 q 744 171 795 267 q 610 32 692 75 q 408 -12 528 -12 q 182 68 260 -12 q 104 294 104 148 q 113 402 104 328 l 193 1038 z "},"Ǔ":{"ha":922,"x_min":104,"x_max":892,"o":"m 193 1038 l 295 1038 l 217 420 q 209 302 209 354 q 262 132 209 192 q 422 72 315 72 q 566 108 507 72 q 663 223 625 144 q 717 434 700 303 l 793 1038 l 892 1038 l 815 425 q 744 171 795 267 q 610 32 692 75 q 408 -12 528 -12 q 182 68 260 -12 q 104 294 104 148 q 113 402 104 328 l 193 1038 m 382 1356 l 547 1173 l 765 1356 l 808 1311 l 589 1095 l 498 1095 l 336 1311 l 382 1356 z "},"Û":{"ha":922,"x_min":104,"x_max":892,"o":"m 193 1038 l 295 1038 l 217 420 q 209 302 209 354 q 262 132 209 192 q 422 72 315 72 q 566 108 507 72 q 663 223 625 144 q 717 434 700 303 l 793 1038 l 892 1038 l 815 425 q 744 171 795 267 q 610 32 692 75 q 408 -12 528 -12 q 182 68 260 -12 q 104 294 104 148 q 113 402 104 328 l 193 1038 m 558 1356 l 650 1356 l 789 1120 l 740 1084 l 591 1264 l 368 1081 l 328 1121 l 558 1356 z "},"Ü":{"ha":922,"x_min":104,"x_max":892,"o":"m 355 1230 q 366 1271 355 1252 q 394 1301 377 1290 q 429 1312 412 1312 q 475 1295 458 1312 q 492 1251 492 1278 q 480 1209 492 1228 q 451 1178 469 1190 q 412 1167 433 1167 q 371 1185 388 1167 q 355 1230 355 1202 m 639 1232 q 650 1272 639 1254 q 680 1301 662 1291 q 715 1312 697 1312 q 760 1296 743 1312 q 777 1253 777 1280 q 753 1193 777 1218 q 697 1167 730 1167 q 655 1185 672 1167 q 639 1232 639 1204 m 193 1038 l 295 1038 l 217 420 q 209 302 209 354 q 262 132 209 192 q 422 72 315 72 q 566 108 507 72 q 663 223 625 144 q 717 434 700 303 l 793 1038 l 892 1038 l 815 425 q 744 171 795 267 q 610 32 692 75 q 408 -12 528 -12 q 182 68 260 -12 q 104 294 104 148 q 113 402 104 328 l 193 1038 z "},"Ù":{"ha":922,"x_min":104,"x_max":892,"o":"m 424 1356 l 609 1120 l 571 1086 q 455 1178 519 1117 q 360 1291 391 1240 l 424 1356 m 193 1038 l 295 1038 l 217 420 q 209 302 209 354 q 262 132 209 192 q 422 72 315 72 q 566 108 507 72 q 663 223 625 144 q 717 434 700 303 l 793 1038 l 892 1038 l 815 425 q 744 171 795 267 q 610 32 692 75 q 408 -12 528 -12 q 182 68 260 -12 q 104 294 104 148 q 113 402 104 328 l 193 1038 z "},"Ű":{"ha":922,"x_min":104,"x_max":927,"o":"m 193 1038 l 295 1038 l 217 420 q 209 302 209 354 q 262 132 209 192 q 422 72 315 72 q 566 108 507 72 q 663 223 625 144 q 717 434 700 303 l 793 1038 l 892 1038 l 815 425 q 744 171 795 267 q 610 32 692 75 q 408 -12 528 -12 q 182 68 260 -12 q 104 294 104 148 q 113 402 104 328 l 193 1038 m 857 1354 l 927 1293 q 865 1214 908 1259 q 772 1128 823 1169 q 684 1065 722 1088 l 646 1099 l 857 1354 m 577 1352 l 646 1292 q 552 1178 621 1242 q 414 1064 482 1113 l 366 1098 l 577 1352 z "},"Ū":{"ha":922,"x_min":104,"x_max":892,"o":"m 719 1263 l 715 1185 l 370 1185 l 373 1263 l 719 1263 m 193 1038 l 295 1038 l 217 420 q 209 302 209 354 q 262 132 209 192 q 422 72 315 72 q 566 108 507 72 q 663 223 625 144 q 717 434 700 303 l 793 1038 l 892 1038 l 815 425 q 744 171 795 267 q 610 32 692 75 q 408 -12 528 -12 q 182 68 260 -12 q 104 294 104 148 q 113 402 104 328 l 193 1038 z "},"Ų":{"ha":922,"x_min":104,"x_max":892,"o":"m 892 1038 l 815 425 q 730 146 792 246 q 561 10 667 45 q 456 -90 497 -45 q 415 -164 415 -135 q 431 -204 415 -190 q 474 -218 448 -218 q 582 -178 530 -218 l 608 -231 q 537 -276 580 -257 q 441 -295 494 -295 q 369 -279 398 -295 q 327 -240 340 -263 q 314 -194 314 -216 q 363 -95 314 -141 q 482 -7 412 -50 q 408 -12 449 -12 q 182 68 260 -12 q 104 294 104 148 q 113 402 104 328 l 193 1038 l 295 1038 l 217 420 q 209 302 209 354 q 262 132 209 192 q 422 72 315 72 q 566 108 507 72 q 663 223 625 144 q 717 434 700 303 l 793 1038 l 892 1038 z "},"Ů":{"ha":922,"x_min":104,"x_max":892,"o":"m 193 1038 l 295 1038 l 217 420 q 209 302 209 354 q 262 132 209 192 q 422 72 315 72 q 566 108 507 72 q 663 223 625 144 q 717 434 700 303 l 793 1038 l 892 1038 l 815 425 q 744 171 795 267 q 610 32 692 75 q 408 -12 528 -12 q 182 68 260 -12 q 104 294 104 148 q 113 402 104 328 l 193 1038 m 352 1240 q 386 1342 352 1300 q 474 1404 420 1383 q 584 1424 527 1424 q 718 1379 669 1424 q 767 1254 767 1333 q 736 1153 767 1194 q 654 1093 705 1112 q 541 1074 602 1074 q 401 1117 451 1074 q 352 1240 352 1161 m 693 1263 q 661 1338 693 1310 q 576 1367 629 1367 q 469 1337 513 1367 q 425 1236 425 1306 q 440 1181 425 1206 q 483 1143 455 1157 q 545 1129 510 1129 q 693 1263 693 1129 z "},"Ũ":{"ha":922,"x_min":104,"x_max":892,"o":"m 309 1219 q 352 1274 323 1248 q 418 1316 382 1299 q 490 1332 455 1332 q 550 1317 526 1332 q 603 1274 574 1302 q 641 1242 625 1253 q 677 1232 657 1232 q 722 1244 703 1232 q 752 1272 741 1257 q 782 1314 764 1286 l 827 1266 q 789 1207 816 1234 q 728 1164 763 1180 q 658 1148 693 1148 q 595 1162 620 1148 q 543 1204 571 1177 q 502 1237 519 1226 q 463 1248 486 1247 q 418 1237 437 1248 q 389 1215 399 1226 q 354 1175 378 1204 l 309 1219 m 193 1038 l 295 1038 l 217 420 q 209 302 209 354 q 262 132 209 192 q 422 72 315 72 q 566 108 507 72 q 663 223 625 144 q 717 434 700 303 l 793 1038 l 892 1038 l 815 425 q 744 171 795 267 q 610 32 692 75 q 408 -12 528 -12 q 182 68 260 -12 q 104 294 104 148 q 113 402 104 328 l 193 1038 z "},"V":{"ha":793,"x_min":104,"x_max":857,"o":"m 206 1038 l 320 294 l 347 103 l 425 294 l 749 1038 l 857 1038 l 386 -3 l 277 -3 l 104 1038 l 206 1038 z "},"W":{"ha":1200,"x_min":101,"x_max":1266,"o":"m 1266 1038 l 827 -7 l 723 -7 l 663 576 l 650 736 l 593 576 l 363 -7 l 258 -7 l 101 1038 l 203 1038 l 302 294 l 329 113 l 387 288 l 627 884 l 610 1038 l 708 1038 l 782 294 l 795 113 l 863 288 l 1163 1038 l 1266 1038 z "},"Ẃ":{"ha":1200,"x_min":101,"x_max":1266,"o":"m 863 1356 l 927 1291 q 832 1180 897 1240 q 713 1087 766 1120 l 674 1122 l 863 1356 m 1266 1038 l 827 -7 l 723 -7 l 663 576 l 650 736 l 593 576 l 363 -7 l 258 -7 l 101 1038 l 203 1038 l 302 294 l 329 113 l 387 288 l 627 884 l 610 1038 l 708 1038 l 782 294 l 795 113 l 863 288 l 1163 1038 l 1266 1038 z "},"Ŵ":{"ha":1200,"x_min":101,"x_max":1266,"o":"m 1266 1038 l 827 -7 l 723 -7 l 663 576 l 650 736 l 593 576 l 363 -7 l 258 -7 l 101 1038 l 203 1038 l 302 294 l 329 113 l 387 288 l 627 884 l 610 1038 l 708 1038 l 782 294 l 795 113 l 863 288 l 1163 1038 l 1266 1038 m 715 1356 l 808 1356 l 947 1120 l 897 1084 l 749 1264 l 525 1081 l 485 1121 l 715 1356 z "},"Ẅ":{"ha":1200,"x_min":101,"x_max":1266,"o":"m 513 1230 q 524 1271 513 1252 q 552 1301 535 1290 q 587 1312 570 1312 q 633 1295 616 1312 q 650 1251 650 1278 q 638 1209 650 1228 q 609 1178 627 1190 q 570 1167 591 1167 q 529 1185 546 1167 q 513 1230 513 1202 m 797 1232 q 808 1272 797 1254 q 838 1301 820 1291 q 873 1312 855 1312 q 918 1296 901 1312 q 935 1253 935 1280 q 911 1193 935 1218 q 855 1167 888 1167 q 813 1185 830 1167 q 797 1232 797 1204 m 1266 1038 l 827 -7 l 723 -7 l 663 576 l 650 736 l 593 576 l 363 -7 l 258 -7 l 101 1038 l 203 1038 l 302 294 l 329 113 l 387 288 l 627 884 l 610 1038 l 708 1038 l 782 294 l 795 113 l 863 288 l 1163 1038 l 1266 1038 z "},"Ẁ":{"ha":1200,"x_min":101,"x_max":1266,"o":"m 582 1356 l 767 1120 l 729 1086 q 613 1178 677 1117 q 518 1291 549 1240 l 582 1356 m 1266 1038 l 827 -7 l 723 -7 l 663 576 l 650 736 l 593 576 l 363 -7 l 258 -7 l 101 1038 l 203 1038 l 302 294 l 329 113 l 387 288 l 627 884 l 610 1038 l 708 1038 l 782 294 l 795 113 l 863 288 l 1163 1038 l 1266 1038 z "},"X":{"ha":778,"x_min":-24,"x_max":822,"o":"m 134 1038 l 246 1038 l 419 607 l 707 1038 l 822 1038 l 458 514 l 694 0 l 578 0 l 392 445 l 100 0 l -24 0 l 353 534 l 134 1038 z "},"Y":{"ha":734,"x_min":71,"x_max":823,"o":"m 71 1038 l 180 1038 l 357 556 l 385 486 l 422 555 l 713 1038 l 823 1038 l 421 397 l 370 0 l 273 0 l 324 397 l 71 1038 z "},"Ý":{"ha":734,"x_min":71,"x_max":823,"o":"m 71 1038 l 180 1038 l 357 556 l 385 486 l 422 555 l 713 1038 l 823 1038 l 421 397 l 370 0 l 273 0 l 324 397 l 71 1038 m 615 1356 l 680 1291 q 584 1180 650 1240 q 465 1087 519 1120 l 427 1122 l 615 1356 z "},"Ŷ":{"ha":734,"x_min":71,"x_max":823,"o":"m 71 1038 l 180 1038 l 357 556 l 385 486 l 422 555 l 713 1038 l 823 1038 l 421 397 l 370 0 l 273 0 l 324 397 l 71 1038 m 468 1356 l 560 1356 l 699 1120 l 650 1084 l 501 1264 l 277 1081 l 237 1121 l 468 1356 z "},"Ÿ":{"ha":734,"x_min":71,"x_max":823,"o":"m 71 1038 l 180 1038 l 357 556 l 385 486 l 422 555 l 713 1038 l 823 1038 l 421 397 l 370 0 l 273 0 l 324 397 l 71 1038 m 265 1230 q 276 1271 265 1252 q 305 1301 288 1290 q 340 1312 322 1312 q 386 1295 369 1312 q 402 1251 402 1278 q 391 1209 402 1228 q 361 1178 380 1190 q 323 1167 343 1167 q 282 1185 298 1167 q 265 1230 265 1202 m 549 1232 q 561 1272 549 1254 q 590 1301 572 1291 q 625 1312 608 1312 q 670 1296 654 1312 q 687 1253 687 1280 q 664 1193 687 1218 q 608 1167 641 1167 q 566 1185 583 1167 q 549 1232 549 1204 z "},"Ẏ":{"ha":734,"x_min":71,"x_max":823,"o":"m 71 1038 l 180 1038 l 357 556 l 385 486 l 422 555 l 713 1038 l 823 1038 l 421 397 l 370 0 l 273 0 l 324 397 l 71 1038 m 407 1219 q 418 1260 407 1241 q 446 1291 429 1280 q 481 1302 463 1302 q 527 1286 510 1302 q 543 1242 543 1270 q 532 1200 543 1219 q 503 1169 522 1180 q 464 1158 485 1158 q 423 1175 439 1158 q 407 1219 407 1192 z "},"Ỳ":{"ha":734,"x_min":71,"x_max":823,"o":"m 71 1038 l 180 1038 l 357 556 l 385 486 l 422 555 l 713 1038 l 823 1038 l 421 397 l 370 0 l 273 0 l 324 397 l 71 1038 m 334 1356 l 519 1120 l 481 1086 q 365 1178 429 1117 q 270 1291 300 1240 l 334 1356 z "},"Z":{"ha":785,"x_min":10,"x_max":802,"o":"m 568 832 l 670 958 l 165 951 l 176 1038 l 789 1038 l 802 993 l 230 182 l 146 82 l 696 88 l 682 0 l 24 0 l 10 47 l 568 832 z "},"Ź":{"ha":785,"x_min":10,"x_max":802,"o":"m 568 832 l 670 958 l 165 951 l 176 1038 l 789 1038 l 802 993 l 230 182 l 146 82 l 696 88 l 682 0 l 24 0 l 10 47 l 568 832 m 661 1356 l 725 1291 q 630 1180 695 1240 q 511 1087 564 1120 l 472 1122 l 661 1356 z "},"Ž":{"ha":785,"x_min":10,"x_max":802,"o":"m 337 1356 l 503 1173 l 720 1356 l 763 1311 l 545 1095 l 453 1095 l 292 1311 l 337 1356 m 568 832 l 670 958 l 165 951 l 176 1038 l 789 1038 l 802 993 l 230 182 l 146 82 l 696 88 l 682 0 l 24 0 l 10 47 l 568 832 z "},"Ż":{"ha":785,"x_min":10,"x_max":802,"o":"m 452 1219 q 463 1260 452 1241 q 491 1291 474 1280 q 527 1302 509 1302 q 572 1286 555 1302 q 589 1242 589 1270 q 578 1200 589 1219 q 549 1169 567 1180 q 509 1158 530 1158 q 469 1175 485 1158 q 452 1219 452 1192 m 568 832 l 670 958 l 165 951 l 176 1038 l 789 1038 l 802 993 l 230 182 l 146 82 l 696 88 l 682 0 l 24 0 l 10 47 l 568 832 z "},"a":{"ha":766,"x_min":55,"x_max":706,"o":"m 706 784 l 600 0 l 511 0 l 524 137 l 524 139 q 414 33 481 77 q 271 -11 348 -11 q 109 67 163 -11 q 55 281 55 146 q 103 512 55 396 q 248 706 151 629 q 484 784 345 784 q 555 777 516 784 q 629 760 595 770 l 706 784 m 288 68 q 389 97 340 68 q 475 169 438 127 q 536 252 513 211 l 550 378 l 593 684 q 534 703 567 696 q 468 709 500 709 q 301 646 371 709 q 195 487 231 583 q 159 294 159 391 q 192 124 159 181 q 288 68 224 68 z "},"á":{"ha":766,"x_min":55,"x_max":706,"o":"m 706 784 l 600 0 l 511 0 l 524 137 l 524 139 q 414 33 481 77 q 271 -11 348 -11 q 109 67 163 -11 q 55 281 55 146 q 103 512 55 396 q 248 706 151 629 q 484 784 345 784 q 555 777 516 784 q 629 760 595 770 l 706 784 m 288 68 q 389 97 340 68 q 475 169 438 127 q 536 252 513 211 l 550 378 l 593 684 q 534 703 567 696 q 468 709 500 709 q 301 646 371 709 q 195 487 231 583 q 159 294 159 391 q 192 124 159 181 q 288 68 224 68 m 627 1157 l 705 1086 q 648 1015 692 1063 q 552 919 604 966 q 461 848 500 871 l 418 886 l 627 1157 z "},"ă":{"ha":766,"x_min":55,"x_max":710,"o":"m 706 784 l 600 0 l 511 0 l 524 137 l 524 139 q 414 33 481 77 q 271 -11 348 -11 q 109 67 163 -11 q 55 281 55 146 q 103 512 55 396 q 248 706 151 629 q 484 784 345 784 q 555 777 516 784 q 629 760 595 770 l 706 784 m 288 68 q 389 97 340 68 q 475 169 438 127 q 536 252 513 211 l 550 378 l 593 684 q 534 703 567 696 q 468 709 500 709 q 301 646 371 709 q 195 487 231 583 q 159 294 159 391 q 192 124 159 181 q 288 68 224 68 m 282 1105 q 283 1119 282 1115 l 353 1119 q 355 1099 353 1109 q 393 1002 361 1042 q 486 962 424 962 q 566 988 532 962 q 617 1049 599 1013 q 642 1119 635 1085 l 710 1119 l 710 1114 q 709 1097 710 1108 q 673 998 703 1046 q 594 918 644 949 q 483 886 544 886 q 371 917 416 886 q 304 998 326 948 q 282 1105 282 1048 z "},"ǎ":{"ha":766,"x_min":55,"x_max":772,"o":"m 706 784 l 600 0 l 511 0 l 524 137 l 524 139 q 414 33 481 77 q 271 -11 348 -11 q 109 67 163 -11 q 55 281 55 146 q 103 512 55 396 q 248 706 151 629 q 484 784 345 784 q 555 777 516 784 q 629 760 595 770 l 706 784 m 288 68 q 389 97 340 68 q 475 169 438 127 q 536 252 513 211 l 550 378 l 593 684 q 534 703 567 696 q 468 709 500 709 q 301 646 371 709 q 195 487 231 583 q 159 294 159 391 q 192 124 159 181 q 288 68 224 68 m 334 1141 l 503 951 l 729 1141 l 772 1095 l 545 873 l 453 873 l 289 1095 l 334 1141 z "},"â":{"ha":766,"x_min":55,"x_max":732,"o":"m 706 784 l 600 0 l 511 0 l 524 137 l 524 139 q 414 33 481 77 q 271 -11 348 -11 q 109 67 163 -11 q 55 281 55 146 q 103 512 55 396 q 248 706 151 629 q 484 784 345 784 q 555 777 516 784 q 629 760 595 770 l 706 784 m 288 68 q 389 97 340 68 q 475 169 438 127 q 536 252 513 211 l 550 378 l 593 684 q 534 703 567 696 q 468 709 500 709 q 301 646 371 709 q 195 487 231 583 q 159 294 159 391 q 192 124 159 181 q 288 68 224 68 m 502 1161 l 595 1161 l 732 905 l 683 869 l 535 1069 l 309 866 l 269 906 l 502 1161 z "},"ä":{"ha":766,"x_min":55,"x_max":709,"o":"m 706 784 l 600 0 l 511 0 l 524 137 l 524 139 q 414 33 481 77 q 271 -11 348 -11 q 109 67 163 -11 q 55 281 55 146 q 103 512 55 396 q 248 706 151 629 q 484 784 345 784 q 555 777 516 784 q 629 760 595 770 l 706 784 m 288 68 q 389 97 340 68 q 475 169 438 127 q 536 252 513 211 l 550 378 l 593 684 q 534 703 567 696 q 468 709 500 709 q 301 646 371 709 q 195 487 231 583 q 159 294 159 391 q 192 124 159 181 q 288 68 224 68 m 286 1019 q 297 1061 286 1042 q 325 1091 307 1080 q 362 1102 342 1102 q 407 1085 390 1102 q 424 1042 424 1069 q 400 982 424 1007 q 345 958 377 958 q 303 975 320 958 q 286 1019 286 992 m 572 1019 q 582 1061 572 1042 q 610 1091 593 1080 q 648 1102 628 1102 q 692 1085 675 1102 q 709 1042 709 1069 q 686 982 709 1007 q 630 958 663 958 q 589 975 606 958 q 572 1019 572 992 z "},"à":{"ha":766,"x_min":55,"x_max":706,"o":"m 706 784 l 600 0 l 511 0 l 524 137 l 524 139 q 414 33 481 77 q 271 -11 348 -11 q 109 67 163 -11 q 55 281 55 146 q 103 512 55 396 q 248 706 151 629 q 484 784 345 784 q 555 777 516 784 q 629 760 595 770 l 706 784 m 288 68 q 389 97 340 68 q 475 169 438 127 q 536 252 513 211 l 550 378 l 593 684 q 534 703 567 696 q 468 709 500 709 q 301 646 371 709 q 195 487 231 583 q 159 294 159 391 q 192 124 159 181 q 288 68 224 68 m 319 1155 l 518 886 l 474 848 q 393 915 441 871 q 302 1005 345 958 q 241 1084 260 1053 l 319 1155 z "},"ā":{"ha":766,"x_min":55,"x_max":706,"o":"m 706 784 l 600 0 l 511 0 l 524 137 l 524 139 q 414 33 481 77 q 271 -11 348 -11 q 109 67 163 -11 q 55 281 55 146 q 103 512 55 396 q 248 706 151 629 q 484 784 345 784 q 555 777 516 784 q 629 760 595 770 l 706 784 m 288 68 q 389 97 340 68 q 475 169 438 127 q 536 252 513 211 l 550 378 l 593 684 q 534 703 567 696 q 468 709 500 709 q 301 646 371 709 q 195 487 231 583 q 159 294 159 391 q 192 124 159 181 q 288 68 224 68 m 649 1051 l 646 974 l 300 974 l 303 1051 l 649 1051 z "},"ą":{"ha":781,"x_min":63,"x_max":714,"o":"m 501 -218 q 608 -178 557 -218 l 635 -231 q 563 -276 606 -257 q 468 -295 521 -295 q 396 -279 425 -295 q 354 -240 368 -263 q 341 -194 341 -216 q 370 -113 341 -151 q 436 -50 399 -75 q 519 2 473 -24 l 532 137 l 532 139 q 422 33 489 77 q 279 -11 356 -11 q 117 67 172 -11 q 63 281 63 146 q 111 512 63 396 q 256 706 159 629 q 492 784 353 784 q 564 777 524 784 q 637 760 603 770 l 714 784 l 608 0 l 600 0 q 523 -53 553 -31 q 467 -105 493 -75 q 441 -164 441 -135 q 458 -204 441 -190 q 501 -218 475 -218 m 296 68 q 397 97 349 68 q 484 169 446 127 q 545 252 521 211 l 558 378 l 602 684 q 542 703 575 696 q 476 709 509 709 q 309 646 379 709 q 203 487 239 583 q 168 294 168 391 q 200 124 168 181 q 296 68 233 68 z "},"å":{"ha":766,"x_min":55,"x_max":724,"o":"m 706 784 l 600 0 l 511 0 l 524 137 l 524 139 q 414 33 481 77 q 271 -11 348 -11 q 109 67 163 -11 q 55 281 55 146 q 103 512 55 396 q 248 706 151 629 q 484 784 345 784 q 555 777 516 784 q 629 760 595 770 l 706 784 m 288 68 q 389 97 340 68 q 475 169 438 127 q 536 252 513 211 l 550 378 l 593 684 q 534 703 567 696 q 468 709 500 709 q 301 646 371 709 q 195 487 231 583 q 159 294 159 391 q 192 124 159 181 q 288 68 224 68 m 309 1022 q 343 1125 309 1082 q 431 1188 378 1167 q 541 1209 485 1209 q 675 1164 626 1209 q 724 1040 724 1120 q 693 938 724 979 q 611 875 662 896 q 498 854 559 854 q 359 899 408 854 q 309 1022 309 943 m 650 1048 q 618 1124 650 1095 q 533 1152 587 1152 q 460 1139 494 1152 q 404 1097 426 1126 q 382 1019 382 1067 q 397 963 382 988 q 439 925 412 939 q 503 911 467 911 q 609 943 568 911 q 650 1048 650 975 z "},"ã":{"ha":766,"x_min":55,"x_max":747,"o":"m 706 784 l 600 0 l 511 0 l 524 137 l 524 139 q 414 33 481 77 q 271 -11 348 -11 q 109 67 163 -11 q 55 281 55 146 q 103 512 55 396 q 248 706 151 629 q 484 784 345 784 q 555 777 516 784 q 629 760 595 770 l 706 784 m 288 68 q 389 97 340 68 q 475 169 438 127 q 536 252 513 211 l 550 378 l 593 684 q 534 703 567 696 q 468 709 500 709 q 301 646 371 709 q 195 487 231 583 q 159 294 159 391 q 192 124 159 181 q 288 68 224 68 m 229 1006 q 272 1060 243 1034 q 337 1102 301 1086 q 407 1118 373 1118 q 468 1104 443 1118 q 522 1063 492 1090 q 561 1031 545 1041 q 597 1021 576 1021 q 650 1039 629 1021 q 685 1077 672 1058 q 702 1100 699 1095 l 747 1053 q 709 995 736 1021 q 647 952 682 968 q 577 937 612 937 q 530 944 551 937 q 496 963 510 952 q 462 991 481 973 q 421 1024 438 1013 q 380 1035 404 1034 q 330 1019 351 1035 q 283 972 309 1002 q 275 962 284 974 l 229 1006 z "},"æ":{"ha":1101,"x_min":55,"x_max":1053,"o":"m 739 69 q 857 98 795 69 q 975 185 918 127 l 1004 126 q 941 64 982 96 q 844 11 900 33 q 727 -11 788 -11 q 563 42 625 -11 q 477 180 500 94 q 377 44 435 98 q 243 -11 319 -11 q 55 281 55 -11 q 103 512 55 396 q 248 706 151 629 q 484 784 345 784 q 580 773 534 784 q 677 731 625 762 q 863 784 762 784 q 968 762 926 784 q 1031 702 1010 740 q 1053 614 1053 663 q 970 442 1053 511 q 776 339 888 373 q 570 300 664 305 l 569 280 q 608 130 569 191 q 739 69 646 69 m 463 288 q 500 503 463 403 q 605 673 538 604 q 537 700 572 690 q 468 709 502 709 q 301 646 371 709 q 195 487 231 583 q 159 294 159 391 q 185 123 159 179 q 265 68 212 68 q 370 122 321 68 q 464 260 418 176 q 463 288 463 269 m 951 606 q 923 682 951 657 q 842 707 894 707 q 710 657 769 707 q 616 530 652 608 q 573 373 581 453 q 743 405 654 376 q 891 487 831 435 q 951 606 951 538 z "},"ǽ":{"ha":1101,"x_min":55,"x_max":1053,"o":"m 764 1156 l 842 1085 q 785 1014 829 1062 q 689 918 741 965 q 598 847 637 870 l 555 884 l 764 1156 m 739 69 q 857 98 795 69 q 975 185 918 127 l 1004 126 q 941 64 982 96 q 844 11 900 33 q 727 -11 788 -11 q 563 42 625 -11 q 477 180 500 94 q 377 44 435 98 q 243 -11 319 -11 q 55 281 55 -11 q 103 512 55 396 q 248 706 151 629 q 484 784 345 784 q 580 773 534 784 q 677 731 625 762 q 863 784 762 784 q 968 762 926 784 q 1031 702 1010 740 q 1053 614 1053 663 q 970 442 1053 511 q 776 339 888 373 q 570 300 664 305 l 569 280 q 608 130 569 191 q 739 69 646 69 m 463 288 q 500 503 463 403 q 605 673 538 604 q 537 700 572 690 q 468 709 502 709 q 301 646 371 709 q 195 487 231 583 q 159 294 159 391 q 185 123 159 179 q 265 68 212 68 q 370 122 321 68 q 464 260 418 176 q 463 288 463 269 m 951 606 q 923 682 951 657 q 842 707 894 707 q 710 657 769 707 q 616 530 652 608 q 573 373 581 453 q 743 405 654 376 q 891 487 831 435 q 951 606 951 538 z "},"b":{"ha":786,"x_min":64,"x_max":719,"o":"m 503 784 q 665 705 610 784 q 719 490 719 627 q 670 260 719 376 q 522 66 621 144 q 284 -11 424 -11 q 201 -2 247 -11 q 121 19 155 7 l 64 1 l 212 1110 l 308 1110 l 269 778 l 245 637 q 357 741 289 697 q 503 784 425 784 m 300 64 q 471 128 400 64 q 578 289 543 193 q 614 479 614 386 q 582 648 614 591 q 486 705 549 705 q 386 678 434 705 q 299 611 337 651 q 236 532 260 572 l 176 87 q 235 70 202 77 q 300 64 269 64 z "},"ḃ":{"ha":786,"x_min":64,"x_max":719,"o":"m 503 784 q 665 705 610 784 q 719 490 719 627 q 670 260 719 376 q 522 66 621 144 q 284 -11 424 -11 q 201 -2 247 -11 q 121 19 155 7 l 64 1 l 212 1110 l 308 1110 l 269 778 l 245 637 q 357 741 289 697 q 503 784 425 784 m 300 64 q 471 128 400 64 q 578 289 543 193 q 614 479 614 386 q 582 648 614 591 q 486 705 549 705 q 386 678 434 705 q 299 611 337 651 q 236 532 260 572 l 176 87 q 235 70 202 77 q 300 64 269 64 m 498 1031 q 508 1073 498 1054 q 536 1103 519 1092 q 573 1114 553 1114 q 618 1098 602 1114 q 635 1055 635 1081 q 625 1012 635 1031 q 595 981 614 992 q 556 969 577 969 q 514 986 531 969 q 498 1031 498 1004 z "},"c":{"ha":618,"x_min":60,"x_max":599,"o":"m 450 784 q 531 777 490 784 q 599 756 572 770 l 572 669 q 514 699 548 689 q 441 708 479 708 q 304 652 368 708 q 202 504 241 597 q 163 304 163 410 q 204 124 163 182 q 328 66 245 66 q 427 92 382 66 q 522 166 472 117 l 555 111 q 457 27 521 65 q 313 -11 394 -11 q 125 70 191 -11 q 60 294 60 151 q 106 520 60 406 q 240 709 152 634 q 450 784 329 784 z "},"ć":{"ha":618,"x_min":60,"x_max":670,"o":"m 592 1156 l 670 1085 q 613 1014 656 1062 q 517 918 569 965 q 426 847 465 870 l 383 884 l 592 1156 m 450 784 q 531 777 490 784 q 599 756 572 770 l 572 669 q 514 699 548 689 q 441 708 479 708 q 304 652 368 708 q 202 504 241 597 q 163 304 163 410 q 204 124 163 182 q 328 66 245 66 q 427 92 382 66 q 522 166 472 117 l 555 111 q 457 27 521 65 q 313 -11 394 -11 q 125 70 191 -11 q 60 294 60 151 q 106 520 60 406 q 240 709 152 634 q 450 784 329 784 z "},"č":{"ha":618,"x_min":60,"x_max":736,"o":"m 298 1139 l 467 950 l 693 1139 l 736 1094 l 509 871 l 417 871 l 253 1094 l 298 1139 m 450 784 q 531 777 490 784 q 599 756 572 770 l 572 669 q 514 699 548 689 q 441 708 479 708 q 304 652 368 708 q 202 504 241 597 q 163 304 163 410 q 204 124 163 182 q 328 66 245 66 q 427 92 382 66 q 522 166 472 117 l 555 111 q 457 27 521 65 q 313 -11 394 -11 q 125 70 191 -11 q 60 294 60 151 q 106 520 60 406 q 240 709 152 634 q 450 784 329 784 z "},"ç":{"ha":618,"x_min":60,"x_max":599,"o":"m 441 708 q 304 652 368 708 q 202 504 241 597 q 163 304 163 410 q 204 124 163 182 q 328 66 245 66 q 427 92 382 66 q 522 166 472 117 l 555 111 q 473 37 526 72 q 353 -8 420 1 q 372 -121 372 -54 q 323 -268 372 -223 q 194 -313 275 -313 q 136 -308 166 -313 q 95 -294 106 -302 l 109 -216 q 168 -228 132 -228 q 283 -97 283 -228 q 278 -9 283 -44 q 116 81 172 2 q 60 294 60 161 q 106 520 60 406 q 240 709 152 634 q 450 784 329 784 q 531 777 490 784 q 599 756 572 770 l 572 669 q 514 699 548 689 q 441 708 479 708 z "},"ĉ":{"ha":618,"x_min":60,"x_max":697,"o":"m 467 1160 l 559 1160 l 697 904 l 648 868 l 500 1067 l 274 865 l 234 905 l 467 1160 m 450 784 q 531 777 490 784 q 599 756 572 770 l 572 669 q 514 699 548 689 q 441 708 479 708 q 304 652 368 708 q 202 504 241 597 q 163 304 163 410 q 204 124 163 182 q 328 66 245 66 q 427 92 382 66 q 522 166 472 117 l 555 111 q 457 27 521 65 q 313 -11 394 -11 q 125 70 191 -11 q 60 294 60 151 q 106 520 60 406 q 240 709 152 634 q 450 784 329 784 z "},"ċ":{"ha":618,"x_min":60,"x_max":599,"o":"m 450 784 q 531 777 490 784 q 599 756 572 770 l 572 669 q 514 699 548 689 q 441 708 479 708 q 304 652 368 708 q 202 504 241 597 q 163 304 163 410 q 204 124 163 182 q 328 66 245 66 q 427 92 382 66 q 522 166 472 117 l 555 111 q 457 27 521 65 q 313 -11 394 -11 q 125 70 191 -11 q 60 294 60 151 q 106 520 60 406 q 240 709 152 634 q 450 784 329 784 m 395 1031 q 405 1073 395 1054 q 433 1103 416 1092 q 470 1114 450 1114 q 515 1098 498 1114 q 532 1055 532 1081 q 522 1012 532 1031 q 492 981 511 992 q 453 969 474 969 q 411 986 428 969 q 395 1031 395 1004 z "},"d":{"ha":779,"x_min":54,"x_max":755,"o":"m 755 1110 l 604 0 l 514 0 l 528 141 q 416 34 484 79 q 269 -11 347 -11 q 108 68 162 -11 q 54 282 54 146 q 102 513 54 396 q 250 707 151 629 q 488 784 348 784 q 608 767 540 784 l 655 1110 l 755 1110 m 287 68 q 387 96 338 68 q 473 165 435 124 q 536 246 511 205 l 597 686 q 537 704 570 697 q 472 710 504 710 q 302 645 373 710 q 194 484 231 581 q 158 294 158 387 q 191 125 158 182 q 287 68 224 68 z "},"ð":{"ha":788,"x_min":60,"x_max":722,"o":"m 517 1062 q 672 848 623 964 q 722 589 722 731 q 677 287 722 423 q 543 69 631 150 q 332 -12 454 -12 q 183 34 244 -12 q 91 150 121 79 q 60 296 60 220 q 113 554 60 444 q 253 724 166 665 q 437 783 339 783 q 549 763 498 783 q 625 706 601 743 q 572 874 610 804 q 461 1008 533 945 l 353 887 l 297 933 l 408 1050 q 317 1106 362 1082 q 236 1137 271 1130 l 259 1200 q 353 1164 298 1191 q 456 1107 408 1138 q 518 1177 483 1136 q 564 1232 553 1219 l 615 1185 q 574 1137 604 1172 q 512 1066 543 1101 l 517 1062 m 608 432 q 613 476 610 443 q 618 533 617 509 q 619 568 620 556 q 594 626 616 593 q 532 685 573 659 q 434 710 492 710 q 293 652 353 710 q 201 497 233 593 q 169 291 169 401 q 190 177 169 230 q 250 92 210 124 q 346 60 290 60 q 465 107 410 60 q 556 236 519 155 q 606 417 593 318 l 608 432 z "},"ď":{"ha":969,"x_min":54,"x_max":975,"o":"m 755 1110 l 604 0 l 514 0 l 528 141 q 416 34 484 79 q 269 -11 347 -11 q 108 68 162 -11 q 54 282 54 146 q 102 513 54 396 q 250 707 151 629 q 488 784 348 784 q 608 767 540 784 l 655 1110 l 755 1110 m 287 68 q 387 96 338 68 q 473 165 435 124 q 536 246 511 205 l 597 686 q 537 704 570 697 q 472 710 504 710 q 302 645 373 710 q 194 484 231 581 q 158 294 158 387 q 191 125 158 182 q 287 68 224 68 m 831 723 q 880 967 880 857 q 874 1039 880 1007 q 860 1084 869 1070 l 865 1101 l 955 1124 q 975 1002 975 1086 q 974 968 975 980 q 947 818 971 896 q 887 689 923 741 l 834 709 l 831 723 z "},"đ":{"ha":779,"x_min":54,"x_max":830,"o":"m 821 876 l 724 876 l 604 0 l 514 0 l 528 141 q 416 34 484 79 q 269 -11 347 -11 q 108 68 162 -11 q 54 282 54 146 q 102 513 54 396 q 250 707 151 629 q 488 784 348 784 q 608 767 540 784 l 623 876 l 427 876 l 435 944 l 632 944 l 655 1110 l 755 1110 l 732 944 l 830 944 l 821 876 m 287 68 q 387 96 338 68 q 473 165 435 124 q 536 246 511 205 l 597 686 q 537 704 570 697 q 472 710 504 710 q 302 645 373 710 q 194 484 231 581 q 158 294 158 387 q 191 125 158 182 q 287 68 224 68 z "},"ḋ":{"ha":779,"x_min":54,"x_max":755,"o":"m 755 1110 l 604 0 l 514 0 l 528 141 q 416 34 484 79 q 269 -11 347 -11 q 108 68 162 -11 q 54 282 54 146 q 102 513 54 396 q 250 707 151 629 q 488 784 348 784 q 608 767 540 784 l 655 1110 l 755 1110 m 287 68 q 387 96 338 68 q 473 165 435 124 q 536 246 511 205 l 597 686 q 537 704 570 697 q 472 710 504 710 q 302 645 373 710 q 194 484 231 581 q 158 294 158 387 q 191 125 158 182 q 287 68 224 68 m 264 1031 q 275 1073 264 1054 q 303 1103 286 1092 q 340 1114 320 1114 q 385 1098 368 1114 q 402 1055 402 1081 q 391 1012 402 1031 q 362 981 380 992 q 323 969 344 969 q 281 986 298 969 q 264 1031 264 1004 z "},"ǳ":{"ha":1432,"x_min":54,"x_max":1430,"o":"m 755 1110 l 604 0 l 514 0 l 528 141 q 416 34 484 79 q 269 -11 347 -11 q 108 68 162 -11 q 54 282 54 146 q 102 513 54 396 q 250 707 151 629 q 488 784 348 784 q 608 767 540 784 l 655 1110 l 755 1110 m 287 68 q 387 96 338 68 q 473 165 435 124 q 536 246 511 205 l 597 686 q 537 704 570 697 q 472 710 504 710 q 302 645 373 710 q 194 484 231 581 q 158 294 158 387 q 191 125 158 182 q 287 68 224 68 m 895 81 l 1330 81 l 1322 0 l 796 0 l 765 31 l 1186 568 l 1300 692 l 904 692 l 916 773 l 1406 773 l 1430 745 l 991 184 l 895 81 z "},"ǆ":{"ha":1432,"x_min":54,"x_max":1458,"o":"m 755 1110 l 604 0 l 514 0 l 528 141 q 416 34 484 79 q 269 -11 347 -11 q 108 68 162 -11 q 54 282 54 146 q 102 513 54 396 q 250 707 151 629 q 488 784 348 784 q 608 767 540 784 l 655 1110 l 755 1110 m 287 68 q 387 96 338 68 q 473 165 435 124 q 536 246 511 205 l 597 686 q 537 704 570 697 q 472 710 504 710 q 302 645 373 710 q 194 484 231 581 q 158 294 158 387 q 191 125 158 182 q 287 68 224 68 m 895 81 l 1330 81 l 1322 0 l 796 0 l 765 31 l 1186 568 l 1300 692 l 904 692 l 916 773 l 1406 773 l 1430 745 l 991 184 l 895 81 m 1021 1141 l 1190 952 l 1415 1141 l 1458 1096 l 1231 873 l 1139 873 l 975 1096 l 1021 1141 z "},"e":{"ha":699,"x_min":59,"x_max":650,"o":"m 461 784 q 566 762 524 784 q 629 702 608 740 q 650 614 650 663 q 568 442 650 511 q 374 339 486 373 q 168 300 262 305 q 167 278 167 293 q 206 130 167 190 q 336 69 245 69 q 455 98 393 69 q 572 184 516 127 l 602 126 q 539 64 580 96 q 442 11 498 33 q 325 -11 386 -11 q 172 33 232 -11 q 85 148 112 77 q 61 299 59 218 q 116 545 64 434 q 257 720 168 655 q 461 784 347 784 m 549 606 q 520 682 549 657 q 439 707 492 707 q 309 657 368 707 q 214 530 250 608 q 171 373 178 453 q 340 405 252 376 q 489 487 429 435 q 549 606 549 538 z "},"é":{"ha":699,"x_min":59,"x_max":659,"o":"m 581 1156 l 659 1085 q 602 1014 646 1062 q 506 918 558 965 q 415 847 454 870 l 372 884 l 581 1156 m 461 784 q 566 762 524 784 q 629 702 608 740 q 650 614 650 663 q 568 442 650 511 q 374 339 486 373 q 168 300 262 305 q 167 278 167 293 q 206 130 167 190 q 336 69 245 69 q 455 98 393 69 q 572 184 516 127 l 602 126 q 539 64 580 96 q 442 11 498 33 q 325 -11 386 -11 q 172 33 232 -11 q 85 148 112 77 q 61 299 59 218 q 116 545 64 434 q 257 720 168 655 q 461 784 347 784 m 549 606 q 520 682 549 657 q 439 707 492 707 q 309 657 368 707 q 214 530 250 608 q 171 373 178 453 q 340 405 252 376 q 489 487 429 435 q 549 606 549 538 z "},"ĕ":{"ha":699,"x_min":59,"x_max":664,"o":"m 461 784 q 566 762 524 784 q 629 702 608 740 q 650 614 650 663 q 568 442 650 511 q 374 339 486 373 q 168 300 262 305 q 167 278 167 293 q 206 130 167 190 q 336 69 245 69 q 455 98 393 69 q 572 184 516 127 l 602 126 q 539 64 580 96 q 442 11 498 33 q 325 -11 386 -11 q 172 33 232 -11 q 85 148 112 77 q 61 299 59 218 q 116 545 64 434 q 257 720 168 655 q 461 784 347 784 m 549 606 q 520 682 549 657 q 439 707 492 707 q 309 657 368 707 q 214 530 250 608 q 171 373 178 453 q 340 405 252 376 q 489 487 429 435 q 549 606 549 538 m 236 1105 q 237 1120 236 1116 l 307 1120 q 309 1099 307 1109 q 347 1003 315 1042 q 440 963 378 963 q 519 988 486 963 q 571 1050 553 1014 q 595 1120 589 1086 l 664 1120 l 664 1114 q 663 1098 664 1109 q 627 998 657 1047 q 548 918 597 949 q 437 887 498 887 q 325 918 370 887 q 258 999 279 949 q 236 1105 236 1048 z "},"ě":{"ha":699,"x_min":59,"x_max":726,"o":"m 288 1139 l 457 950 l 683 1139 l 726 1094 l 498 871 l 407 871 l 243 1094 l 288 1139 m 461 784 q 566 762 524 784 q 629 702 608 740 q 650 614 650 663 q 568 442 650 511 q 374 339 486 373 q 168 300 262 305 q 167 278 167 293 q 206 130 167 190 q 336 69 245 69 q 455 98 393 69 q 572 184 516 127 l 602 126 q 539 64 580 96 q 442 11 498 33 q 325 -11 386 -11 q 172 33 232 -11 q 85 148 112 77 q 61 299 59 218 q 116 545 64 434 q 257 720 168 655 q 461 784 347 784 m 549 606 q 520 682 549 657 q 439 707 492 707 q 309 657 368 707 q 214 530 250 608 q 171 373 178 453 q 340 405 252 376 q 489 487 429 435 q 549 606 549 538 z "},"ê":{"ha":699,"x_min":59,"x_max":687,"o":"m 456 1160 l 549 1160 l 687 904 l 637 868 l 490 1067 l 264 865 l 224 905 l 456 1160 m 461 784 q 566 762 524 784 q 629 702 608 740 q 650 614 650 663 q 568 442 650 511 q 374 339 486 373 q 168 300 262 305 q 167 278 167 293 q 206 130 167 190 q 336 69 245 69 q 455 98 393 69 q 572 184 516 127 l 602 126 q 539 64 580 96 q 442 11 498 33 q 325 -11 386 -11 q 172 33 232 -11 q 85 148 112 77 q 61 299 59 218 q 116 545 64 434 q 257 720 168 655 q 461 784 347 784 m 549 606 q 520 682 549 657 q 439 707 492 707 q 309 657 368 707 q 214 530 250 608 q 171 373 178 453 q 340 405 252 376 q 489 487 429 435 q 549 606 549 538 z "},"ë":{"ha":699,"x_min":59,"x_max":664,"o":"m 241 1017 q 251 1059 241 1040 q 279 1089 262 1078 q 317 1101 297 1101 q 361 1084 345 1101 q 378 1041 378 1067 q 355 981 378 1006 q 299 956 332 956 q 258 974 275 956 q 241 1017 241 991 m 526 1017 q 537 1059 526 1040 q 565 1089 547 1078 q 602 1101 583 1101 q 647 1084 630 1101 q 664 1041 664 1067 q 641 981 664 1006 q 585 956 617 956 q 543 974 560 956 q 526 1017 526 991 m 461 784 q 566 762 524 784 q 629 702 608 740 q 650 614 650 663 q 568 442 650 511 q 374 339 486 373 q 168 300 262 305 q 167 278 167 293 q 206 130 167 190 q 336 69 245 69 q 455 98 393 69 q 572 184 516 127 l 602 126 q 539 64 580 96 q 442 11 498 33 q 325 -11 386 -11 q 172 33 232 -11 q 85 148 112 77 q 61 299 59 218 q 116 545 64 434 q 257 720 168 655 q 461 784 347 784 m 549 606 q 520 682 549 657 q 439 707 492 707 q 309 657 368 707 q 214 530 250 608 q 171 373 178 453 q 340 405 252 376 q 489 487 429 435 q 549 606 549 538 z "},"ė":{"ha":699,"x_min":59,"x_max":650,"o":"m 461 784 q 566 762 524 784 q 629 702 608 740 q 650 614 650 663 q 568 442 650 511 q 374 339 486 373 q 168 300 262 305 q 167 278 167 293 q 206 130 167 190 q 336 69 245 69 q 455 98 393 69 q 572 184 516 127 l 602 126 q 539 64 580 96 q 442 11 498 33 q 325 -11 386 -11 q 172 33 232 -11 q 85 148 112 77 q 61 299 59 218 q 116 545 64 434 q 257 720 168 655 q 461 784 347 784 m 549 606 q 520 682 549 657 q 439 707 492 707 q 309 657 368 707 q 214 530 250 608 q 171 373 178 453 q 340 405 252 376 q 489 487 429 435 q 549 606 549 538 m 384 1031 q 394 1073 384 1054 q 422 1103 405 1092 q 459 1114 439 1114 q 505 1098 488 1114 q 522 1055 522 1081 q 511 1012 522 1031 q 481 981 500 992 q 442 969 463 969 q 400 986 417 969 q 384 1031 384 1004 z "},"è":{"ha":699,"x_min":59,"x_max":650,"o":"m 461 784 q 566 762 524 784 q 629 702 608 740 q 650 614 650 663 q 568 442 650 511 q 374 339 486 373 q 168 300 262 305 q 167 278 167 293 q 206 130 167 190 q 336 69 245 69 q 455 98 393 69 q 572 184 516 127 l 602 126 q 539 64 580 96 q 442 11 498 33 q 325 -11 386 -11 q 172 33 232 -11 q 85 148 112 77 q 61 299 59 218 q 116 545 64 434 q 257 720 168 655 q 461 784 347 784 m 549 606 q 520 682 549 657 q 439 707 492 707 q 309 657 368 707 q 214 530 250 608 q 171 373 178 453 q 340 405 252 376 q 489 487 429 435 q 549 606 549 538 m 273 1156 l 472 886 l 428 849 q 347 915 395 871 q 256 1006 299 959 q 195 1085 214 1053 l 273 1156 z "},"ē":{"ha":699,"x_min":59,"x_max":650,"o":"m 461 784 q 566 762 524 784 q 629 702 608 740 q 650 614 650 663 q 568 442 650 511 q 374 339 486 373 q 168 300 262 305 q 167 278 167 293 q 206 130 167 190 q 336 69 245 69 q 455 98 393 69 q 572 184 516 127 l 602 126 q 539 64 580 96 q 442 11 498 33 q 325 -11 386 -11 q 172 33 232 -11 q 85 148 112 77 q 61 299 59 218 q 116 545 64 434 q 257 720 168 655 q 461 784 347 784 m 549 606 q 520 682 549 657 q 439 707 492 707 q 309 657 368 707 q 214 530 250 608 q 171 373 178 453 q 340 405 252 376 q 489 487 429 435 q 549 606 549 538 m 603 1052 l 600 975 l 254 975 l 257 1052 l 603 1052 z "},"ę":{"ha":707,"x_min":59,"x_max":650,"o":"m 336 69 q 455 98 393 69 q 572 184 516 127 l 602 126 q 559 81 583 101 l 562 82 q 519 43 550 71 q 393 -80 441 -28 q 345 -164 345 -132 q 362 -204 345 -190 q 405 -218 378 -218 q 512 -178 460 -218 l 539 -231 q 467 -276 509 -257 q 372 -295 425 -295 q 300 -279 329 -295 q 258 -240 271 -263 q 245 -194 245 -216 q 295 -91 245 -141 q 411 1 345 -41 q 325 -11 369 -11 q 172 33 232 -11 q 85 148 112 77 q 61 299 59 218 q 116 545 64 434 q 257 720 168 655 q 461 784 347 784 q 566 762 524 784 q 629 702 608 740 q 650 614 650 663 q 568 442 650 511 q 374 339 486 373 q 168 300 262 305 q 167 278 167 293 q 206 130 167 190 q 336 69 245 69 m 439 707 q 309 657 368 707 q 214 530 250 608 q 171 373 178 453 q 340 405 252 376 q 489 487 429 435 q 549 606 549 538 q 520 682 549 657 q 439 707 492 707 z "},"f":{"ha":471,"x_min":103,"x_max":603,"o":"m 103 692 l 118 772 l 217 773 l 229 857 q 275 1004 240 941 q 367 1103 310 1067 q 500 1138 425 1138 q 555 1134 530 1138 q 603 1120 580 1131 l 577 1038 q 488 1059 545 1060 q 413 1036 446 1059 q 359 972 380 1012 q 332 883 338 932 l 318 773 l 483 773 l 477 692 l 307 692 l 214 0 l 113 0 l 206 692 l 103 692 z "},"ḟ":{"ha":471,"x_min":103,"x_max":603,"o":"m 239 1231 q 250 1273 239 1254 q 278 1303 260 1292 q 315 1314 295 1314 q 360 1298 343 1314 q 377 1255 377 1281 q 366 1212 377 1232 q 337 1181 355 1192 q 298 1169 319 1169 q 256 1186 273 1169 q 239 1231 239 1204 m 103 692 l 118 772 l 217 773 l 229 857 q 275 1004 240 941 q 367 1103 310 1067 q 500 1138 425 1138 q 555 1134 530 1138 q 603 1120 580 1131 l 577 1038 q 488 1059 545 1060 q 413 1036 446 1059 q 359 972 380 1012 q 332 883 338 932 l 318 773 l 483 773 l 477 692 l 307 692 l 214 0 l 113 0 l 206 692 l 103 692 z "},"g":{"ha":779,"x_min":54,"x_max":715,"o":"m 715 784 l 596 -60 q 527 -224 582 -161 q 399 -315 472 -288 q 252 -342 326 -342 q 153 -335 208 -342 q 78 -319 98 -328 l 104 -233 q 179 -257 135 -248 q 271 -266 223 -266 q 420 -213 363 -266 q 495 -62 477 -161 l 528 141 q 416 34 484 79 q 269 -11 347 -11 q 108 68 162 -11 q 54 282 54 146 q 102 513 54 396 q 250 707 151 629 q 488 784 348 784 q 562 777 521 784 q 637 760 602 770 l 715 784 m 600 685 q 538 703 572 696 q 472 709 505 709 q 302 645 373 709 q 194 484 231 580 q 158 294 158 387 q 191 125 158 182 q 287 68 224 68 q 385 95 337 68 q 471 162 433 122 q 534 243 509 201 l 600 685 z "},"ğ":{"ha":779,"x_min":54,"x_max":715,"o":"m 715 784 l 596 -60 q 527 -224 582 -161 q 399 -315 472 -288 q 252 -342 326 -342 q 153 -335 208 -342 q 78 -319 98 -328 l 104 -233 q 179 -257 135 -248 q 271 -266 223 -266 q 420 -213 363 -266 q 495 -62 477 -161 l 528 141 q 416 34 484 79 q 269 -11 347 -11 q 108 68 162 -11 q 54 282 54 146 q 102 513 54 396 q 250 707 151 629 q 488 784 348 784 q 562 777 521 784 q 637 760 602 770 l 715 784 m 600 685 q 538 703 572 696 q 472 709 505 709 q 302 645 373 709 q 194 484 231 580 q 158 294 158 387 q 191 125 158 182 q 287 68 224 68 q 385 95 337 68 q 471 162 433 122 q 534 243 509 201 l 600 685 m 285 1105 q 286 1120 285 1116 l 355 1120 q 357 1099 355 1109 q 395 1003 364 1042 q 489 963 427 963 q 568 988 535 963 q 620 1050 602 1014 q 644 1120 638 1086 l 713 1120 l 713 1114 q 711 1098 713 1109 q 676 998 706 1047 q 596 918 646 949 q 486 887 547 887 q 373 918 418 887 q 307 999 328 949 q 285 1105 285 1048 z "},"ǧ":{"ha":779,"x_min":54,"x_max":774,"o":"m 715 784 l 596 -60 q 527 -224 582 -161 q 399 -315 472 -288 q 252 -342 326 -342 q 153 -335 208 -342 q 78 -319 98 -328 l 104 -233 q 179 -257 135 -248 q 271 -266 223 -266 q 420 -213 363 -266 q 495 -62 477 -161 l 528 141 q 416 34 484 79 q 269 -11 347 -11 q 108 68 162 -11 q 54 282 54 146 q 102 513 54 396 q 250 707 151 629 q 488 784 348 784 q 562 777 521 784 q 637 760 602 770 l 715 784 m 600 685 q 538 703 572 696 q 472 709 505 709 q 302 645 373 709 q 194 484 231 580 q 158 294 158 387 q 191 125 158 182 q 287 68 224 68 q 385 95 337 68 q 471 162 433 122 q 534 243 509 201 l 600 685 m 337 1141 l 506 952 l 732 1141 l 774 1096 l 547 873 l 456 873 l 292 1096 l 337 1141 z "},"ĝ":{"ha":779,"x_min":54,"x_max":735,"o":"m 505 1160 l 597 1160 l 735 904 l 686 868 l 538 1067 l 312 865 l 272 905 l 505 1160 m 715 784 l 596 -60 q 527 -224 582 -161 q 399 -315 472 -288 q 252 -342 326 -342 q 153 -335 208 -342 q 78 -319 98 -328 l 104 -233 q 179 -257 135 -248 q 271 -266 223 -266 q 420 -213 363 -266 q 495 -62 477 -161 l 528 141 q 416 34 484 79 q 269 -11 347 -11 q 108 68 162 -11 q 54 282 54 146 q 102 513 54 396 q 250 707 151 629 q 488 784 348 784 q 562 777 521 784 q 637 760 602 770 l 715 784 m 600 685 q 538 703 572 696 q 472 709 505 709 q 302 645 373 709 q 194 484 231 580 q 158 294 158 387 q 191 125 158 182 q 287 68 224 68 q 385 95 337 68 q 471 162 433 122 q 534 243 509 201 l 600 685 z "},"ģ":{"ha":779,"x_min":54,"x_max":715,"o":"m 473 850 q 425 879 446 856 q 393 933 404 901 q 382 999 382 966 q 405 1093 384 1050 q 456 1162 426 1135 q 515 1195 487 1188 l 556 1168 l 555 1155 q 481 1031 485 1114 q 497 973 480 1000 q 540 939 513 945 l 536 912 l 473 850 m 715 784 l 596 -60 q 527 -224 582 -161 q 399 -315 472 -288 q 252 -342 326 -342 q 153 -335 208 -342 q 78 -319 98 -328 l 104 -233 q 179 -257 135 -248 q 271 -266 223 -266 q 420 -213 363 -266 q 495 -62 477 -161 l 528 141 q 416 34 484 79 q 269 -11 347 -11 q 108 68 162 -11 q 54 282 54 146 q 102 513 54 396 q 250 707 151 629 q 488 784 348 784 q 562 777 521 784 q 637 760 602 770 l 715 784 m 600 685 q 538 703 572 696 q 472 709 505 709 q 302 645 373 709 q 194 484 231 580 q 158 294 158 387 q 191 125 158 182 q 287 68 224 68 q 385 95 337 68 q 471 162 433 122 q 534 243 509 201 l 600 685 z "},"ġ":{"ha":779,"x_min":54,"x_max":715,"o":"m 715 784 l 596 -60 q 527 -224 582 -161 q 399 -315 472 -288 q 252 -342 326 -342 q 153 -335 208 -342 q 78 -319 98 -328 l 104 -233 q 179 -257 135 -248 q 271 -266 223 -266 q 420 -213 363 -266 q 495 -62 477 -161 l 528 141 q 416 34 484 79 q 269 -11 347 -11 q 108 68 162 -11 q 54 282 54 146 q 102 513 54 396 q 250 707 151 629 q 488 784 348 784 q 562 777 521 784 q 637 760 602 770 l 715 784 m 600 685 q 538 703 572 696 q 472 709 505 709 q 302 645 373 709 q 194 484 231 580 q 158 294 158 387 q 191 125 158 182 q 287 68 224 68 q 385 95 337 68 q 471 162 433 122 q 534 243 509 201 l 600 685 m 433 1031 q 443 1073 433 1054 q 471 1103 454 1092 q 508 1114 488 1114 q 553 1098 536 1114 q 570 1055 570 1081 q 559 1012 570 1031 q 530 981 549 992 q 491 969 512 969 q 449 986 466 969 q 433 1031 433 1004 z "},"ḡ":{"ha":779,"x_min":54,"x_max":715,"o":"m 715 784 l 596 -60 q 527 -224 582 -161 q 399 -315 472 -288 q 252 -342 326 -342 q 153 -335 208 -342 q 78 -319 98 -328 l 104 -233 q 179 -257 135 -248 q 271 -266 223 -266 q 420 -213 363 -266 q 495 -62 477 -161 l 528 141 q 416 34 484 79 q 269 -11 347 -11 q 108 68 162 -11 q 54 282 54 146 q 102 513 54 396 q 250 707 151 629 q 488 784 348 784 q 562 777 521 784 q 637 760 602 770 l 715 784 m 600 685 q 538 703 572 696 q 472 709 505 709 q 302 645 373 709 q 194 484 231 580 q 158 294 158 387 q 191 125 158 182 q 287 68 224 68 q 385 95 337 68 q 471 162 433 122 q 534 243 509 201 l 600 685 m 652 1052 l 648 975 l 303 975 l 306 1052 l 652 1052 z "},"h":{"ha":812,"x_min":66,"x_max":720,"o":"m 564 784 q 683 737 646 784 q 720 593 720 690 q 713 502 720 561 q 692 348 705 442 q 654 98 687 314 l 639 0 l 538 0 q 572 228 543 41 q 590 347 585 311 q 611 497 604 444 q 618 585 618 550 q 597 666 618 641 q 524 690 576 690 q 427 662 481 690 q 321 587 373 633 q 233 489 270 541 l 166 0 l 66 0 l 209 1110 l 309 1110 l 272 785 l 242 590 q 394 728 307 673 q 564 784 481 784 z "},"ħ":{"ha":812,"x_min":66,"x_max":720,"o":"m 564 784 q 683 737 646 784 q 720 593 720 690 q 713 502 720 561 q 692 348 705 442 q 654 98 687 314 l 639 0 l 538 0 q 572 228 543 41 q 590 347 585 311 q 611 497 604 444 q 618 585 618 550 q 597 666 618 641 q 524 690 576 690 q 427 662 481 690 q 321 587 373 633 q 233 489 270 541 l 166 0 l 66 0 l 179 876 l 90 876 l 99 944 l 187 944 l 209 1110 l 309 1110 l 290 944 l 494 944 l 485 876 l 282 876 l 272 785 l 242 590 q 394 728 307 673 q 564 784 481 784 z "},"ĥ":{"ha":812,"x_min":66,"x_max":753,"o":"m 564 784 q 683 737 646 784 q 720 593 720 690 q 713 502 720 561 q 692 348 705 442 q 654 98 687 314 l 639 0 l 538 0 q 572 228 543 41 q 590 347 585 311 q 611 497 604 444 q 618 585 618 550 q 597 666 618 641 q 524 690 576 690 q 427 662 481 690 q 321 587 373 633 q 233 489 270 541 l 166 0 l 66 0 l 209 1110 l 309 1110 l 295 989 l 522 1220 l 614 1220 l 753 984 l 704 948 l 555 1128 l 332 945 l 294 982 l 272 785 l 242 590 q 394 728 307 673 q 564 784 481 784 z "},"i":{"ha":382,"x_min":90,"x_max":353,"o":"m 296 776 l 191 0 l 90 0 l 195 776 l 296 776 m 215 1031 q 225 1073 215 1054 q 253 1103 236 1092 q 290 1114 271 1114 q 336 1098 319 1114 q 353 1055 353 1081 q 342 1012 353 1031 q 313 981 331 992 q 273 969 294 969 q 232 986 248 969 q 215 1031 215 1004 z "},"ı":{"ha":382,"x_min":90,"x_max":296,"o":"m 296 776 l 191 0 l 90 0 l 195 776 l 296 776 z "},"í":{"ha":382,"x_min":90,"x_max":490,"o":"m 412 1156 l 490 1085 q 433 1014 477 1062 q 337 918 389 965 q 246 847 285 870 l 203 884 l 412 1156 m 296 776 l 191 0 l 90 0 l 195 776 l 296 776 z "},"ĭ":{"ha":382,"x_min":67,"x_max":495,"o":"m 296 776 l 191 0 l 90 0 l 195 776 l 296 776 m 67 1105 q 68 1120 67 1116 l 138 1120 q 140 1099 138 1109 q 178 1003 146 1042 q 271 963 209 963 q 351 988 317 963 q 402 1050 384 1014 q 427 1120 420 1086 l 495 1120 l 495 1114 q 494 1098 495 1109 q 458 998 488 1047 q 379 918 429 949 q 268 887 329 887 q 156 918 201 887 q 89 999 111 949 q 67 1105 67 1048 z "},"ǐ":{"ha":382,"x_min":74,"x_max":557,"o":"m 296 776 l 191 0 l 90 0 l 195 776 l 296 776 m 119 1141 l 288 952 l 514 1141 l 557 1096 l 330 873 l 238 873 l 74 1096 l 119 1141 z "},"î":{"ha":382,"x_min":54,"x_max":517,"o":"m 287 1160 l 380 1160 l 517 904 l 468 868 l 320 1067 l 94 865 l 54 905 l 287 1160 m 296 776 l 191 0 l 90 0 l 195 776 l 296 776 z "},"ï":{"ha":382,"x_min":71,"x_max":494,"o":"m 71 1017 q 82 1059 71 1040 q 110 1089 92 1078 q 147 1101 127 1101 q 192 1084 175 1101 q 209 1041 209 1067 q 185 981 209 1006 q 130 956 162 956 q 88 974 105 956 q 71 1017 71 991 m 357 1017 q 367 1059 357 1040 q 395 1089 378 1078 q 433 1101 413 1101 q 477 1084 460 1101 q 494 1041 494 1067 q 471 981 494 1006 q 415 956 448 956 q 374 974 391 956 q 357 1017 357 991 m 296 776 l 191 0 l 90 0 l 195 776 l 296 776 z "},"ì":{"ha":382,"x_min":26,"x_max":303,"o":"m 296 776 l 191 0 l 90 0 l 195 776 l 296 776 m 104 1156 l 303 886 l 259 849 q 178 915 227 871 q 87 1006 130 959 q 26 1085 45 1053 l 104 1156 z "},"ĳ":{"ha":773,"x_min":90,"x_max":728,"o":"m 296 776 l 191 0 l 90 0 l 195 776 l 296 776 m 215 1031 q 225 1073 215 1054 q 253 1103 236 1092 q 290 1114 271 1114 q 336 1098 319 1114 q 353 1055 353 1081 q 342 1012 353 1031 q 313 981 331 992 q 273 969 294 969 q 232 986 248 969 q 215 1031 215 1004 m 684 776 l 580 3 q 488 -257 557 -165 q 309 -349 418 -349 q 255 -342 279 -349 q 217 -323 231 -334 l 244 -265 q 266 -275 251 -271 q 295 -279 281 -279 q 393 -239 356 -279 q 450 -131 431 -199 q 484 40 470 -63 l 583 776 l 684 776 m 590 1031 q 601 1073 590 1054 q 628 1103 611 1092 q 665 1114 646 1114 q 711 1098 694 1114 q 728 1055 728 1081 q 717 1012 728 1031 q 688 981 706 992 q 648 969 669 969 q 607 986 623 969 q 590 1031 590 1004 z "},"ī":{"ha":382,"x_min":85,"x_max":434,"o":"m 296 776 l 191 0 l 90 0 l 195 776 l 296 776 m 434 1052 l 431 975 l 85 975 l 88 1052 l 434 1052 z "},"į":{"ha":411,"x_min":-77,"x_max":357,"o":"m 294 1112 q 340 1096 323 1112 q 357 1053 357 1079 q 346 1010 357 1029 q 317 979 335 990 q 277 967 298 967 q 236 984 252 967 q 219 1029 219 1002 q 230 1071 219 1052 q 257 1101 240 1090 q 294 1112 275 1112 m 182 0 q 106 -53 136 -31 q 50 -105 76 -75 q 24 -164 24 -135 q 41 -204 24 -190 q 83 -218 57 -218 q 191 -179 140 -218 l 218 -231 q 146 -276 189 -257 q 51 -295 104 -295 q -21 -279 7 -295 q -63 -240 -50 -263 q -77 -195 -77 -216 q -24 -86 -77 -133 q 101 1 28 -39 l 205 776 l 307 776 l 201 0 l 182 0 z "},"ĩ":{"ha":382,"x_min":14,"x_max":532,"o":"m 296 776 l 191 0 l 90 0 l 195 776 l 296 776 m 14 1006 q 57 1061 28 1035 q 122 1103 86 1086 q 192 1119 158 1119 q 253 1105 228 1119 q 307 1063 277 1090 q 346 1031 330 1042 q 382 1021 361 1021 q 435 1040 414 1021 q 470 1077 457 1059 q 487 1101 484 1096 l 532 1053 q 494 996 521 1022 q 432 953 467 969 q 362 937 397 937 q 315 945 336 937 q 281 963 295 953 q 247 992 267 974 q 206 1024 223 1014 q 165 1036 189 1035 q 115 1019 136 1036 q 68 973 94 1003 q 60 962 69 975 l 14 1006 z "},"j":{"ha":391,"x_min":-165,"x_max":345,"o":"m 301 776 l 197 3 q 105 -257 175 -165 q -73 -349 36 -349 q -127 -342 -104 -349 q -165 -323 -151 -334 l -138 -265 q -116 -275 -132 -271 q -87 -279 -101 -279 q 11 -239 -26 -279 q 68 -131 48 -199 q 101 40 87 -63 l 200 776 l 301 776 m 208 1031 q 218 1073 208 1054 q 246 1103 229 1092 q 283 1114 263 1114 q 328 1098 311 1114 q 345 1055 345 1081 q 334 1012 345 1031 q 305 981 323 992 q 266 969 287 969 q 224 986 241 969 q 208 1031 208 1004 z "},"ȷ":{"ha":391,"x_min":-165,"x_max":301,"o":"m 301 776 l 197 3 q 105 -257 175 -165 q -73 -349 36 -349 q -127 -342 -104 -349 q -165 -323 -151 -334 l -138 -265 q -116 -275 -132 -271 q -87 -279 -101 -279 q 11 -239 -26 -279 q 68 -131 48 -199 q 101 40 87 -63 l 200 776 l 301 776 z "},"ĵ":{"ha":391,"x_min":-165,"x_max":510,"o":"m 301 776 l 197 3 q 105 -257 175 -165 q -73 -349 36 -349 q -127 -342 -104 -349 q -165 -323 -151 -334 l -138 -265 q -116 -275 -132 -271 q -87 -279 -101 -279 q 11 -239 -26 -279 q 68 -131 48 -199 q 101 40 87 -63 l 200 776 l 301 776 m 279 1162 l 372 1162 l 510 906 l 460 870 l 313 1069 l 87 867 l 47 907 l 279 1162 z "},"k":{"ha":694,"x_min":66,"x_max":680,"o":"m 307 1110 l 167 0 l 66 0 l 207 1110 l 307 1110 m 604 594 q 497 489 562 536 q 371 411 432 441 l 656 2 l 538 2 l 254 426 l 255 427 l 254 427 q 386 508 330 469 q 481 594 441 547 q 583 773 553 676 l 680 773 q 604 594 673 686 z "},"ķ":{"ha":694,"x_min":66,"x_max":680,"o":"m 254 -97 l 318 -35 q 377 -88 355 -47 q 399 -178 399 -129 q 380 -274 399 -230 q 334 -345 361 -317 q 281 -380 307 -372 l 239 -353 l 241 -340 q 284 -289 268 -321 q 300 -210 300 -256 q 287 -158 300 -182 q 252 -125 273 -134 l 254 -97 m 307 1110 l 167 0 l 66 0 l 207 1110 l 307 1110 m 604 594 q 497 489 562 536 q 371 411 432 441 l 656 2 l 538 2 l 254 426 l 255 427 l 254 427 q 386 508 330 469 q 481 594 441 547 q 583 773 553 676 l 680 773 q 604 594 673 686 z "},"ĸ":{"ha":694,"x_min":56,"x_max":683,"o":"m 260 781 l 157 0 l 56 0 l 161 781 l 260 781 m 655 678 q 579 566 629 620 q 474 472 530 513 q 371 409 418 432 l 656 0 l 538 0 l 254 424 l 255 425 l 254 425 q 544 678 464 543 q 587 781 573 726 l 683 781 q 655 678 680 727 z "},"l":{"ha":382,"x_min":90,"x_max":342,"o":"m 342 1110 l 191 2 l 90 2 l 241 1110 l 342 1110 z "},"ĺ":{"ha":382,"x_min":90,"x_max":513,"o":"m 449 1356 l 513 1291 q 418 1180 484 1240 q 299 1087 353 1120 l 260 1122 l 449 1356 m 332 1034 l 191 0 l 90 0 l 232 1034 l 332 1034 z "},"ľ":{"ha":538,"x_min":90,"x_max":590,"o":"m 342 1110 l 191 2 l 90 2 l 241 1110 l 342 1110 m 447 723 q 495 967 495 857 q 490 1039 495 1007 q 475 1084 484 1070 l 480 1101 l 570 1124 q 590 1002 590 1086 q 589 968 590 980 q 563 818 587 896 q 503 689 538 741 l 450 709 l 447 723 z "},"ļ":{"ha":382,"x_min":54,"x_max":342,"o":"m 68 -97 l 132 -35 q 191 -88 170 -47 q 213 -178 213 -129 q 194 -274 213 -230 q 148 -345 176 -317 q 95 -380 121 -372 l 54 -353 l 55 -340 q 98 -289 82 -321 q 115 -210 115 -256 q 101 -158 115 -182 q 66 -125 87 -134 l 68 -97 m 342 1110 l 191 2 l 90 2 l 241 1110 l 342 1110 z "},"ŀ":{"ha":574,"x_min":90,"x_max":568,"o":"m 342 1110 l 191 2 l 90 2 l 241 1110 l 342 1110 m 507 589 q 553 573 538 589 q 568 529 568 557 q 546 463 568 486 q 486 440 524 440 q 443 457 460 440 q 425 501 425 473 q 448 564 425 538 q 507 589 471 589 z "},"ǉ":{"ha":772,"x_min":90,"x_max":727,"o":"m 342 1110 l 191 2 l 90 2 l 241 1110 l 342 1110 m 683 776 l 579 3 q 487 -257 557 -165 q 309 -349 418 -349 q 254 -342 278 -349 q 216 -323 231 -334 l 243 -265 q 266 -275 250 -271 q 294 -279 281 -279 q 393 -239 355 -279 q 450 -131 430 -199 q 483 40 469 -63 l 582 776 l 683 776 m 589 1031 q 600 1073 589 1054 q 628 1103 610 1092 q 665 1114 645 1114 q 710 1098 693 1114 q 727 1055 727 1081 q 716 1012 727 1031 q 687 981 705 992 q 648 969 669 969 q 606 986 623 969 q 589 1031 589 1004 z "},"ł":{"ha":382,"x_min":41,"x_max":404,"o":"m 404 711 l 281 663 l 191 2 l 90 2 l 174 621 l 41 568 l 41 639 l 185 698 l 241 1110 l 342 1110 l 292 741 l 404 787 l 404 711 z "},"m":{"ha":1208,"x_min":63,"x_max":1118,"o":"m 964 784 q 1080 739 1042 784 q 1118 591 1118 694 q 1090 347 1118 529 q 1061 155 1082 286 l 1038 2 l 936 2 q 969 224 945 70 q 988 347 988 346 q 1015 585 1015 520 q 995 666 1015 641 q 923 690 974 690 q 806 646 873 690 q 686 536 740 602 q 664 367 682 486 l 661 348 q 622 85 659 326 l 609 2 l 508 2 q 543 233 519 86 l 559 347 q 581 497 574 443 q 587 585 587 551 q 567 666 587 642 q 496 691 546 691 q 407 663 456 691 q 311 589 358 635 q 230 492 264 543 l 163 2 l 63 2 l 168 773 l 264 773 l 245 602 q 382 732 304 680 q 537 784 461 784 q 647 746 610 784 q 689 628 684 707 q 820 740 747 696 q 964 784 892 784 z "},"ṁ":{"ha":1208,"x_min":63,"x_max":1118,"o":"m 964 784 q 1080 739 1042 784 q 1118 591 1118 694 q 1090 347 1118 529 q 1061 155 1082 286 l 1038 2 l 936 2 q 969 224 945 70 q 988 347 988 346 q 1015 585 1015 520 q 995 666 1015 641 q 923 690 974 690 q 806 646 873 690 q 686 536 740 602 q 664 367 682 486 l 661 348 q 622 85 659 326 l 609 2 l 508 2 q 543 233 519 86 l 559 347 q 581 497 574 443 q 587 585 587 551 q 567 666 587 642 q 496 691 546 691 q 407 663 456 691 q 311 589 358 635 q 230 492 264 543 l 163 2 l 63 2 l 168 773 l 264 773 l 245 602 q 382 732 304 680 q 537 784 461 784 q 647 746 610 784 q 689 628 684 707 q 820 740 747 696 q 964 784 892 784 m 618 1031 q 628 1073 618 1054 q 656 1103 639 1092 q 693 1114 673 1114 q 739 1098 722 1114 q 755 1055 755 1081 q 745 1012 755 1031 q 715 981 734 992 q 676 969 697 969 q 634 986 651 969 q 618 1031 618 1004 z "},"n":{"ha":810,"x_min":63,"x_max":719,"o":"m 563 784 q 682 738 645 784 q 719 594 719 691 q 711 502 719 562 q 690 348 704 442 q 661 154 680 275 l 638 2 l 537 2 q 572 233 549 86 l 589 347 q 610 497 603 443 q 616 585 616 551 q 595 666 616 642 q 522 690 574 690 q 424 661 478 690 q 318 585 370 632 q 229 486 266 538 l 163 2 l 63 2 l 168 773 l 263 773 l 243 593 q 394 730 308 675 q 563 784 480 784 z "},"ń":{"ha":810,"x_min":63,"x_max":719,"o":"m 597 1156 l 675 1085 q 618 1014 662 1062 q 522 918 574 965 q 431 847 470 870 l 389 884 l 597 1156 m 563 784 q 682 738 645 784 q 719 594 719 691 q 711 502 719 562 q 690 348 704 442 q 661 154 680 275 l 638 2 l 537 2 q 572 233 549 86 l 589 347 q 610 497 603 443 q 616 585 616 551 q 595 666 616 642 q 522 690 574 690 q 424 661 478 690 q 318 585 370 632 q 229 486 266 538 l 163 2 l 63 2 l 168 773 l 263 773 l 243 593 q 394 730 308 675 q 563 784 480 784 z "},"ň":{"ha":810,"x_min":63,"x_max":742,"o":"m 304 1139 l 473 950 l 699 1139 l 742 1094 l 515 871 l 423 871 l 259 1094 l 304 1139 m 563 784 q 682 738 645 784 q 719 594 719 691 q 711 502 719 562 q 690 348 704 442 q 661 154 680 275 l 638 2 l 537 2 q 572 233 549 86 l 589 347 q 610 497 603 443 q 616 585 616 551 q 595 666 616 642 q 522 690 574 690 q 424 661 478 690 q 318 585 370 632 q 229 486 266 538 l 163 2 l 63 2 l 168 773 l 263 773 l 243 593 q 394 730 308 675 q 563 784 480 784 z "},"ņ":{"ha":810,"x_min":63,"x_max":719,"o":"m 260 -97 l 324 -35 q 383 -88 361 -47 q 405 -178 405 -129 q 386 -274 405 -230 q 340 -345 368 -317 q 287 -380 313 -372 l 245 -353 l 247 -340 q 290 -289 274 -321 q 307 -210 307 -256 q 293 -158 307 -182 q 258 -125 279 -134 l 260 -97 m 563 784 q 682 738 645 784 q 719 594 719 691 q 711 502 719 562 q 690 348 704 442 q 661 154 680 275 l 638 2 l 537 2 q 572 233 549 86 l 589 347 q 610 497 603 443 q 616 585 616 551 q 595 666 616 642 q 522 690 574 690 q 424 661 478 690 q 318 585 370 632 q 229 486 266 538 l 163 2 l 63 2 l 168 773 l 263 773 l 243 593 q 394 730 308 675 q 563 784 480 784 z "},"ṅ":{"ha":810,"x_min":63,"x_max":719,"o":"m 563 784 q 682 738 645 784 q 719 594 719 691 q 711 502 719 562 q 690 348 704 442 q 661 154 680 275 l 638 2 l 537 2 q 572 233 549 86 l 589 347 q 610 497 603 443 q 616 585 616 551 q 595 666 616 642 q 522 690 574 690 q 424 661 478 690 q 318 585 370 632 q 229 486 266 538 l 163 2 l 63 2 l 168 773 l 263 773 l 243 593 q 394 730 308 675 q 563 784 480 784 m 400 1031 q 411 1073 400 1054 q 438 1103 421 1092 q 475 1114 456 1114 q 521 1098 504 1114 q 538 1055 538 1081 q 527 1012 538 1031 q 498 981 516 992 q 458 969 479 969 q 417 986 433 969 q 400 1031 400 1004 z "},"ŋ":{"ha":810,"x_min":63,"x_max":720,"o":"m 567 784 q 682 736 645 784 q 720 585 720 689 q 701 399 718 523 q 649 69 683 276 l 637 0 q 534 -263 610 -175 q 342 -351 458 -351 q 282 -344 310 -351 q 243 -324 254 -336 l 261 -282 q 292 -292 272 -288 q 325 -296 313 -296 q 468 -207 419 -296 q 542 33 517 -117 l 557 123 q 601 408 585 298 q 616 580 616 517 q 596 664 616 637 q 526 691 575 691 q 427 662 482 691 q 319 584 372 632 q 229 484 266 536 l 163 0 l 63 0 l 168 773 l 264 773 l 243 591 q 396 729 309 673 q 567 784 484 784 z "},"ǌ":{"ha":1200,"x_min":63,"x_max":1155,"o":"m 563 784 q 682 738 645 784 q 719 594 719 691 q 711 502 719 562 q 690 348 704 442 q 661 154 680 275 l 638 2 l 537 2 q 572 233 549 86 l 589 347 q 610 497 603 443 q 616 585 616 551 q 595 666 616 642 q 522 690 574 690 q 424 661 478 690 q 318 585 370 632 q 229 486 266 538 l 163 2 l 63 2 l 168 773 l 263 773 l 243 593 q 394 730 308 675 q 563 784 480 784 m 1111 776 l 1007 3 q 915 -257 985 -165 q 736 -349 846 -349 q 682 -342 706 -349 q 644 -323 659 -334 l 671 -265 q 693 -275 678 -271 q 722 -279 709 -279 q 821 -239 783 -279 q 878 -131 858 -199 q 911 40 897 -63 l 1010 776 l 1111 776 m 1017 1031 q 1028 1073 1017 1054 q 1056 1103 1038 1092 q 1093 1114 1073 1114 q 1138 1098 1121 1114 q 1155 1055 1155 1081 q 1144 1012 1155 1031 q 1115 981 1133 992 q 1076 969 1097 969 q 1034 986 1050 969 q 1017 1031 1017 1004 z "},"ñ":{"ha":810,"x_min":63,"x_max":719,"o":"m 563 784 q 682 738 645 784 q 719 594 719 691 q 711 502 719 562 q 690 348 704 442 q 661 154 680 275 l 638 2 l 537 2 q 572 233 549 86 l 589 347 q 610 497 603 443 q 616 585 616 551 q 595 666 616 642 q 522 690 574 690 q 424 661 478 690 q 318 585 370 632 q 229 486 266 538 l 163 2 l 63 2 l 168 773 l 263 773 l 243 593 q 394 730 308 675 q 563 784 480 784 m 199 1006 q 242 1061 213 1035 q 307 1103 271 1086 q 377 1119 343 1119 q 438 1105 413 1119 q 492 1063 463 1090 q 531 1031 515 1042 q 567 1021 547 1021 q 621 1040 599 1021 q 655 1077 642 1059 q 672 1101 669 1096 l 717 1053 q 679 996 706 1022 q 617 953 652 969 q 547 937 583 937 q 500 945 521 937 q 466 963 480 953 q 432 992 452 974 q 391 1024 408 1014 q 351 1036 374 1035 q 300 1019 321 1036 q 254 973 279 1003 q 245 962 254 975 l 199 1006 z "},"o":{"ha":770,"x_min":66,"x_max":702,"o":"m 447 784 q 638 701 574 784 q 702 463 702 617 q 654 232 702 341 q 520 56 606 123 q 326 -11 434 -11 q 133 73 199 -11 q 66 311 66 157 q 116 541 66 432 q 252 717 165 650 q 447 784 339 784 m 342 66 q 479 125 422 66 q 566 276 536 184 q 596 462 596 368 q 556 645 596 581 q 431 708 517 708 q 292 649 351 708 q 202 498 233 590 q 171 313 171 407 q 214 130 171 193 q 342 66 256 66 z "},"ó":{"ha":770,"x_min":66,"x_max":702,"o":"m 596 1156 l 674 1085 q 617 1014 661 1062 q 521 918 573 965 q 430 847 469 870 l 387 884 l 596 1156 m 447 784 q 638 701 574 784 q 702 463 702 617 q 654 232 702 341 q 520 56 606 123 q 326 -11 434 -11 q 133 73 199 -11 q 66 311 66 157 q 116 541 66 432 q 252 717 165 650 q 447 784 339 784 m 342 66 q 479 125 422 66 q 566 276 536 184 q 596 462 596 368 q 556 645 596 581 q 431 708 517 708 q 292 649 351 708 q 202 498 233 590 q 171 313 171 407 q 214 130 171 193 q 342 66 256 66 z "},"ŏ":{"ha":770,"x_min":66,"x_max":702,"o":"m 447 784 q 638 701 574 784 q 702 463 702 617 q 654 232 702 341 q 520 56 606 123 q 326 -11 434 -11 q 133 73 199 -11 q 66 311 66 157 q 116 541 66 432 q 252 717 165 650 q 447 784 339 784 m 342 66 q 479 125 422 66 q 566 276 536 184 q 596 462 596 368 q 556 645 596 581 q 431 708 517 708 q 292 649 351 708 q 202 498 233 590 q 171 313 171 407 q 214 130 171 193 q 342 66 256 66 m 251 1105 q 252 1120 251 1116 l 321 1120 q 323 1099 321 1109 q 361 1003 330 1042 q 455 963 393 963 q 534 988 501 963 q 586 1050 568 1014 q 610 1120 604 1086 l 679 1120 l 679 1114 q 677 1098 679 1109 q 642 998 672 1047 q 563 918 612 949 q 452 887 513 887 q 339 918 385 887 q 273 999 294 949 q 251 1105 251 1048 z "},"ǒ":{"ha":770,"x_min":66,"x_max":741,"o":"m 447 784 q 638 701 574 784 q 702 463 702 617 q 654 232 702 341 q 520 56 606 123 q 326 -11 434 -11 q 133 73 199 -11 q 66 311 66 157 q 116 541 66 432 q 252 717 165 650 q 447 784 339 784 m 342 66 q 479 125 422 66 q 566 276 536 184 q 596 462 596 368 q 556 645 596 581 q 431 708 517 708 q 292 649 351 708 q 202 498 233 590 q 171 313 171 407 q 214 130 171 193 q 342 66 256 66 m 303 1141 l 472 952 l 698 1141 l 741 1096 l 513 873 l 422 873 l 258 1096 l 303 1141 z "},"ô":{"ha":770,"x_min":66,"x_max":702,"o":"m 471 1160 l 564 1160 l 701 904 l 652 868 l 504 1067 l 278 865 l 238 905 l 471 1160 m 447 784 q 638 701 574 784 q 702 463 702 617 q 654 232 702 341 q 520 56 606 123 q 326 -11 434 -11 q 133 73 199 -11 q 66 311 66 157 q 116 541 66 432 q 252 717 165 650 q 447 784 339 784 m 342 66 q 479 125 422 66 q 566 276 536 184 q 596 462 596 368 q 556 645 596 581 q 431 708 517 708 q 292 649 351 708 q 202 498 233 590 q 171 313 171 407 q 214 130 171 193 q 342 66 256 66 z "},"ö":{"ha":770,"x_min":66,"x_max":702,"o":"m 255 1017 q 266 1059 255 1040 q 294 1089 276 1078 q 331 1101 311 1101 q 376 1084 359 1101 q 393 1041 393 1067 q 369 981 393 1006 q 313 956 346 956 q 272 974 289 956 q 255 1017 255 991 m 541 1017 q 551 1059 541 1040 q 579 1089 562 1078 q 616 1101 597 1101 q 661 1084 644 1101 q 678 1041 678 1067 q 655 981 678 1006 q 599 956 631 956 q 557 974 574 956 q 541 1017 541 991 m 447 784 q 638 701 574 784 q 702 463 702 617 q 654 232 702 341 q 520 56 606 123 q 326 -11 434 -11 q 133 73 199 -11 q 66 311 66 157 q 116 541 66 432 q 252 717 165 650 q 447 784 339 784 m 342 66 q 479 125 422 66 q 566 276 536 184 q 596 462 596 368 q 556 645 596 581 q 431 708 517 708 q 292 649 351 708 q 202 498 233 590 q 171 313 171 407 q 214 130 171 193 q 342 66 256 66 z "},"ò":{"ha":770,"x_min":66,"x_max":702,"o":"m 447 784 q 638 701 574 784 q 702 463 702 617 q 654 232 702 341 q 520 56 606 123 q 326 -11 434 -11 q 133 73 199 -11 q 66 311 66 157 q 116 541 66 432 q 252 717 165 650 q 447 784 339 784 m 342 66 q 479 125 422 66 q 566 276 536 184 q 596 462 596 368 q 556 645 596 581 q 431 708 517 708 q 292 649 351 708 q 202 498 233 590 q 171 313 171 407 q 214 130 171 193 q 342 66 256 66 m 288 1156 l 487 886 l 443 849 q 362 915 410 871 q 271 1006 314 959 q 210 1085 229 1053 l 288 1156 z "},"ő":{"ha":770,"x_min":66,"x_max":791,"o":"m 422 1157 l 496 1097 q 411 960 469 1037 q 309 848 354 884 l 260 876 l 422 1157 m 717 1157 l 791 1097 q 739 1010 774 1061 q 664 913 703 958 q 598 848 625 867 l 549 876 l 717 1157 m 447 784 q 638 701 574 784 q 702 463 702 617 q 654 232 702 341 q 520 56 606 123 q 326 -11 434 -11 q 133 73 199 -11 q 66 311 66 157 q 116 541 66 432 q 252 717 165 650 q 447 784 339 784 m 342 66 q 479 125 422 66 q 566 276 536 184 q 596 462 596 368 q 556 645 596 581 q 431 708 517 708 q 292 649 351 708 q 202 498 233 590 q 171 313 171 407 q 214 130 171 193 q 342 66 256 66 z "},"ō":{"ha":770,"x_min":66,"x_max":702,"o":"m 617 1050 l 614 972 l 269 972 l 271 1050 l 617 1050 m 447 784 q 638 701 574 784 q 702 463 702 617 q 654 232 702 341 q 520 56 606 123 q 326 -11 434 -11 q 133 73 199 -11 q 66 311 66 157 q 116 541 66 432 q 252 717 165 650 q 447 784 339 784 m 342 66 q 479 125 422 66 q 566 276 536 184 q 596 462 596 368 q 556 645 596 581 q 431 708 517 708 q 292 649 351 708 q 202 498 233 590 q 171 313 171 407 q 214 130 171 193 q 342 66 256 66 z "},"ø":{"ha":769,"x_min":32,"x_max":716,"o":"m 623 720 q 682 614 662 679 q 702 464 702 550 q 654 233 702 342 q 520 57 606 124 q 326 -9 434 -9 q 166 41 229 -9 l 79 -85 l 32 -60 l 128 81 q 66 312 66 164 q 116 543 66 433 q 252 719 165 652 q 447 785 339 785 q 581 753 525 785 l 669 880 l 716 854 l 623 720 m 431 709 q 292 650 351 709 q 202 500 233 591 q 171 314 171 408 q 194 168 171 224 l 526 680 q 431 709 488 709 m 342 67 q 479 126 422 67 q 566 277 536 186 q 596 463 596 369 q 562 638 596 577 l 224 117 q 342 67 267 67 z "},"ǿ":{"ha":769,"x_min":32,"x_max":716,"o":"m 623 720 q 682 614 662 679 q 702 464 702 550 q 654 233 702 342 q 520 57 606 124 q 326 -9 434 -9 q 166 41 229 -9 l 79 -85 l 32 -60 l 128 81 q 66 312 66 164 q 116 543 66 433 q 252 719 165 652 q 447 785 339 785 q 581 753 525 785 l 669 880 l 716 854 l 623 720 m 431 709 q 292 650 351 709 q 202 500 233 591 q 171 314 171 408 q 194 168 171 224 l 526 680 q 431 709 488 709 m 342 67 q 479 126 422 67 q 566 277 536 186 q 596 463 596 369 q 562 638 596 577 l 224 117 q 342 67 267 67 m 588 1156 l 666 1085 q 609 1014 652 1062 q 513 918 565 965 q 422 847 460 870 l 379 884 l 588 1156 z "},"õ":{"ha":770,"x_min":66,"x_max":715,"o":"m 447 784 q 638 701 574 784 q 702 463 702 617 q 654 232 702 341 q 520 56 606 123 q 326 -11 434 -11 q 133 73 199 -11 q 66 311 66 157 q 116 541 66 432 q 252 717 165 650 q 447 784 339 784 m 342 66 q 479 125 422 66 q 566 276 536 184 q 596 462 596 368 q 556 645 596 581 q 431 708 517 708 q 292 649 351 708 q 202 498 233 590 q 171 313 171 407 q 214 130 171 193 q 342 66 256 66 m 197 1006 q 241 1061 212 1035 q 306 1103 270 1086 q 376 1119 342 1119 q 436 1105 412 1119 q 490 1063 461 1090 q 529 1031 513 1042 q 566 1021 545 1021 q 619 1040 597 1021 q 654 1077 641 1059 q 671 1101 667 1096 l 715 1053 q 678 996 705 1022 q 616 953 651 969 q 546 937 581 937 q 499 945 519 937 q 465 963 479 953 q 431 992 450 974 q 390 1024 407 1014 q 349 1036 373 1035 q 299 1019 319 1036 q 252 973 278 1003 q 243 962 253 975 l 197 1006 z "},"œ":{"ha":1198,"x_min":66,"x_max":1150,"o":"m 836 69 q 954 98 893 69 q 1072 184 1015 127 l 1101 126 q 1038 64 1079 96 q 941 11 997 33 q 824 -11 885 -11 q 683 25 740 -11 q 595 124 625 62 q 477 25 544 60 q 332 -11 410 -11 q 134 73 202 -11 q 66 310 66 157 q 115 540 66 431 q 252 717 164 650 q 448 784 339 784 q 589 748 530 784 q 677 644 647 713 q 803 747 730 710 q 960 784 876 784 q 1065 762 1023 784 q 1129 702 1108 740 q 1150 614 1150 663 q 1068 442 1150 511 q 874 339 986 373 q 667 300 762 305 q 667 277 667 293 q 705 129 667 189 q 836 69 744 69 m 347 65 q 475 120 420 65 q 561 264 530 176 q 560 299 560 275 q 595 494 564 404 q 594 507 595 499 q 593 525 594 514 q 431 707 574 707 q 292 648 351 707 q 202 497 233 589 q 171 312 171 406 q 215 129 171 193 q 347 65 259 65 m 939 707 q 808 657 867 707 q 713 530 749 608 q 670 373 677 453 q 840 405 751 376 q 988 487 928 435 q 1048 606 1048 538 q 1020 682 1048 657 q 939 707 991 707 z "},"p":{"ha":788,"x_min":18,"x_max":717,"o":"m 501 784 q 663 705 608 784 q 717 490 717 627 q 668 259 717 375 q 520 66 619 143 q 282 -11 422 -11 q 165 6 233 -11 l 118 -349 l 18 -349 l 166 773 l 257 773 l 242 634 q 354 740 286 695 q 501 784 422 784 m 298 64 q 467 126 395 64 q 575 286 538 189 q 612 479 612 382 q 578 649 612 593 q 484 705 544 705 q 383 678 432 705 q 296 610 334 650 q 234 529 258 570 l 176 88 q 235 70 202 77 q 298 64 267 64 z "},"ṗ":{"ha":788,"x_min":18,"x_max":717,"o":"m 501 784 q 663 705 608 784 q 717 490 717 627 q 668 259 717 375 q 520 66 619 143 q 282 -11 422 -11 q 165 6 233 -11 l 118 -349 l 18 -349 l 166 773 l 257 773 l 242 634 q 354 740 286 695 q 501 784 422 784 m 298 64 q 467 126 395 64 q 575 286 538 189 q 612 479 612 382 q 578 649 612 593 q 484 705 544 705 q 383 678 432 705 q 296 610 334 650 q 234 529 258 570 l 176 88 q 235 70 202 77 q 298 64 267 64 m 430 1031 q 440 1073 430 1054 q 468 1103 451 1092 q 505 1114 486 1114 q 551 1098 534 1114 q 568 1055 568 1081 q 557 1012 568 1031 q 528 981 546 992 q 488 969 509 969 q 447 986 463 969 q 430 1031 430 1004 z "},"þ":{"ha":786,"x_min":14,"x_max":719,"o":"m 503 784 q 665 705 610 784 q 719 490 719 627 q 670 260 719 376 q 522 66 621 144 q 284 -11 424 -11 q 164 6 229 -11 l 154 -68 l 112 -350 l 14 -350 l 64 1 l 212 1110 l 308 1110 l 269 778 l 245 637 q 357 741 289 697 q 503 784 425 784 m 300 64 q 471 128 400 64 q 578 289 543 193 q 614 479 614 386 q 582 648 614 591 q 486 705 549 705 q 386 678 434 705 q 299 611 337 651 q 236 532 260 572 l 176 87 q 235 70 202 77 q 300 64 269 64 z "},"q":{"ha":777,"x_min":54,"x_max":707,"o":"m 707 787 l 557 -344 l 457 -344 l 510 50 l 526 139 q 415 33 482 77 q 269 -11 347 -11 q 108 68 162 -11 q 54 282 54 146 q 102 513 54 396 q 250 707 151 629 q 488 784 348 784 q 556 778 519 784 q 626 762 593 771 l 707 787 m 287 68 q 389 97 339 68 q 477 168 438 126 q 539 251 515 210 l 545 311 q 550 368 548 351 l 593 686 q 535 703 567 696 q 472 709 503 709 q 304 647 375 709 q 195 488 233 584 q 158 294 158 391 q 192 124 158 180 q 287 68 227 68 z "},"r":{"ha":528,"x_min":63,"x_max":547,"o":"m 503 784 q 547 775 537 784 l 524 668 q 462 677 506 677 q 378 649 424 677 q 292 573 333 622 q 225 461 250 524 l 163 0 l 63 0 l 167 773 l 262 773 l 244 603 q 303 686 264 644 q 394 756 342 728 q 503 784 446 784 z "},"ŕ":{"ha":528,"x_min":63,"x_max":547,"o":"m 382 1156 l 460 1085 q 403 1014 447 1062 q 307 918 359 965 q 216 847 255 870 l 174 884 l 382 1156 m 503 784 q 547 775 537 784 l 524 668 q 462 677 506 677 q 378 649 424 677 q 292 573 333 622 q 225 461 250 524 l 163 0 l 63 0 l 167 773 l 262 773 l 244 603 q 303 686 264 644 q 394 756 342 728 q 503 784 446 784 z "},"ř":{"ha":528,"x_min":44,"x_max":547,"o":"m 90 1139 l 258 950 l 484 1139 l 527 1094 l 300 871 l 208 871 l 44 1094 l 90 1139 m 503 784 q 547 775 537 784 l 524 668 q 462 677 506 677 q 378 649 424 677 q 292 573 333 622 q 225 461 250 524 l 163 0 l 63 0 l 167 773 l 262 773 l 244 603 q 303 686 264 644 q 394 756 342 728 q 503 784 446 784 z "},"ŗ":{"ha":528,"x_min":10,"x_max":547,"o":"m 25 -97 l 89 -35 q 148 -88 126 -47 q 170 -178 170 -129 q 151 -274 170 -230 q 105 -345 132 -317 q 52 -380 77 -372 l 10 -353 l 12 -340 q 55 -289 39 -321 q 71 -210 71 -256 q 57 -158 71 -182 q 22 -125 43 -134 l 25 -97 m 503 784 q 547 775 537 784 l 524 668 q 462 677 506 677 q 378 649 424 677 q 292 573 333 622 q 225 461 250 524 l 163 0 l 63 0 l 167 773 l 262 773 l 244 603 q 303 686 264 644 q 394 756 342 728 q 503 784 446 784 z "},"s":{"ha":591,"x_min":31,"x_max":545,"o":"m 50 121 q 127 83 78 100 q 235 66 176 66 q 350 96 306 66 q 394 184 394 125 q 379 242 394 216 q 343 288 365 268 q 284 337 322 308 q 264 353 277 342 q 186 419 216 391 q 137 487 157 447 q 117 579 117 527 q 152 690 117 644 q 244 760 186 736 q 373 784 302 784 q 477 774 429 784 q 545 754 525 765 l 526 659 q 500 678 520 667 q 446 699 479 690 q 373 708 413 708 q 257 676 300 708 q 214 592 214 645 q 229 529 214 557 q 264 481 243 501 q 320 435 286 462 l 332 426 l 344 417 q 419 355 388 384 q 472 286 450 327 q 494 196 494 245 q 460 83 494 130 q 367 13 427 36 q 230 -11 307 -11 q 108 2 166 -11 q 31 33 50 16 l 50 121 z "},"ś":{"ha":591,"x_min":31,"x_max":592,"o":"m 514 1156 l 592 1085 q 535 1014 578 1062 q 439 918 491 965 q 348 847 387 870 l 305 884 l 514 1156 m 50 121 q 127 83 78 100 q 235 66 176 66 q 350 96 306 66 q 394 184 394 125 q 379 242 394 216 q 343 288 365 268 q 284 337 322 308 q 264 353 277 342 q 186 419 216 391 q 137 487 157 447 q 117 579 117 527 q 152 690 117 644 q 244 760 186 736 q 373 784 302 784 q 477 774 429 784 q 545 754 525 765 l 526 659 q 500 678 520 667 q 446 699 479 690 q 373 708 413 708 q 257 676 300 708 q 214 592 214 645 q 229 529 214 557 q 264 481 243 501 q 320 435 286 462 l 332 426 l 344 417 q 419 355 388 384 q 472 286 450 327 q 494 196 494 245 q 460 83 494 130 q 367 13 427 36 q 230 -11 307 -11 q 108 2 166 -11 q 31 33 50 16 l 50 121 z "},"š":{"ha":591,"x_min":31,"x_max":659,"o":"m 221 1139 l 390 950 l 616 1139 l 659 1094 l 431 871 l 340 871 l 176 1094 l 221 1139 m 50 121 q 127 83 78 100 q 235 66 176 66 q 350 96 306 66 q 394 184 394 125 q 379 242 394 216 q 343 288 365 268 q 284 337 322 308 q 264 353 277 342 q 186 419 216 391 q 137 487 157 447 q 117 579 117 527 q 152 690 117 644 q 244 760 186 736 q 373 784 302 784 q 477 774 429 784 q 545 754 525 765 l 526 659 q 500 678 520 667 q 446 699 479 690 q 373 708 413 708 q 257 676 300 708 q 214 592 214 645 q 229 529 214 557 q 264 481 243 501 q 320 435 286 462 l 332 426 l 344 417 q 419 355 388 384 q 472 286 450 327 q 494 196 494 245 q 460 83 494 130 q 367 13 427 36 q 230 -11 307 -11 q 108 2 166 -11 q 31 33 50 16 l 50 121 z "},"ş":{"ha":591,"x_min":31,"x_max":545,"o":"m 373 784 q 477 774 429 784 q 545 754 525 765 l 526 659 q 500 678 520 667 q 446 699 479 690 q 373 708 413 708 q 257 676 300 708 q 214 592 214 645 q 229 529 214 557 q 264 481 243 501 q 320 435 286 462 l 332 426 l 344 417 q 419 355 388 384 q 472 286 450 327 q 494 196 494 245 q 440 59 494 111 q 293 -7 385 7 q 313 -121 313 -52 q 264 -268 313 -223 q 134 -313 215 -313 q 76 -308 106 -313 q 35 -294 46 -302 l 49 -216 q 109 -228 72 -228 q 224 -97 224 -228 q 219 -11 224 -47 q 103 3 157 -9 q 31 33 48 16 l 50 121 q 127 83 78 100 q 235 66 176 66 q 350 96 306 66 q 394 184 394 125 q 379 242 394 216 q 343 288 365 268 q 284 337 322 308 q 264 353 277 342 q 186 419 216 391 q 137 487 157 447 q 117 579 117 527 q 152 690 117 644 q 244 760 186 736 q 373 784 302 784 z "},"ŝ":{"ha":591,"x_min":31,"x_max":619,"o":"m 389 1160 l 481 1160 l 619 904 l 570 868 l 422 1067 l 196 865 l 156 905 l 389 1160 m 50 121 q 127 83 78 100 q 235 66 176 66 q 350 96 306 66 q 394 184 394 125 q 379 242 394 216 q 343 288 365 268 q 284 337 322 308 q 264 353 277 342 q 186 419 216 391 q 137 487 157 447 q 117 579 117 527 q 152 690 117 644 q 244 760 186 736 q 373 784 302 784 q 477 774 429 784 q 545 754 525 765 l 526 659 q 500 678 520 667 q 446 699 479 690 q 373 708 413 708 q 257 676 300 708 q 214 592 214 645 q 229 529 214 557 q 264 481 243 501 q 320 435 286 462 l 332 426 l 344 417 q 419 355 388 384 q 472 286 450 327 q 494 196 494 245 q 460 83 494 130 q 367 13 427 36 q 230 -11 307 -11 q 108 2 166 -11 q 31 33 50 16 l 50 121 z "},"ș":{"ha":591,"x_min":31,"x_max":545,"o":"m 170 -97 l 233 -35 q 292 -88 271 -47 q 314 -178 314 -129 q 295 -274 314 -230 q 249 -345 277 -317 q 196 -380 222 -372 l 155 -353 l 156 -340 q 199 -289 183 -321 q 216 -210 216 -256 q 202 -158 216 -182 q 167 -125 188 -134 l 170 -97 m 50 121 q 127 83 78 100 q 235 66 176 66 q 350 96 306 66 q 394 184 394 125 q 379 242 394 216 q 343 288 365 268 q 284 337 322 308 q 264 353 277 342 q 186 419 216 391 q 137 487 157 447 q 117 579 117 527 q 152 690 117 644 q 244 760 186 736 q 373 784 302 784 q 477 774 429 784 q 545 754 525 765 l 526 659 q 500 678 520 667 q 446 699 479 690 q 373 708 413 708 q 257 676 300 708 q 214 592 214 645 q 229 529 214 557 q 264 481 243 501 q 320 435 286 462 l 332 426 l 344 417 q 419 355 388 384 q 472 286 450 327 q 494 196 494 245 q 460 83 494 130 q 367 13 427 36 q 230 -11 307 -11 q 108 2 166 -11 q 31 33 50 16 l 50 121 z "},"ṡ":{"ha":591,"x_min":31,"x_max":545,"o":"m 50 121 q 127 83 78 100 q 235 66 176 66 q 350 96 306 66 q 394 184 394 125 q 379 242 394 216 q 343 288 365 268 q 284 337 322 308 q 264 353 277 342 q 186 419 216 391 q 137 487 157 447 q 117 579 117 527 q 152 690 117 644 q 244 760 186 736 q 373 784 302 784 q 477 774 429 784 q 545 754 525 765 l 526 659 q 500 678 520 667 q 446 699 479 690 q 373 708 413 708 q 257 676 300 708 q 214 592 214 645 q 229 529 214 557 q 264 481 243 501 q 320 435 286 462 l 332 426 l 344 417 q 419 355 388 384 q 472 286 450 327 q 494 196 494 245 q 460 83 494 130 q 367 13 427 36 q 230 -11 307 -11 q 108 2 166 -11 q 31 33 50 16 l 50 121 m 317 1031 q 327 1073 317 1054 q 355 1103 338 1092 q 392 1114 372 1114 q 437 1098 420 1114 q 454 1055 454 1081 q 444 1012 454 1031 q 414 981 433 992 q 375 969 396 969 q 333 986 350 969 q 317 1031 317 1004 z "},"ß":{"ha":800,"x_min":58,"x_max":738,"o":"m 137 630 q 224 917 161 819 q 362 1046 286 1016 q 528 1077 437 1077 q 637 1054 590 1077 q 711 988 685 1031 q 738 882 738 944 q 722 794 738 833 q 683 726 705 754 q 625 663 660 699 q 574 606 590 629 q 557 559 557 584 q 570 520 557 540 q 610 468 583 500 q 643 427 625 450 q 705 323 682 373 q 728 209 728 273 q 695 93 728 143 q 602 16 663 43 q 460 -11 542 -11 q 364 0 413 -11 q 291 25 315 12 l 304 123 q 366 85 327 102 q 450 68 405 68 q 579 100 537 68 q 621 204 621 132 q 555 373 621 281 q 486 468 512 426 q 460 545 460 509 q 475 611 460 585 q 521 672 490 638 q 582 740 559 711 q 619 804 605 770 q 633 879 633 839 q 600 968 633 932 q 499 1004 567 1004 q 382 971 433 1004 q 293 849 332 938 q 233 600 254 760 l 158 2 l 58 2 l 137 630 z "},"t":{"ha":501,"x_min":92,"x_max":496,"o":"m 184 692 l 92 692 l 113 772 l 199 773 l 237 962 l 323 962 l 298 773 l 496 773 l 484 692 l 287 692 l 228 245 l 224 222 q 220 190 224 216 q 217 149 217 163 q 229 92 217 113 q 271 70 240 70 q 346 94 300 70 q 419 138 393 117 l 433 81 q 384 42 418 64 q 309 5 350 20 q 231 -11 267 -11 q 143 19 174 -11 q 113 106 113 48 q 121 197 113 131 l 184 692 z "},"ŧ":{"ha":501,"x_min":56,"x_max":496,"o":"m 287 692 l 262 500 l 459 500 l 451 432 l 252 432 l 228 245 l 224 222 q 220 190 224 216 q 217 149 217 163 q 229 92 217 113 q 271 70 240 70 q 346 94 300 70 q 419 138 393 117 l 433 81 q 384 42 418 64 q 309 5 350 20 q 231 -11 267 -11 q 143 19 174 -11 q 113 106 113 48 q 121 197 113 131 l 151 432 l 56 432 l 64 500 l 159 500 l 184 692 l 92 692 l 113 772 l 199 773 l 237 962 l 323 962 l 298 773 l 496 773 l 484 692 l 287 692 z "},"ť":{"ha":501,"x_min":92,"x_max":583,"o":"m 184 692 l 92 692 l 113 772 l 199 773 l 237 962 l 323 962 l 298 773 l 496 773 l 484 692 l 287 692 l 228 245 l 224 222 q 220 190 224 216 q 217 149 217 163 q 229 92 217 113 q 271 70 240 70 q 346 94 300 70 q 419 138 393 117 l 433 81 q 384 42 418 64 q 309 5 350 20 q 231 -11 267 -11 q 143 19 174 -11 q 113 106 113 48 q 121 197 113 131 l 184 692 m 440 880 q 488 1124 488 1015 q 483 1196 488 1164 q 469 1241 477 1227 l 473 1258 l 564 1282 q 583 1160 583 1243 q 583 1126 583 1137 q 556 976 580 1053 q 496 846 532 898 l 443 867 l 440 880 z "},"ţ":{"ha":501,"x_min":-12,"x_max":496,"o":"m 228 245 l 224 222 q 220 190 224 216 q 217 149 217 163 q 229 92 217 113 q 271 70 240 70 q 346 94 300 70 q 419 138 393 117 l 433 81 q 389 45 420 65 q 320 9 358 24 q 247 -10 281 -7 q 265 -121 265 -54 q 216 -268 265 -223 q 87 -313 168 -313 q 29 -308 59 -313 q -12 -294 -1 -302 l 1 -216 q 61 -228 24 -228 q 176 -97 176 -228 q 170 1 176 -39 q 113 106 113 28 q 121 197 113 131 l 184 692 l 92 692 l 113 772 l 199 773 l 237 962 l 323 962 l 298 773 l 496 773 l 484 692 l 287 692 l 228 245 z "},"ț":{"ha":501,"x_min":92,"x_max":496,"o":"m 122 -97 l 186 -35 q 245 -88 223 -47 q 267 -178 267 -129 q 248 -274 267 -230 q 202 -345 229 -317 q 149 -380 174 -372 l 107 -353 l 109 -340 q 152 -289 136 -321 q 168 -210 168 -256 q 154 -158 168 -182 q 119 -125 140 -134 l 122 -97 m 184 692 l 92 692 l 113 772 l 199 773 l 237 962 l 323 962 l 298 773 l 496 773 l 484 692 l 287 692 l 228 245 l 224 222 q 220 190 224 216 q 217 149 217 163 q 229 92 217 113 q 271 70 240 70 q 346 94 300 70 q 419 138 393 117 l 433 81 q 384 42 418 64 q 309 5 350 20 q 231 -11 267 -11 q 143 19 174 -11 q 113 106 113 48 q 121 197 113 131 l 184 692 z "},"ṫ":{"ha":501,"x_min":92,"x_max":496,"o":"m 184 692 l 92 692 l 113 772 l 199 773 l 237 962 l 323 962 l 298 773 l 496 773 l 484 692 l 287 692 l 228 245 l 224 222 q 220 190 224 216 q 217 149 217 163 q 229 92 217 113 q 271 70 240 70 q 346 94 300 70 q 419 138 393 117 l 433 81 q 384 42 418 64 q 309 5 350 20 q 231 -11 267 -11 q 143 19 174 -11 q 113 106 113 48 q 121 197 113 131 l 184 692 m 229 1102 q 240 1144 229 1125 q 268 1174 250 1163 q 304 1185 285 1185 q 350 1169 333 1185 q 367 1126 367 1152 q 356 1083 367 1103 q 327 1052 345 1063 q 288 1040 309 1040 q 246 1058 262 1040 q 229 1102 229 1075 z "},"u":{"ha":795,"x_min":77,"x_max":726,"o":"m 726 773 l 623 0 l 529 0 l 549 178 q 410 41 490 96 q 250 -13 330 -13 q 119 32 161 -13 q 77 180 77 77 q 81 248 77 208 q 94 362 85 289 q 152 773 113 510 l 253 773 l 236 650 q 196 361 204 422 q 184 259 188 300 q 180 187 180 218 q 192 119 180 143 q 227 85 204 94 q 286 75 250 75 q 379 104 328 75 q 478 181 430 134 q 560 281 526 229 l 625 773 l 726 773 z "},"ú":{"ha":795,"x_min":77,"x_max":726,"o":"m 598 1156 l 676 1085 q 619 1014 663 1062 q 523 918 575 965 q 432 847 471 870 l 389 884 l 598 1156 m 726 773 l 623 0 l 529 0 l 549 178 q 410 41 490 96 q 250 -13 330 -13 q 119 32 161 -13 q 77 180 77 77 q 81 248 77 208 q 94 362 85 289 q 152 773 113 510 l 253 773 l 236 650 q 196 361 204 422 q 184 259 188 300 q 180 187 180 218 q 192 119 180 143 q 227 85 204 94 q 286 75 250 75 q 379 104 328 75 q 478 181 430 134 q 560 281 526 229 l 625 773 l 726 773 z "},"ŭ":{"ha":795,"x_min":77,"x_max":726,"o":"m 726 773 l 623 0 l 529 0 l 549 178 q 410 41 490 96 q 250 -13 330 -13 q 119 32 161 -13 q 77 180 77 77 q 81 248 77 208 q 94 362 85 289 q 152 773 113 510 l 253 773 l 236 650 q 196 361 204 422 q 184 259 188 300 q 180 187 180 218 q 192 119 180 143 q 227 85 204 94 q 286 75 250 75 q 379 104 328 75 q 478 181 430 134 q 560 281 526 229 l 625 773 l 726 773 m 253 1105 q 254 1120 253 1116 l 323 1120 q 326 1099 323 1109 q 363 1003 332 1042 q 457 963 395 963 q 536 988 503 963 q 588 1050 570 1014 q 612 1120 606 1086 l 681 1120 l 681 1114 q 680 1098 681 1109 q 644 998 674 1047 q 565 918 614 949 q 454 887 515 887 q 341 918 387 887 q 275 999 296 949 q 253 1105 253 1048 z "},"ǔ":{"ha":795,"x_min":77,"x_max":743,"o":"m 726 773 l 623 0 l 529 0 l 549 178 q 410 41 490 96 q 250 -13 330 -13 q 119 32 161 -13 q 77 180 77 77 q 81 248 77 208 q 94 362 85 289 q 152 773 113 510 l 253 773 l 236 650 q 196 361 204 422 q 184 259 188 300 q 180 187 180 218 q 192 119 180 143 q 227 85 204 94 q 286 75 250 75 q 379 104 328 75 q 478 181 430 134 q 560 281 526 229 l 625 773 l 726 773 m 305 1141 l 474 952 l 700 1141 l 743 1096 l 515 873 l 424 873 l 260 1096 l 305 1141 z "},"û":{"ha":795,"x_min":77,"x_max":726,"o":"m 473 1160 l 566 1160 l 703 904 l 654 868 l 506 1067 l 280 865 l 240 905 l 473 1160 m 726 773 l 623 0 l 529 0 l 549 178 q 410 41 490 96 q 250 -13 330 -13 q 119 32 161 -13 q 77 180 77 77 q 81 248 77 208 q 94 362 85 289 q 152 773 113 510 l 253 773 l 236 650 q 196 361 204 422 q 184 259 188 300 q 180 187 180 218 q 192 119 180 143 q 227 85 204 94 q 286 75 250 75 q 379 104 328 75 q 478 181 430 134 q 560 281 526 229 l 625 773 l 726 773 z "},"ü":{"ha":795,"x_min":77,"x_max":726,"o":"m 257 1017 q 268 1059 257 1040 q 296 1089 278 1078 q 333 1101 313 1101 q 378 1084 361 1101 q 395 1041 395 1067 q 371 981 395 1006 q 315 956 348 956 q 274 974 291 956 q 257 1017 257 991 m 543 1017 q 553 1059 543 1040 q 581 1089 564 1078 q 618 1101 599 1101 q 663 1084 646 1101 q 680 1041 680 1067 q 657 981 680 1006 q 601 956 633 956 q 559 974 576 956 q 543 1017 543 991 m 726 773 l 623 0 l 529 0 l 549 178 q 410 41 490 96 q 250 -13 330 -13 q 119 32 161 -13 q 77 180 77 77 q 81 248 77 208 q 94 362 85 289 q 152 773 113 510 l 253 773 l 236 650 q 196 361 204 422 q 184 259 188 300 q 180 187 180 218 q 192 119 180 143 q 227 85 204 94 q 286 75 250 75 q 379 104 328 75 q 478 181 430 134 q 560 281 526 229 l 625 773 l 726 773 z "},"ù":{"ha":795,"x_min":77,"x_max":726,"o":"m 726 773 l 623 0 l 529 0 l 549 178 q 410 41 490 96 q 250 -13 330 -13 q 119 32 161 -13 q 77 180 77 77 q 81 248 77 208 q 94 362 85 289 q 152 773 113 510 l 253 773 l 236 650 q 196 361 204 422 q 184 259 188 300 q 180 187 180 218 q 192 119 180 143 q 227 85 204 94 q 286 75 250 75 q 379 104 328 75 q 478 181 430 134 q 560 281 526 229 l 625 773 l 726 773 m 290 1156 l 489 886 l 445 849 q 364 915 412 871 q 273 1006 316 959 q 212 1085 231 1053 l 290 1156 z "},"ű":{"ha":795,"x_min":77,"x_max":793,"o":"m 726 773 l 623 0 l 529 0 l 549 178 q 410 41 490 96 q 250 -13 330 -13 q 119 32 161 -13 q 77 180 77 77 q 81 248 77 208 q 94 362 85 289 q 152 773 113 510 l 253 773 l 236 650 q 196 361 204 422 q 184 259 188 300 q 180 187 180 218 q 192 119 180 143 q 227 85 204 94 q 286 75 250 75 q 379 104 328 75 q 478 181 430 134 q 560 281 526 229 l 625 773 l 726 773 m 424 1159 l 498 1099 q 413 962 471 1039 q 311 850 356 886 l 262 878 l 424 1159 m 719 1159 l 793 1099 q 741 1012 777 1063 q 666 915 705 960 q 600 850 627 869 l 551 878 l 719 1159 z "},"ū":{"ha":795,"x_min":77,"x_max":726,"o":"m 726 773 l 623 0 l 529 0 l 549 178 q 410 41 490 96 q 250 -13 330 -13 q 119 32 161 -13 q 77 180 77 77 q 81 248 77 208 q 94 362 85 289 q 152 773 113 510 l 253 773 l 236 650 q 196 361 204 422 q 184 259 188 300 q 180 187 180 218 q 192 119 180 143 q 227 85 204 94 q 286 75 250 75 q 379 104 328 75 q 478 181 430 134 q 560 281 526 229 l 625 773 l 726 773 m 620 1052 l 616 975 l 271 975 l 274 1052 l 620 1052 z "},"ų":{"ha":800,"x_min":77,"x_max":726,"o":"m 509 -218 q 617 -178 566 -218 l 644 -231 q 572 -276 615 -257 q 477 -295 530 -295 q 405 -279 433 -295 q 362 -240 376 -263 q 349 -194 349 -216 q 402 -85 349 -132 q 528 2 455 -38 l 529 3 l 549 178 q 410 41 490 96 q 250 -13 330 -13 q 119 32 161 -13 q 77 180 77 77 q 81 248 77 208 q 94 362 85 289 q 152 773 113 510 l 253 773 l 236 650 q 196 361 204 422 q 184 259 188 300 q 180 187 180 218 q 192 119 180 143 q 227 85 204 94 q 286 75 250 75 q 379 104 328 75 q 478 181 430 134 q 560 281 526 229 l 625 773 l 726 773 l 623 0 l 608 0 q 531 -53 561 -31 q 476 -105 502 -75 q 450 -164 450 -135 q 466 -204 450 -190 q 509 -218 483 -218 z "},"ů":{"ha":795,"x_min":77,"x_max":726,"o":"m 280 1021 q 314 1123 280 1081 q 402 1187 349 1166 q 512 1208 456 1208 q 646 1163 597 1208 q 695 1038 695 1118 q 664 936 695 978 q 582 874 633 895 q 469 853 530 853 q 330 897 379 853 q 280 1021 280 941 m 621 1047 q 589 1122 621 1094 q 504 1151 557 1151 q 431 1138 465 1151 q 375 1095 397 1125 q 353 1017 353 1065 q 368 962 353 987 q 410 923 383 937 q 473 909 437 909 q 580 941 538 909 q 621 1047 621 973 m 726 773 l 623 0 l 529 0 l 549 178 q 410 41 490 96 q 250 -13 330 -13 q 119 32 161 -13 q 77 180 77 77 q 81 248 77 208 q 94 362 85 289 q 152 773 113 510 l 253 773 l 236 650 q 196 361 204 422 q 184 259 188 300 q 180 187 180 218 q 192 119 180 143 q 227 85 204 94 q 286 75 250 75 q 379 104 328 75 q 478 181 430 134 q 560 281 526 229 l 625 773 l 726 773 z "},"ũ":{"ha":795,"x_min":77,"x_max":726,"o":"m 726 773 l 623 0 l 529 0 l 549 178 q 410 41 490 96 q 250 -13 330 -13 q 119 32 161 -13 q 77 180 77 77 q 81 248 77 208 q 94 362 85 289 q 152 773 113 510 l 253 773 l 236 650 q 196 361 204 422 q 184 259 188 300 q 180 187 180 218 q 192 119 180 143 q 227 85 204 94 q 286 75 250 75 q 379 104 328 75 q 478 181 430 134 q 560 281 526 229 l 625 773 l 726 773 m 199 1006 q 243 1061 214 1035 q 308 1103 272 1086 q 378 1119 344 1119 q 438 1105 414 1119 q 492 1063 463 1090 q 531 1031 515 1042 q 568 1021 547 1021 q 621 1040 600 1021 q 656 1077 643 1059 q 673 1101 669 1096 l 718 1053 q 680 996 707 1022 q 618 953 653 969 q 548 937 583 937 q 501 945 522 937 q 467 963 481 953 q 433 992 452 974 q 392 1024 409 1014 q 351 1036 375 1035 q 301 1019 321 1036 q 254 973 280 1003 q 245 962 255 975 l 199 1006 z "},"v":{"ha":683,"x_min":77,"x_max":665,"o":"m 77 773 l 189 773 l 245 240 l 260 79 l 373 220 q 455 348 423 292 q 512 466 488 403 q 549 605 536 529 q 561 689 555 641 q 567 761 567 736 q 566 773 567 770 l 663 773 q 665 722 665 743 q 664 681 665 711 q 583 404 654 545 q 408 140 511 262 l 286 -3 l 194 -9 l 155 240 l 77 773 z "},"w":{"ha":1107,"x_min":80,"x_max":1074,"o":"m 1072 773 q 1074 734 1074 753 q 1072 691 1074 726 q 1032 489 1066 594 q 943 288 998 385 q 823 116 889 191 l 719 -3 l 627 -9 l 588 240 l 563 412 q 484 252 528 328 q 391 119 440 175 l 290 -3 l 198 -9 l 159 240 l 80 773 l 193 773 l 250 240 l 264 79 l 355 199 q 538 579 498 396 l 510 773 l 621 773 l 679 240 l 694 79 l 787 197 q 901 390 861 296 q 956 605 941 484 l 960 633 q 967 688 961 642 q 973 761 973 735 q 972 773 973 770 l 1072 773 z "},"ẃ":{"ha":1107,"x_min":80,"x_max":1074,"o":"m 770 1156 l 848 1085 q 791 1014 835 1062 q 695 918 747 965 q 604 847 643 870 l 562 884 l 770 1156 m 1072 773 q 1074 734 1074 753 q 1072 691 1074 726 q 1032 489 1066 594 q 943 288 998 385 q 823 116 889 191 l 719 -3 l 627 -9 l 588 240 l 563 412 q 484 252 528 328 q 391 119 440 175 l 290 -3 l 198 -9 l 159 240 l 80 773 l 193 773 l 250 240 l 264 79 l 355 199 q 538 579 498 396 l 510 773 l 621 773 l 679 240 l 694 79 l 787 197 q 901 390 861 296 q 956 605 941 484 l 960 633 q 967 688 961 642 q 973 761 973 735 q 972 773 973 770 l 1072 773 z "},"ŵ":{"ha":1107,"x_min":80,"x_max":1074,"o":"m 645 1160 l 738 1160 l 876 904 l 826 868 l 678 1067 l 452 865 l 412 905 l 645 1160 m 1072 773 q 1074 734 1074 753 q 1072 691 1074 726 q 1032 489 1066 594 q 943 288 998 385 q 823 116 889 191 l 719 -3 l 627 -9 l 588 240 l 563 412 q 484 252 528 328 q 391 119 440 175 l 290 -3 l 198 -9 l 159 240 l 80 773 l 193 773 l 250 240 l 264 79 l 355 199 q 538 579 498 396 l 510 773 l 621 773 l 679 240 l 694 79 l 787 197 q 901 390 861 296 q 956 605 941 484 l 960 633 q 967 688 961 642 q 973 761 973 735 q 972 773 973 770 l 1072 773 z "},"ẅ":{"ha":1107,"x_min":80,"x_max":1074,"o":"m 429 1017 q 440 1059 429 1040 q 468 1089 450 1078 q 505 1101 486 1101 q 550 1084 533 1101 q 567 1041 567 1067 q 544 981 567 1006 q 488 956 520 956 q 446 974 463 956 q 429 1017 429 991 m 715 1017 q 725 1059 715 1040 q 753 1089 736 1078 q 791 1101 771 1101 q 836 1084 819 1101 q 852 1041 852 1067 q 829 981 852 1006 q 773 956 806 956 q 732 974 749 956 q 715 1017 715 991 m 1072 773 q 1074 734 1074 753 q 1072 691 1074 726 q 1032 489 1066 594 q 943 288 998 385 q 823 116 889 191 l 719 -3 l 627 -9 l 588 240 l 563 412 q 484 252 528 328 q 391 119 440 175 l 290 -3 l 198 -9 l 159 240 l 80 773 l 193 773 l 250 240 l 264 79 l 355 199 q 538 579 498 396 l 510 773 l 621 773 l 679 240 l 694 79 l 787 197 q 901 390 861 296 q 956 605 941 484 l 960 633 q 967 688 961 642 q 973 761 973 735 q 972 773 973 770 l 1072 773 z "},"ẁ":{"ha":1107,"x_min":80,"x_max":1074,"o":"m 1072 773 q 1074 734 1074 753 q 1072 691 1074 726 q 1032 489 1066 594 q 943 288 998 385 q 823 116 889 191 l 719 -3 l 627 -9 l 588 240 l 563 412 q 484 252 528 328 q 391 119 440 175 l 290 -3 l 198 -9 l 159 240 l 80 773 l 193 773 l 250 240 l 264 79 l 355 199 q 538 579 498 396 l 510 773 l 621 773 l 679 240 l 694 79 l 787 197 q 901 390 861 296 q 956 605 941 484 l 960 633 q 967 688 961 642 q 973 761 973 735 q 972 773 973 770 l 1072 773 m 462 1156 l 661 886 l 617 849 q 536 915 585 871 q 446 1006 488 959 q 384 1085 403 1053 l 462 1156 z "},"x":{"ha":644,"x_min":-29,"x_max":655,"o":"m 365 389 l 557 2 l 439 2 l 302 322 l 79 2 l -29 2 l 267 401 l 90 773 l 211 773 l 330 469 l 545 773 l 655 773 l 365 389 z "},"y":{"ha":711,"x_min":-136,"x_max":669,"o":"m 666 773 q 669 724 669 745 q 667 682 669 712 q 610 423 661 562 q 486 146 560 284 q 399 0 448 75 q 308 -128 351 -75 q 218 -232 260 -189 q 111 -308 175 -275 q -34 -340 47 -340 q -86 -334 -58 -340 q -136 -320 -114 -328 l -106 -236 q -92 -243 -104 -237 q -60 -254 -79 -250 q -17 -258 -40 -258 q 124 -208 55 -258 q 275 -38 193 -159 l 212 -38 l 170 203 l 83 773 l 195 773 l 269 203 l 298 -1 l 387 151 q 510 417 465 281 q 565 682 555 553 q 567 743 567 718 l 566 773 l 666 773 z "},"ý":{"ha":711,"x_min":-136,"x_max":669,"o":"m 666 773 q 669 724 669 745 q 667 682 669 712 q 610 423 661 562 q 486 146 560 284 q 399 0 448 75 q 308 -128 351 -75 q 218 -232 260 -189 q 111 -308 175 -275 q -34 -340 47 -340 q -86 -334 -58 -340 q -136 -320 -114 -328 l -106 -236 q -92 -243 -104 -237 q -60 -254 -79 -250 q -17 -258 -40 -258 q 124 -208 55 -258 q 275 -38 193 -159 l 212 -38 l 170 203 l 83 773 l 195 773 l 269 203 l 298 -1 l 387 151 q 510 417 465 281 q 565 682 555 553 q 567 743 567 718 l 566 773 l 666 773 m 528 1158 l 606 1087 q 549 1016 593 1064 q 453 920 505 967 q 362 849 401 872 l 319 886 l 528 1158 z "},"ŷ":{"ha":711,"x_min":-136,"x_max":669,"o":"m 666 773 q 669 724 669 745 q 667 682 669 712 q 610 423 661 562 q 486 146 560 284 q 399 0 448 75 q 308 -128 351 -75 q 218 -232 260 -189 q 111 -308 175 -275 q -34 -340 47 -340 q -86 -334 -58 -340 q -136 -320 -114 -328 l -106 -236 q -92 -243 -104 -237 q -60 -254 -79 -250 q -17 -258 -40 -258 q 124 -208 55 -258 q 275 -38 193 -159 l 212 -38 l 170 203 l 83 773 l 195 773 l 269 203 l 298 -1 l 387 151 q 510 417 465 281 q 565 682 555 553 q 567 743 567 718 l 566 773 l 666 773 m 403 1162 l 496 1162 l 633 906 l 584 870 l 436 1069 l 210 867 l 170 907 l 403 1162 z "},"ÿ":{"ha":711,"x_min":-136,"x_max":669,"o":"m 666 773 q 669 724 669 745 q 667 682 669 712 q 610 423 661 562 q 486 146 560 284 q 399 0 448 75 q 308 -128 351 -75 q 218 -232 260 -189 q 111 -308 175 -275 q -34 -340 47 -340 q -86 -334 -58 -340 q -136 -320 -114 -328 l -106 -236 q -92 -243 -104 -237 q -60 -254 -79 -250 q -17 -258 -40 -258 q 124 -208 55 -258 q 275 -38 193 -159 l 212 -38 l 170 203 l 83 773 l 195 773 l 269 203 l 298 -1 l 387 151 q 510 417 465 281 q 565 682 555 553 q 567 743 567 718 l 566 773 l 666 773 m 187 1019 q 198 1061 187 1042 q 226 1092 208 1080 q 263 1103 243 1103 q 308 1086 291 1103 q 325 1043 325 1069 q 301 983 325 1008 q 245 958 278 958 q 204 976 221 958 q 187 1019 187 993 m 473 1019 q 483 1061 473 1042 q 511 1092 494 1080 q 549 1103 529 1103 q 593 1086 576 1103 q 610 1043 610 1069 q 587 983 610 1008 q 531 958 564 958 q 490 976 507 958 q 473 1019 473 993 z "},"ẏ":{"ha":711,"x_min":-136,"x_max":669,"o":"m 666 773 q 669 724 669 745 q 667 682 669 712 q 610 423 661 562 q 486 146 560 284 q 399 0 448 75 q 308 -128 351 -75 q 218 -232 260 -189 q 111 -308 175 -275 q -34 -340 47 -340 q -86 -334 -58 -340 q -136 -320 -114 -328 l -106 -236 q -92 -243 -104 -237 q -60 -254 -79 -250 q -17 -258 -40 -258 q 124 -208 55 -258 q 275 -38 193 -159 l 212 -38 l 170 203 l 83 773 l 195 773 l 269 203 l 298 -1 l 387 151 q 510 417 465 281 q 565 682 555 553 q 567 743 567 718 l 566 773 l 666 773 m 331 1031 q 341 1073 331 1054 q 369 1103 352 1092 q 406 1114 387 1114 q 452 1098 435 1114 q 469 1055 469 1081 q 458 1012 469 1031 q 429 981 447 992 q 389 969 410 969 q 348 986 364 969 q 331 1031 331 1004 z "},"ỳ":{"ha":711,"x_min":-136,"x_max":669,"o":"m 666 773 q 669 724 669 745 q 667 682 669 712 q 610 423 661 562 q 486 146 560 284 q 399 0 448 75 q 308 -128 351 -75 q 218 -232 260 -189 q 111 -308 175 -275 q -34 -340 47 -340 q -86 -334 -58 -340 q -136 -320 -114 -328 l -106 -236 q -92 -243 -104 -237 q -60 -254 -79 -250 q -17 -258 -40 -258 q 124 -208 55 -258 q 275 -38 193 -159 l 212 -38 l 170 203 l 83 773 l 195 773 l 269 203 l 298 -1 l 387 151 q 510 417 465 281 q 565 682 555 553 q 567 743 567 718 l 566 773 l 666 773 m 220 1156 l 419 886 l 375 849 q 294 915 342 871 q 203 1006 246 959 q 142 1085 161 1053 l 220 1156 z "},"z":{"ha":653,"x_min":-14,"x_max":651,"o":"m 115 81 l 551 81 l 543 0 l 17 0 l -14 31 l 407 568 l 521 692 l 125 692 l 136 773 l 627 773 l 651 745 l 212 184 l 115 81 z "},"ź":{"ha":653,"x_min":-14,"x_max":651,"o":"m 534 1156 l 612 1085 q 555 1014 599 1062 q 459 918 511 965 q 368 847 407 870 l 326 884 l 534 1156 m 115 81 l 551 81 l 543 0 l 17 0 l -14 31 l 407 568 l 521 692 l 125 692 l 136 773 l 627 773 l 651 745 l 212 184 l 115 81 z "},"ž":{"ha":653,"x_min":-14,"x_max":692,"o":"m 255 1139 l 424 950 l 650 1139 l 692 1094 l 465 871 l 374 871 l 210 1094 l 255 1139 m 115 81 l 551 81 l 543 0 l 17 0 l -14 31 l 407 568 l 521 692 l 125 692 l 136 773 l 627 773 l 651 745 l 212 184 l 115 81 z "},"ż":{"ha":653,"x_min":-14,"x_max":651,"o":"m 115 81 l 551 81 l 543 0 l 17 0 l -14 31 l 407 568 l 521 692 l 125 692 l 136 773 l 627 773 l 651 745 l 212 184 l 115 81 m 337 1031 q 348 1073 337 1054 q 375 1103 358 1092 q 412 1114 393 1114 q 458 1098 441 1114 q 475 1055 475 1081 q 464 1012 475 1031 q 435 981 453 992 q 395 969 416 969 q 354 986 370 969 q 337 1031 337 1004 z "},"ﬁ":{"ha":854,"x_min":103,"x_max":824,"o":"m 103 692 l 118 772 l 217 773 l 229 857 q 275 1004 240 941 q 367 1103 310 1067 q 500 1138 425 1138 q 555 1134 530 1138 q 603 1120 580 1131 l 577 1038 q 488 1059 545 1060 q 413 1036 446 1059 q 359 972 380 1012 q 332 883 338 932 l 318 773 l 483 773 l 477 692 l 307 692 l 214 0 l 113 0 l 206 692 l 103 692 m 767 776 l 662 0 l 562 0 l 666 776 l 767 776 m 686 1031 q 697 1073 686 1054 q 725 1103 707 1092 q 762 1114 742 1114 q 807 1098 790 1114 q 824 1055 824 1081 q 813 1012 824 1031 q 784 981 802 992 q 745 969 766 969 q 703 986 720 969 q 686 1031 686 1004 z "},"ﬂ":{"ha":853,"x_min":103,"x_max":813,"o":"m 103 692 l 118 772 l 217 773 l 229 857 q 275 1004 240 941 q 367 1103 310 1067 q 500 1138 425 1138 q 555 1134 530 1138 q 603 1120 580 1131 l 577 1038 q 488 1059 545 1060 q 413 1036 446 1059 q 359 972 380 1012 q 332 883 338 932 l 318 773 l 483 773 l 477 692 l 307 692 l 214 0 l 113 0 l 206 692 l 103 692 m 813 1110 l 663 2 l 562 2 l 713 1110 l 813 1110 z "},"ª":{"ha":579,"x_min":71,"x_max":580,"o":"m 580 1064 l 481 504 l 394 504 l 412 599 q 335 531 378 557 q 233 504 292 504 q 112 557 153 504 q 71 705 71 610 q 116 877 71 793 q 239 1016 161 962 q 412 1069 317 1069 q 472 1064 441 1069 q 527 1050 503 1058 l 580 1064 m 268 566 q 343 592 304 566 q 416 654 382 618 l 473 989 q 438 1009 459 1002 q 400 1016 418 1016 q 278 971 332 1016 q 192 855 223 926 q 161 713 161 785 q 186 603 161 641 q 268 566 211 566 z "},"º":{"ha":579,"x_min":68,"x_max":584,"o":"m 68 746 q 112 922 68 846 q 223 1038 155 998 q 362 1078 292 1078 q 479 1046 429 1078 q 557 957 530 1014 q 584 827 584 900 q 542 651 584 726 q 433 536 500 576 q 291 497 366 497 q 178 528 229 497 q 98 615 127 558 q 68 746 68 671 m 488 818 q 455 962 488 907 q 360 1016 423 1016 q 255 978 300 1016 q 187 879 210 939 q 163 755 163 819 q 180 653 163 696 q 225 586 196 610 q 292 562 254 562 q 401 598 357 562 q 466 692 445 634 q 488 818 488 750 z "},"Δ":{"ha":954,"x_min":-14,"x_max":895,"o":"m 517 1023 l 895 18 l 883 0 l -5 0 l -14 15 l 497 1023 l 517 1023 m 496 803 l 148 88 l 751 88 l 496 803 z "},"Ω":{"ha":1124,"x_min":47,"x_max":1037,"o":"m 1037 627 q 998 433 1037 538 q 890 233 958 327 q 742 83 823 139 l 1023 83 l 1017 0 l 625 0 l 614 73 q 768 202 694 117 q 888 398 842 288 q 935 618 935 507 q 886 812 935 733 q 760 929 838 891 q 593 968 682 968 q 393 917 481 968 q 253 765 304 866 q 202 522 202 665 q 238 331 202 423 q 328 171 274 239 q 433 73 381 103 l 412 0 l 47 0 l 57 79 l 324 79 q 221 188 273 116 q 135 349 169 259 q 102 524 102 438 q 166 810 102 692 q 345 988 231 928 q 603 1048 458 1048 q 823 996 724 1048 q 979 848 922 943 q 1037 627 1037 752 z "},"μ":{"ha":918,"x_min":88,"x_max":838,"o":"m 88 -252 l 216 606 q 219 644 219 629 q 199 684 219 684 q 127 645 166 684 l 94 705 q 123 733 102 716 q 177 765 144 751 q 248 780 210 780 q 303 756 283 780 q 324 687 324 733 q 322 656 324 672 q 294 452 318 623 q 262 222 271 282 q 261 202 261 215 q 298 107 261 137 q 391 78 334 78 q 469 97 429 78 q 543 145 509 117 q 599 201 576 174 l 679 773 l 779 773 l 695 153 q 693 125 693 138 q 700 90 693 103 q 720 77 707 77 q 804 133 757 77 l 838 75 q 808 42 829 63 q 753 4 786 22 q 684 -13 721 -13 q 618 13 643 -13 q 595 92 594 39 q 495 15 547 43 q 363 -13 442 -13 q 308 -2 336 -12 q 258 26 279 7 q 231 68 237 44 l 184 -252 l 88 -252 z "},"π":{"ha":1055,"x_min":68,"x_max":966,"o":"m 741 78 q 789 94 763 78 q 838 137 815 109 q 873 198 861 164 l 930 174 q 891 87 922 130 q 812 17 861 44 q 708 -11 764 -11 q 614 21 647 -11 q 582 114 582 54 q 585 149 582 132 q 627 430 590 178 q 663 679 654 624 l 420 680 l 362 292 q 341 169 355 217 q 305 90 326 121 q 250 31 283 60 q 151 -16 212 -2 l 82 47 q 120 61 97 50 q 166 88 144 72 q 219 145 200 113 q 247 217 237 178 q 264 322 256 257 l 326 680 l 279 680 q 183 657 221 680 q 127 595 145 634 l 68 624 q 140 739 85 703 q 295 774 195 774 l 790 774 q 860 785 837 774 q 893 824 884 796 l 966 824 q 917 712 960 745 q 788 679 873 679 l 757 679 l 730 474 q 709 305 725 431 q 687 151 692 179 l 686 139 q 741 78 686 78 z "},"⁄":{"ha":696,"x_min":107,"x_max":652,"o":"m 652 1038 l 191 0 l 107 0 l 569 1038 l 652 1038 z "},"½":{"ha":1704,"x_min":192,"x_max":1496,"o":"m 392 987 q 316 962 384 981 q 238 941 249 943 l 195 928 l 192 993 q 294 1028 236 1004 q 400 1077 351 1052 q 466 1116 449 1101 l 504 1104 l 410 431 l 314 431 l 392 987 m 1016 1038 l 554 0 l 471 0 l 932 1038 l 1016 1038 m 929 12 q 1137 138 1042 76 q 1314 284 1232 200 q 1397 446 1397 368 q 1356 535 1397 503 q 1246 566 1316 566 q 1124 539 1182 566 q 1019 463 1065 511 l 982 512 q 1046 573 1004 543 q 1143 625 1087 604 q 1260 646 1198 646 q 1389 619 1335 646 q 1469 553 1442 593 q 1496 473 1496 513 q 1444 312 1496 385 q 1317 182 1393 239 q 1112 47 1241 126 l 1078 26 l 1487 43 l 1483 -39 l 953 -39 l 929 12 z "},"¼":{"ha":1704,"x_min":192,"x_max":1545,"o":"m 504 1104 l 410 431 l 314 431 l 392 987 q 316 962 384 981 q 238 941 249 943 l 195 928 l 192 993 q 294 1028 236 1004 q 400 1077 351 1052 q 466 1116 449 1101 l 504 1104 m 1016 1038 l 554 0 l 471 0 l 932 1038 l 1016 1038 m 1535 116 l 1355 116 l 1323 -120 l 1217 -120 l 1251 116 l 895 116 l 876 166 l 1289 754 l 1315 754 l 1383 701 l 988 190 l 1262 198 l 1289 388 l 1394 400 l 1367 201 l 1545 207 l 1535 116 z "},"¾":{"ha":1704,"x_min":83,"x_max":1545,"o":"m 612 600 q 559 468 609 522 q 433 387 510 414 q 273 360 357 360 q 175 373 231 360 q 83 408 119 385 l 92 465 q 173 437 125 447 q 258 428 220 428 q 373 446 317 428 q 467 502 429 463 q 505 602 505 541 q 489 660 505 633 q 443 702 473 686 q 371 718 413 718 q 345 711 361 715 q 312 703 328 707 l 247 686 l 258 762 q 439 832 372 789 q 506 949 506 876 q 477 1017 506 992 q 384 1042 448 1042 q 277 1024 327 1042 q 180 974 228 1006 l 156 1033 q 417 1115 275 1115 q 526 1096 480 1115 q 596 1044 572 1077 q 621 972 621 1012 q 570 847 621 901 q 441 764 520 794 q 544 738 506 764 q 598 673 583 711 q 612 600 613 635 m 1040 1038 l 578 0 l 495 0 l 957 1038 l 1040 1038 m 1535 116 l 1355 116 l 1323 -120 l 1217 -120 l 1251 116 l 895 116 l 876 166 l 1289 754 l 1315 754 l 1383 701 l 988 190 l 1262 198 l 1289 388 l 1394 400 l 1367 201 l 1545 207 l 1535 116 z "},"*":{"ha":926,"x_min":163,"x_max":829,"o":"m 357 739 l 456 778 l 365 817 l 189 911 l 248 998 l 406 878 l 479 814 l 475 916 l 480 1121 l 581 1121 l 546 916 l 521 814 l 608 878 l 789 995 l 829 908 l 637 817 l 538 777 l 626 738 l 798 646 l 739 561 l 585 677 l 513 743 l 519 644 l 515 439 l 412 439 l 448 644 l 472 743 l 385 679 l 203 564 l 163 651 l 357 739 z "},"\\":{"ha":579,"x_min":31,"x_max":512,"o":"m 121 1083 l 31 1083 l 422 -245 l 512 -245 l 121 1083 z "},"·":{"ha":465,"x_min":165,"x_max":307,"o":"m 247 576 q 293 560 278 576 q 307 516 307 544 q 285 450 307 473 q 225 427 263 427 q 182 444 199 427 q 165 488 165 460 q 188 551 165 526 q 247 576 210 576 z "},"•":{"ha":582,"x_min":191,"x_max":416,"o":"m 191 470 q 209 533 191 502 q 257 584 227 564 q 323 604 288 604 q 390 579 363 604 q 416 514 416 553 q 399 450 416 481 q 352 398 382 418 q 284 378 322 378 q 237 390 258 378 q 203 424 216 403 q 191 470 191 445 z "},":":{"ha":341,"x_min":58,"x_max":266,"o":"m 140 138 q 185 121 171 138 q 200 77 200 105 q 178 12 200 35 q 118 -12 156 -12 q 75 5 92 -12 q 58 50 58 22 q 80 112 58 87 q 140 138 103 138 m 205 702 q 251 686 237 702 q 266 642 266 669 q 244 576 266 599 q 184 553 222 553 q 141 569 158 553 q 123 614 123 586 q 146 676 123 651 q 205 702 169 702 z "},",":{"ha":341,"x_min":-15,"x_max":233,"o":"m 65 114 l 119 180 q 206 97 180 153 q 233 -21 233 41 q 206 -159 233 -96 q 132 -269 180 -223 q 22 -340 85 -315 l -15 -294 l -14 -282 q 85 -193 45 -253 q 125 -55 125 -133 q 107 35 125 -3 q 61 86 89 73 l 65 114 z "},"…":{"ha":1023,"x_min":72,"x_max":898,"o":"m 155 138 q 201 123 186 138 q 216 82 216 108 q 204 32 216 54 q 171 0 191 11 q 129 -12 151 -12 q 87 3 103 -12 q 72 45 72 18 q 83 92 72 71 q 114 125 95 113 q 155 138 133 138 m 496 138 q 542 123 527 138 q 557 82 557 108 q 545 32 557 54 q 512 0 532 11 q 469 -12 492 -12 q 428 3 444 -12 q 413 44 413 17 q 425 92 413 71 q 455 125 436 113 q 496 138 474 138 m 837 138 q 883 123 868 138 q 898 82 898 108 q 886 32 898 54 q 853 0 873 11 q 810 -12 833 -12 q 769 3 785 -12 q 753 45 753 18 q 754 58 753 53 q 783 115 759 93 q 837 138 806 138 z "},"!":{"ha":421,"x_min":89,"x_max":387,"o":"m 387 1206 l 241 331 l 160 331 l 271 1206 l 387 1206 m 181 138 q 228 123 212 138 q 243 82 243 108 q 242 68 243 73 q 211 10 237 31 q 150 -12 185 -12 q 106 4 123 -12 q 89 46 89 19 q 102 93 89 72 q 136 126 115 114 q 181 138 157 138 z "},"‼":{"ha":812,"x_min":89,"x_max":777,"o":"m 777 1206 l 631 331 l 550 331 l 661 1206 l 777 1206 m 571 138 q 617 123 602 138 q 633 82 633 108 q 632 68 633 73 q 601 10 627 31 q 540 -12 575 -12 q 496 4 513 -12 q 479 46 479 19 q 492 93 479 72 q 526 126 505 114 q 571 138 547 138 m 387 1206 l 241 331 l 160 331 l 271 1206 l 387 1206 m 181 138 q 228 123 212 138 q 243 82 243 108 q 242 68 243 73 q 211 10 237 31 q 150 -12 185 -12 q 106 4 123 -12 q 89 46 89 19 q 102 93 89 72 q 136 126 115 114 q 181 138 157 138 z "},"¡":{"ha":421,"x_min":57,"x_max":355,"o":"m 263 774 q 217 789 232 774 q 201 829 201 804 q 202 843 201 838 q 233 902 208 880 q 294 923 259 923 q 338 908 321 923 q 355 865 355 892 q 342 819 355 840 q 308 786 330 798 q 263 774 287 774 m 57 -294 l 203 581 l 284 581 l 174 -294 l 57 -294 z "},"#":{"ha":945,"x_min":76,"x_max":886,"o":"m 76 248 l 80 314 l 232 314 l 281 628 l 130 628 l 134 694 l 292 694 l 328 920 l 413 920 l 378 694 l 642 694 l 680 920 l 766 920 l 728 694 l 886 694 l 882 628 l 718 628 l 668 314 l 824 314 l 820 248 l 658 248 l 619 0 l 536 0 l 572 248 l 307 248 l 265 0 l 181 0 l 221 248 l 76 248 m 631 628 l 368 628 l 318 314 l 582 314 l 631 628 z "},".":{"ha":341,"x_min":68,"x_max":211,"o":"m 151 138 q 196 121 182 138 q 211 77 211 105 q 189 12 211 35 q 129 -12 167 -12 q 86 5 103 -12 q 68 50 68 22 q 91 112 68 87 q 151 138 114 138 z "},"?":{"ha":692,"x_min":179,"x_max":671,"o":"m 191 468 q 213 544 191 509 q 278 608 235 578 q 388 675 320 639 q 511 748 463 713 q 568 821 558 783 q 576 888 576 848 q 541 1021 576 968 q 447 1098 505 1074 q 325 1123 390 1123 q 249 1117 282 1123 q 179 1097 216 1110 l 194 1171 q 250 1196 208 1185 q 332 1206 291 1206 q 531 1162 455 1206 q 639 1048 607 1118 q 671 900 671 979 q 639 773 671 825 q 562 689 607 721 q 446 619 517 657 q 361 570 392 591 q 310 522 330 550 q 290 458 290 494 q 298 408 290 432 q 322 344 306 383 l 256 318 l 247 319 q 207 383 223 342 q 191 468 191 423 m 321 138 q 367 122 352 138 q 381 79 381 106 q 360 12 381 35 q 300 -12 338 -12 q 256 5 273 -12 q 239 48 239 21 q 262 112 239 86 q 321 138 284 138 z "},"¿":{"ha":697,"x_min":62,"x_max":554,"o":"m 352 880 q 373 946 352 923 q 433 970 395 970 q 477 954 460 970 q 494 909 494 937 q 471 846 494 871 q 412 821 449 821 q 367 837 382 821 q 352 880 352 852 m 408 -165 q 485 -158 452 -165 q 554 -138 518 -152 l 539 -212 q 484 -238 525 -227 q 401 -248 442 -248 q 202 -204 278 -248 q 94 -91 126 -159 q 62 58 62 -22 q 94 185 62 133 q 171 269 126 237 q 288 338 216 301 q 372 388 342 368 q 423 435 403 408 q 444 500 444 463 q 435 551 444 526 q 411 614 427 576 l 477 640 l 487 640 q 527 575 511 616 q 543 490 543 534 q 521 415 543 449 q 456 350 498 380 q 345 283 413 319 q 223 211 271 245 q 165 137 175 176 q 157 71 157 111 q 193 -62 157 -9 q 286 -140 229 -115 q 408 -165 343 -165 z "},"\"":{"ha":680,"x_min":163,"x_max":665,"o":"m 340 1144 l 236 655 l 163 655 l 222 1144 l 340 1144 m 665 1144 l 561 655 l 488 655 l 547 1144 l 665 1144 z "},"'":{"ha":355,"x_min":163,"x_max":340,"o":"m 340 1144 l 236 655 l 163 655 l 222 1144 l 340 1144 z "},";":{"ha":341,"x_min":-15,"x_max":267,"o":"m 65 114 l 119 180 q 206 97 180 153 q 233 -21 233 41 q 206 -159 233 -96 q 132 -269 180 -223 q 22 -340 85 -315 l -15 -294 l -14 -282 q 85 -193 45 -253 q 125 -55 125 -133 q 107 35 125 -3 q 61 86 89 73 l 65 114 m 207 702 q 253 686 238 702 q 267 642 267 669 q 245 576 267 599 q 185 553 223 553 q 142 569 159 553 q 125 614 125 586 q 148 676 125 651 q 207 702 170 702 z "},"/":{"ha":579,"x_min":-51,"x_max":624,"o":"m 534 1083 l 624 1083 l 39 -245 l -51 -245 l 534 1083 z "},"_":{"ha":905,"x_min":-75,"x_max":869,"o":"m 859 -229 l -75 -229 l -65 -151 l 869 -151 l 859 -229 z "},"{":{"ha":694,"x_min":110,"x_max":664,"o":"m 268 393 q 227 446 270 420 q 110 494 178 475 l 119 559 q 254 604 210 583 q 308 656 302 625 l 363 1030 q 385 1110 372 1082 q 420 1148 397 1137 q 485 1160 444 1160 q 552 1154 512 1160 q 623 1143 591 1149 q 664 1135 655 1137 q 660 1113 663 1130 q 657 1090 657 1096 l 470 1090 l 405 657 q 383 609 401 630 q 332 572 365 589 q 272 546 312 563 q 222 526 232 528 q 327 467 294 493 q 364 402 364 438 q 363 391 364 395 l 300 -37 l 486 -37 q 483 -62 485 -47 q 480 -83 481 -77 q 385 -102 425 -96 q 294 -108 345 -108 q 242 -101 260 -108 q 215 -78 223 -94 q 207 -33 206 -62 q 233 152 207 -24 q 268 393 258 328 z "},"}":{"ha":694,"x_min":63,"x_max":617,"o":"m 459 656 q 500 603 457 628 q 617 555 549 573 l 608 489 q 473 445 517 465 q 419 392 425 424 l 363 18 q 342 -61 355 -34 q 307 -100 330 -89 q 242 -111 283 -111 q 175 -106 215 -111 q 104 -95 136 -100 q 63 -87 72 -89 q 67 -64 64 -81 q 70 -41 70 -47 l 257 -41 l 322 391 q 344 439 326 418 q 395 476 362 460 q 455 503 415 486 q 505 522 495 520 q 400 582 433 555 q 363 646 363 610 q 363 658 363 654 l 427 1086 l 241 1086 q 244 1111 242 1096 q 247 1132 246 1126 q 342 1151 302 1145 q 433 1156 382 1156 q 485 1149 467 1156 q 512 1127 504 1143 q 520 1081 521 1111 q 494 896 520 1072 q 459 656 469 720 z "},"[":{"ha":579,"x_min":132,"x_max":585,"o":"m 276 1030 q 295 1109 283 1082 q 331 1148 307 1136 q 395 1160 354 1160 q 551 1140 441 1160 q 569 1137 560 1139 q 585 1135 578 1135 l 578 1090 l 380 1090 l 224 -46 l 425 -47 l 420 -92 q 320 -110 374 -103 q 220 -117 266 -117 q 151 -101 171 -117 q 132 -43 132 -85 q 134 14 132 -18 q 161 256 138 94 q 225 684 184 418 q 276 1030 268 965 z "},"]":{"ha":579,"x_min":37,"x_max":490,"o":"m 346 25 q 327 -54 339 -26 q 291 -93 315 -81 q 227 -104 268 -104 q 71 -85 180 -104 q 53 -82 62 -83 q 37 -79 43 -80 l 43 -35 l 241 -35 l 397 1101 l 197 1103 l 201 1147 q 302 1165 248 1158 q 402 1172 356 1172 q 471 1156 451 1172 q 490 1099 490 1140 q 488 1041 490 1073 q 460 800 484 962 q 397 371 437 637 q 346 25 354 90 z "},"(":{"ha":579,"x_min":150,"x_max":618,"o":"m 160 491 q 266 817 184 668 q 436 1060 347 965 q 573 1181 526 1155 l 618 1149 q 505 1038 576 1122 q 366 817 433 953 q 270 516 298 682 q 258 346 258 424 q 290 96 258 206 q 366 -84 323 -15 q 446 -184 410 -154 l 390 -216 l 380 -216 q 289 -122 342 -191 q 193 66 236 -53 q 150 342 150 185 q 160 491 150 413 z "},")":{"ha":579,"x_min":-33,"x_max":436,"o":"m 426 477 q 320 152 402 300 q 150 -92 239 3 q 13 -212 60 -186 l -33 -181 q 81 -69 9 -154 q 220 151 153 16 q 316 452 288 287 q 328 623 328 545 q 296 873 328 762 q 220 1053 263 983 q 140 1152 176 1122 l 196 1185 l 205 1185 q 297 1090 243 1159 q 393 902 350 1021 q 436 626 436 783 q 426 477 436 556 z "},"—":{"ha":1375,"x_min":149,"x_max":1243,"o":"m 1243 565 l 1227 483 l 149 483 l 164 565 l 1243 565 z "},"–":{"ha":1041,"x_min":149,"x_max":909,"o":"m 909 565 l 893 483 l 149 483 l 165 565 l 909 565 z "},"-":{"ha":859,"x_min":149,"x_max":726,"o":"m 726 565 l 717 483 l 149 483 l 159 565 l 726 565 z "},"«":{"ha":1274,"x_min":169,"x_max":1129,"o":"m 651 736 l 671 676 l 294 416 l 600 161 l 564 103 l 169 374 l 180 455 l 651 736 m 1109 736 l 1129 676 l 752 416 l 1059 161 l 1023 103 l 627 374 l 638 455 l 1109 736 z "},"»":{"ha":1274,"x_min":153,"x_max":1114,"o":"m 173 103 l 153 163 l 530 423 l 224 679 l 260 736 l 655 466 l 644 385 l 173 103 m 631 103 l 612 163 l 989 423 l 682 679 l 718 736 l 1114 466 l 1103 385 l 631 103 z "},"‹":{"ha":807,"x_min":161,"x_max":663,"o":"m 643 736 l 663 676 l 286 416 l 592 161 l 556 103 l 161 374 l 172 455 l 643 736 z "},"›":{"ha":807,"x_min":131,"x_max":633,"o":"m 151 103 l 131 163 l 508 423 l 201 679 l 237 736 l 633 466 l 622 385 l 151 103 z "},"„":{"ha":758,"x_min":94,"x_max":668,"o":"m 343 -15 q 280 -228 343 -145 q 133 -354 217 -311 l 94 -296 l 95 -286 q 157 -235 125 -269 q 210 -149 188 -200 q 231 -35 231 -98 q 214 52 231 9 q 162 118 196 94 l 165 139 l 228 198 q 283 154 256 186 q 327 77 310 121 q 343 -15 343 32 m 668 -15 q 605 -228 668 -145 q 458 -354 542 -311 l 418 -296 l 420 -286 q 481 -235 450 -269 q 534 -149 513 -200 q 556 -35 556 -98 q 538 52 556 9 q 487 118 521 94 l 490 139 l 553 198 q 608 154 581 186 q 651 77 635 121 q 668 -15 668 32 z "},"“":{"ha":766,"x_min":130,"x_max":705,"o":"m 455 841 q 518 1054 455 971 q 665 1180 581 1137 l 705 1122 l 703 1112 q 642 1061 673 1095 q 589 975 610 1026 q 567 861 567 924 q 585 774 567 817 q 636 708 602 732 l 633 687 l 570 628 q 515 672 542 640 q 472 749 488 705 q 455 841 455 794 m 130 841 q 193 1054 130 971 q 340 1180 256 1137 l 380 1122 l 378 1112 q 317 1061 348 1095 q 264 975 286 1026 q 242 861 242 924 q 260 774 242 817 q 311 708 277 732 l 309 687 l 245 628 q 190 672 217 640 q 147 749 163 705 q 130 841 130 794 z "},"”":{"ha":765,"x_min":211,"x_max":785,"o":"m 460 961 q 397 748 460 831 q 250 622 334 665 l 211 680 l 212 690 q 274 741 243 707 q 327 827 305 776 q 349 941 349 878 q 331 1027 349 985 q 279 1094 313 1070 l 282 1115 l 345 1174 q 400 1130 374 1162 q 444 1053 427 1097 q 460 961 460 1008 m 785 961 q 722 748 785 831 q 575 622 659 665 l 536 680 l 537 690 q 599 741 568 707 q 652 827 630 776 q 673 941 673 878 q 656 1027 673 985 q 604 1094 638 1070 l 607 1115 l 670 1174 q 725 1130 699 1162 q 769 1053 752 1097 q 785 961 785 1008 z "},"‘":{"ha":441,"x_min":130,"x_max":380,"o":"m 130 841 q 193 1054 130 971 q 340 1180 256 1137 l 380 1122 l 378 1112 q 317 1061 348 1095 q 264 975 286 1026 q 242 861 242 924 q 260 774 242 817 q 311 708 277 732 l 309 687 l 245 628 q 190 672 217 640 q 147 749 163 705 q 130 841 130 794 z "},"‛":{"ha":441,"x_min":126,"x_max":347,"o":"m 138 985 q 177 1069 150 1029 q 238 1134 205 1109 q 302 1163 272 1159 l 347 1090 l 345 1068 q 278 1016 306 1053 q 241 936 251 979 q 233 865 233 903 q 258 744 233 799 q 315 661 283 690 l 313 650 l 260 605 q 165 724 205 652 q 126 887 126 795 q 138 985 126 937 z "},"’":{"ha":452,"x_min":189,"x_max":438,"o":"m 438 961 q 375 748 438 831 q 228 622 312 665 l 189 680 l 190 690 q 252 741 220 707 q 304 827 283 776 q 326 941 326 878 q 309 1027 326 985 q 257 1094 291 1070 l 260 1115 l 323 1174 q 378 1130 351 1162 q 421 1053 405 1097 q 438 961 438 1008 z "},"‚":{"ha":433,"x_min":94,"x_max":343,"o":"m 343 -15 q 280 -228 343 -145 q 133 -354 217 -311 l 94 -296 l 95 -286 q 157 -235 125 -269 q 210 -149 188 -200 q 231 -35 231 -98 q 214 52 231 9 q 162 118 196 94 l 165 139 l 228 198 q 283 154 256 186 q 327 77 310 121 q 343 -15 343 32 z "}," ":{"ha":329,"x_min":0,"x_max":0,"o":"z "},"₵":{"ha":917,"x_min":98,"x_max":853,"o":"m 479 -10 q 659 16 579 -7 q 774 75 739 40 l 745 141 q 634 89 696 109 q 491 66 572 69 l 627 971 q 748 957 695 970 q 821 930 800 944 l 853 1012 q 638 1048 750 1046 l 666 1231 l 589 1231 l 561 1044 q 322 949 427 1028 q 158 739 217 870 q 98 443 98 608 q 130 238 98 336 q 230 74 161 141 q 403 -7 298 6 l 368 -240 l 445 -240 l 479 -10 m 415 71 q 257 192 308 92 q 207 443 207 292 q 249 704 207 591 q 367 884 290 817 q 549 966 444 951 l 415 71 z "},"¢":{"ha":717,"x_min":95,"x_max":633,"o":"m 475 708 q 339 652 403 708 q 237 504 275 597 q 198 304 198 410 q 239 124 198 182 q 362 66 280 66 q 461 92 416 66 q 556 166 507 117 l 590 111 q 496 30 556 67 q 357 -11 435 -7 l 332 -146 l 254 -146 l 281 -4 q 143 94 191 17 q 95 294 95 172 q 133 502 95 397 q 247 684 172 608 q 426 779 322 761 l 460 921 l 538 921 l 505 783 q 575 775 540 782 q 633 756 610 768 l 607 669 q 548 699 583 689 q 475 708 514 708 z "},"₡":{"ha":900,"x_min":118,"x_max":869,"o":"m 371 3 q 473 -11 420 -11 l 479 -11 l 434 -240 l 495 -240 l 541 -8 q 696 21 627 -1 q 795 75 764 44 l 766 141 q 556 69 678 83 l 733 963 q 796 948 769 958 q 836 930 823 939 l 869 1012 q 748 1041 807 1032 l 786 1231 l 725 1231 l 688 1047 q 649 1048 663 1048 q 576 1044 618 1048 l 614 1231 l 552 1231 l 512 1031 q 306 919 395 1000 q 168 716 217 838 q 118 443 118 594 q 139 276 118 357 q 203 130 159 195 q 314 27 247 64 l 261 -240 l 323 -240 l 371 3 m 561 965 q 631 971 595 971 q 673 970 646 971 l 494 66 l 488 66 q 387 85 433 66 l 561 965 m 332 121 q 253 254 279 169 q 227 446 227 338 q 259 678 227 576 q 352 849 292 780 q 496 948 412 918 l 332 121 z "},"¤":{"ha":1027,"x_min":154,"x_max":890,"o":"m 818 468 q 802 373 818 418 q 758 290 787 328 l 888 159 l 829 101 l 700 231 q 615 186 661 202 q 519 171 570 171 q 427 185 472 171 q 345 227 382 200 l 215 97 l 156 155 l 285 284 q 238 370 254 323 q 221 468 221 417 q 237 565 221 519 q 283 650 254 612 l 154 779 l 213 838 l 343 707 q 426 750 380 735 q 519 765 471 765 q 618 748 571 765 q 704 702 665 732 l 831 829 l 890 770 l 762 642 q 803 561 789 605 q 818 468 818 516 m 519 240 q 631 271 580 240 q 711 354 682 302 q 741 468 741 406 q 711 582 741 530 q 631 665 682 634 q 519 696 580 696 q 409 665 460 696 q 328 582 358 634 q 298 468 298 530 q 328 354 298 406 q 409 271 358 302 q 519 240 460 240 z "},"$":{"ha":817,"x_min":87,"x_max":739,"o":"m 511 970 q 414 956 461 970 q 332 906 366 942 q 296 806 298 869 q 316 706 294 748 q 375 634 338 665 q 481 558 412 604 q 589 479 547 515 q 662 391 632 444 q 692 272 692 339 q 654 127 692 189 q 548 31 616 66 q 392 -12 480 -4 l 368 -156 l 275 -156 l 298 -13 q 169 11 229 -7 q 87 46 109 28 l 115 130 q 164 101 128 116 q 249 76 201 85 q 343 66 296 66 q 464 86 408 66 q 552 149 519 106 q 586 254 586 191 q 546 371 586 321 q 421 477 507 422 q 306 560 352 522 q 227 655 260 598 q 194 787 194 712 q 230 920 194 863 q 328 1009 265 977 q 471 1046 391 1041 l 492 1173 l 585 1173 l 564 1045 q 739 991 677 1036 l 707 913 q 624 955 679 940 q 511 970 570 970 z "},"₫":{"ha":903,"x_min":38,"x_max":941,"o":"m 770 955 l 929 955 l 941 1031 l 780 1031 l 795 1149 l 697 1149 l 681 1031 l 499 1031 l 488 955 l 671 955 l 666 918 l 652 818 q 522 846 595 846 q 315 792 404 846 q 180 645 227 737 q 133 442 133 553 q 165 307 133 362 q 254 224 198 252 q 379 197 309 197 q 593 271 514 197 q 587 212 587 218 q 589 201 587 205 q 597 197 591 197 l 670 197 l 770 955 m 238 464 q 269 612 238 543 q 361 722 300 680 q 508 763 422 763 q 592 755 558 763 q 636 738 626 747 l 587 355 q 566 334 585 353 q 501 298 548 314 q 391 283 454 283 q 279 329 320 283 q 238 464 238 374 m 785 92 l 52 92 l 38 0 l 771 0 l 785 92 z "},"€":{"ha":937,"x_min":18,"x_max":844,"o":"m 606 971 q 418 898 495 971 q 302 695 340 825 l 697 695 l 687 622 l 284 622 q 267 454 269 545 l 664 454 l 654 381 l 269 381 q 331 151 275 236 q 493 66 386 66 q 634 87 574 66 q 745 146 695 109 l 774 75 q 660 14 742 38 q 478 -11 578 -11 q 309 44 378 -11 q 205 188 241 99 q 161 381 169 276 l 18 381 l 28 454 l 159 454 q 177 622 159 543 l 51 622 l 62 695 l 196 695 q 296 884 231 804 q 448 1006 361 964 q 634 1048 534 1048 q 745 1039 700 1048 q 844 1012 789 1029 l 810 930 q 734 958 789 945 q 606 971 680 971 z "},"ƒ":{"ha":718,"x_min":133,"x_max":690,"o":"m 133 701 l 140 754 l 310 781 l 317 833 q 370 1001 329 932 q 469 1104 412 1069 q 588 1138 526 1138 q 655 1134 629 1138 q 690 1126 682 1131 l 684 1039 q 585 1057 648 1057 q 506 1040 538 1057 q 453 981 474 1023 q 421 862 431 938 l 410 781 l 612 781 l 604 701 l 399 701 l 276 -241 l 174 -241 l 299 701 l 133 701 z "},"₣":{"ha":793,"x_min":9,"x_max":792,"o":"m 133 0 l 235 0 l 264 230 l 448 230 l 458 312 l 274 312 l 297 492 l 644 484 l 651 572 l 307 566 l 356 961 l 785 956 l 792 1038 l 264 1038 l 172 312 l 19 312 l 9 230 l 162 230 l 133 0 z "},"₲":{"ha":1010,"x_min":125,"x_max":898,"o":"m 540 -7 q 631 10 588 -1 q 725 37 675 21 l 739 41 q 790 56 766 50 q 832 64 814 62 l 888 494 l 597 494 l 587 412 l 777 412 l 741 126 q 488 68 587 68 q 341 122 399 68 q 258 261 283 176 q 232 444 232 346 q 277 694 232 574 q 411 890 321 814 q 625 966 500 966 q 768 949 707 966 q 866 910 828 932 l 898 1003 l 872 1011 q 783 1034 829 1025 q 671 1047 736 1044 l 690 1195 l 599 1195 l 579 1046 q 346 951 450 1033 q 183 733 241 870 q 128 425 125 596 q 164 219 130 316 q 270 59 198 122 q 449 -11 341 -5 l 426 -175 l 517 -175 l 540 -7 z "},"₤":{"ha":1000,"x_min":33,"x_max":900,"o":"m 281 475 l 104 475 l 94 404 l 269 404 l 257 331 q 231 211 248 267 q 182 131 213 155 q 74 89 115 117 q 33 31 33 61 q 46 0 33 10 q 77 -10 59 -10 q 151 12 111 -10 q 214 63 191 33 q 306 36 245 57 q 444 -3 385 10 q 574 -17 504 -17 q 774 19 701 -17 q 873 108 846 55 q 900 219 900 161 q 875 321 900 274 q 808 403 850 368 l 728 341 q 774 290 755 325 q 793 216 793 254 q 737 99 793 142 q 562 56 682 56 q 445 68 500 56 q 320 102 391 81 q 272 117 301 109 q 334 239 312 176 q 372 404 355 303 l 637 404 l 647 475 l 385 475 l 405 589 l 676 589 l 686 661 l 418 661 l 418 666 q 508 905 448 836 q 659 975 568 975 q 750 958 710 975 q 806 923 789 941 l 849 994 q 773 1036 821 1025 q 675 1048 726 1048 q 494 995 570 1048 q 374 855 418 941 q 314 665 330 768 l 313 661 l 142 661 l 133 589 l 301 589 l 281 475 z "},"₺":{"ha":993,"x_min":104,"x_max":949,"o":"m 419 445 l 767 588 l 779 675 l 431 532 l 454 709 l 813 857 l 826 949 l 466 800 l 498 1043 l 392 1043 l 354 753 l 145 667 l 132 576 l 342 663 l 319 486 l 115 403 l 104 316 l 307 399 l 255 0 l 361 0 q 633 55 506 0 q 843 214 760 111 q 944 457 926 318 l 949 488 l 842 488 q 756 266 825 355 q 587 134 688 176 q 373 91 487 91 l 419 445 z "},"₦":{"ha":1233,"x_min":44,"x_max":1259,"o":"m 243 418 l 55 418 l 44 342 l 233 342 l 186 0 l 282 0 l 328 342 l 695 342 l 881 0 l 969 0 l 1015 342 l 1201 342 l 1211 418 l 1025 418 l 1053 617 l 1249 617 l 1259 693 l 1063 693 l 1109 1034 l 1014 1034 l 968 693 l 602 693 l 418 1034 l 327 1034 l 280 693 l 98 693 l 88 617 l 270 617 l 243 418 m 376 693 l 401 892 l 500 702 l 505 693 l 376 693 m 654 418 l 338 418 l 366 617 l 546 617 l 654 418 m 930 418 l 751 418 l 643 617 l 958 617 l 930 418 m 791 342 l 920 342 l 918 321 l 892 131 l 813 303 l 791 342 z "},"₧":{"ha":978,"x_min":87,"x_max":1017,"o":"m 151 1 l 254 1 l 300 367 q 454 358 391 358 q 642 395 557 358 q 783 500 726 431 q 859 666 839 570 l 1007 666 l 1017 743 l 869 743 q 870 785 870 770 q 789 984 868 918 q 560 1050 709 1050 q 452 1044 524 1050 q 342 1038 388 1038 l 282 1038 l 245 743 l 98 743 l 87 666 l 235 666 l 151 1 m 545 972 q 767 781 767 972 q 766 743 767 767 l 347 743 l 374 959 q 545 972 492 972 m 755 666 q 655 497 730 555 q 457 438 581 439 q 378 442 425 438 q 310 450 330 446 l 337 666 l 755 666 z "},"₱":{"ha":977,"x_min":87,"x_max":1027,"o":"m 231 629 l 96 629 l 87 574 l 223 574 l 151 1 l 254 1 l 300 367 q 454 358 391 358 q 681 414 583 358 q 828 574 779 471 l 998 574 l 1006 629 l 850 629 q 870 772 869 693 l 1019 772 l 1027 827 l 867 827 q 775 995 853 939 q 560 1050 697 1050 q 452 1044 524 1050 q 342 1038 388 1038 l 282 1038 l 256 827 l 116 827 l 108 772 l 248 772 l 231 629 m 545 972 q 763 827 736 972 l 357 827 l 374 959 q 545 972 492 972 m 350 772 l 767 772 q 745 629 765 691 l 332 629 l 350 772 m 720 574 q 457 438 646 441 q 378 442 425 438 q 310 450 330 446 l 326 574 l 720 574 z "},"₹":{"ha":941,"x_min":115,"x_max":934,"o":"m 552 453 q 699 542 635 482 q 783 701 762 602 l 915 701 l 926 783 l 793 783 l 793 788 q 744 955 793 885 l 922 955 l 934 1038 l 170 1038 l 159 955 l 618 955 q 672 895 654 935 q 690 808 690 854 q 688 783 690 799 l 163 783 l 151 701 l 673 701 q 556 556 641 607 q 355 505 472 505 l 292 505 q 124 510 167 505 l 115 425 q 173 421 132 423 q 264 419 214 419 q 446 429 357 419 q 505 337 478 402 q 566 164 532 273 q 610 40 593 79 q 642 0 627 0 l 762 0 q 720 76 739 29 q 673 203 700 123 q 611 363 637 305 q 552 453 586 422 z "},"₪":{"ha":1247,"x_min":155,"x_max":1131,"o":"m 613 954 q 706 940 673 954 q 753 899 739 926 q 766 829 766 872 q 762 766 766 806 l 691 249 l 787 249 l 854 747 q 861 834 861 800 q 817 979 861 926 q 661 1032 774 1032 l 285 1032 l 155 0 l 245 0 l 365 954 l 613 954 m 741 75 q 616 87 664 75 q 547 124 569 98 q 524 191 524 149 q 526 212 524 197 l 602 791 l 506 791 l 434 221 q 432 187 432 203 q 498 45 432 91 q 677 0 564 0 l 1001 0 l 1131 1032 l 1042 1032 q 990 611 1024 879 q 925 75 944 245 l 741 75 z "},"£":{"ha":928,"x_min":9,"x_max":852,"o":"m 762 398 q 828 317 803 364 q 852 216 852 270 q 786 52 852 121 q 547 -17 720 -17 q 395 -1 464 -17 q 242 45 326 16 l 187 63 q 124 12 164 34 q 50 -10 85 -10 q 9 26 9 -10 q 10 39 9 35 q 36 79 13 58 q 92 116 60 101 q 151 131 123 131 q 201 212 181 155 q 231 331 221 269 l 260 509 l 134 509 l 143 577 l 272 577 l 287 665 q 347 855 302 768 q 467 995 391 941 q 646 1048 542 1048 q 751 1037 711 1048 q 823 993 792 1025 l 774 920 q 722 958 760 941 q 632 975 684 975 q 533 943 581 975 q 447 842 485 911 q 392 666 410 772 l 376 577 l 599 577 l 590 509 l 364 509 l 351 433 q 326 300 337 351 q 296 207 314 249 q 250 123 279 165 q 307 104 269 117 q 424 69 372 81 q 534 56 475 56 q 695 97 644 56 q 746 212 746 138 q 727 284 746 249 q 681 336 708 319 l 762 398 z "},"₩":{"ha":1302,"x_min":24,"x_max":1317,"o":"m 256 344 l 33 344 l 24 276 l 266 276 l 309 -7 l 414 -7 l 526 276 l 745 276 l 774 -7 l 878 -7 l 997 276 l 1253 276 l 1261 344 l 1025 344 l 1098 516 l 1283 516 l 1292 585 l 1126 585 l 1317 1038 l 1214 1038 l 1032 585 l 804 585 l 759 1038 l 661 1038 l 677 884 l 557 585 l 314 585 l 254 1038 l 152 1038 l 220 585 l 64 585 l 55 516 l 230 516 l 256 344 m 647 585 l 701 736 l 713 585 l 647 585 m 460 344 l 346 344 l 323 516 l 530 516 l 460 344 m 737 344 l 552 344 l 621 516 l 720 516 l 737 344 m 936 344 l 827 344 l 810 516 l 1005 516 l 936 344 m 380 113 l 355 276 l 434 276 l 380 113 m 846 113 l 834 276 l 909 276 l 846 113 z "},"¥":{"ha":1006,"x_min":161,"x_max":958,"o":"m 608 568 l 863 568 l 854 499 l 565 499 l 545 327 l 833 327 l 825 259 l 537 259 l 507 0 l 416 0 l 446 259 l 161 259 l 170 327 l 453 327 l 473 499 l 191 499 l 200 568 l 450 568 l 222 1038 l 321 1038 l 506 648 l 539 568 l 590 652 l 857 1038 l 958 1038 l 608 568 z "},"Ω":{"ha":1125,"x_min":49,"x_max":1038,"o":"m 1038 627 q 999 433 1038 538 q 892 233 960 327 q 743 83 824 139 l 1025 83 l 1018 0 l 626 0 l 615 73 q 770 202 696 117 q 890 398 844 288 q 936 618 936 507 q 887 812 936 733 q 761 929 839 891 q 595 968 683 968 q 394 917 483 968 q 255 765 306 866 q 203 522 203 665 q 239 331 203 423 q 329 171 275 239 q 434 73 382 103 l 413 0 l 49 0 l 58 79 l 326 79 q 222 188 274 116 q 137 349 170 259 q 103 524 103 438 q 168 810 103 692 q 346 988 233 928 q 604 1048 460 1048 q 824 996 725 1048 q 981 848 923 943 q 1038 627 1038 752 z "},"≈":{"ha":721,"x_min":45,"x_max":700,"o":"m 45 277 q 85 337 55 306 q 158 390 115 368 q 250 411 201 411 q 315 395 286 411 q 380 347 344 378 q 435 307 413 320 q 484 294 457 294 q 566 319 530 294 q 626 382 602 344 l 664 343 q 625 279 654 311 q 555 228 597 248 q 464 208 513 208 q 399 224 427 208 q 333 272 370 240 q 278 312 300 299 q 231 326 256 326 q 148 303 186 326 q 83 239 110 280 l 45 277 m 81 580 q 121 640 91 608 q 194 692 151 671 q 286 713 237 713 q 351 697 322 713 q 416 650 380 681 q 471 609 449 623 q 519 596 493 596 q 602 621 566 596 q 662 684 637 646 l 700 646 q 661 582 690 613 q 591 530 633 550 q 500 510 549 510 q 435 526 463 510 q 369 574 406 543 q 314 615 336 602 q 267 628 292 628 q 184 605 222 628 q 119 541 146 583 l 81 580 z "},"~":{"ha":771,"x_min":95,"x_max":713,"o":"m 95 572 q 134 632 104 601 q 208 685 164 663 q 300 706 251 706 q 365 690 336 706 q 430 642 393 673 q 485 602 463 615 q 533 589 507 589 q 615 614 580 589 q 675 677 651 639 l 713 638 q 675 574 703 606 q 604 523 646 543 q 513 503 562 503 q 448 519 477 503 q 382 567 420 535 q 328 607 350 594 q 280 621 306 621 q 197 598 235 621 q 132 534 159 575 l 95 572 z "},"∙":{"ha":465,"x_min":165,"x_max":307,"o":"m 247 576 q 293 560 278 576 q 307 516 307 544 q 285 450 307 473 q 225 427 263 427 q 182 444 199 427 q 165 488 165 460 q 188 551 165 526 q 247 576 210 576 z "},"÷":{"ha":907,"x_min":165,"x_max":764,"o":"m 423 771 q 437 818 423 797 q 472 850 451 838 q 515 861 493 861 q 561 846 546 861 q 576 806 576 831 q 563 756 576 778 q 529 724 550 735 q 486 712 508 712 q 441 728 459 712 q 423 771 423 743 m 764 567 l 754 484 l 165 484 l 174 567 l 764 567 m 359 247 q 372 293 359 272 q 407 325 386 313 q 450 337 429 337 q 496 322 481 337 q 511 281 511 307 q 498 232 511 254 q 465 199 486 211 q 421 188 444 188 q 376 203 394 188 q 359 247 359 219 z "},"∕":{"ha":579,"x_min":-51,"x_max":624,"o":"m 534 1083 l 624 1083 l 39 -245 l -51 -245 l 534 1083 z "},"=":{"ha":721,"x_min":67,"x_max":676,"o":"m 676 669 l 667 588 l 115 588 l 123 669 l 676 669 m 629 324 l 619 243 l 67 243 l 76 324 l 629 324 z "},">":{"ha":928,"x_min":170,"x_max":863,"o":"m 170 121 l 182 222 l 747 515 l 251 808 l 261 900 l 863 543 l 855 477 l 170 121 z "},"≥":{"ha":928,"x_min":96,"x_max":821,"o":"m 821 514 l 220 817 l 207 724 l 673 498 l 146 268 l 134 167 l 816 474 l 821 514 m 749 77 l 106 77 l 96 -1 l 739 -1 l 749 77 z "},"∆":{"ha":954,"x_min":-14,"x_max":895,"o":"m 517 1023 l 895 18 l 883 0 l -5 0 l -14 15 l 497 1023 l 517 1023 m 496 803 l 148 88 l 751 88 l 496 803 z "},"∞":{"ha":1223,"x_min":50,"x_max":1174,"o":"m 50 407 q 88 556 50 494 q 191 649 126 618 q 335 681 256 681 q 493 630 428 681 q 614 492 558 578 q 742 626 665 571 q 905 681 819 681 q 1054 646 994 681 q 1144 555 1115 612 q 1174 433 1174 499 q 1138 287 1174 349 q 1035 190 1101 224 q 881 155 969 155 q 728 205 790 155 q 612 340 666 255 q 487 210 561 263 q 328 156 414 157 q 180 189 243 155 q 84 282 117 224 q 50 407 50 340 m 561 410 q 499 503 528 465 q 431 568 471 541 q 345 596 392 596 q 241 571 285 596 q 175 504 198 545 q 153 413 153 462 q 173 325 153 366 q 235 260 193 285 q 340 235 277 235 q 456 282 399 235 q 561 410 513 330 m 899 234 q 992 261 953 234 q 1052 333 1031 289 q 1072 423 1072 376 q 1052 510 1072 471 q 990 573 1031 549 q 887 596 949 596 q 766 545 823 596 q 666 422 709 494 q 771 287 715 340 q 899 234 827 234 z "},"∫":{"ha":707,"x_min":75,"x_max":654,"o":"m 281 -267 q 413 -211 368 -267 q 458 -20 458 -155 q 439 109 458 43 q 392 236 420 176 q 317 389 364 297 q 240 548 269 485 q 192 681 212 610 q 172 818 172 751 q 203 987 172 914 q 298 1102 235 1061 q 454 1143 361 1143 q 574 1121 523 1143 q 654 1056 625 1100 l 595 997 q 540 1042 577 1025 q 451 1058 503 1058 q 318 994 360 1058 q 275 818 275 930 q 294 689 275 755 q 341 563 313 623 q 415 411 368 503 q 492 254 463 317 q 541 119 521 190 q 561 -19 561 49 q 497 -262 561 -172 q 294 -351 433 -351 q 169 -329 229 -351 q 75 -268 109 -306 l 119 -198 q 183 -245 142 -223 q 281 -267 224 -267 z "},"<":{"ha":928,"x_min":134,"x_max":827,"o":"m 827 898 l 814 797 l 250 504 l 746 211 l 736 119 l 134 476 l 142 543 l 827 898 z "},"≤":{"ha":928,"x_min":94,"x_max":817,"o":"m 817 817 l 806 721 l 283 493 l 752 261 l 741 167 l 135 475 l 139 515 l 817 817 m 747 77 l 737 -1 l 94 -1 l 104 77 l 747 77 z "},"¬":{"ha":929,"x_min":144,"x_max":804,"o":"m 804 566 l 764 218 l 673 218 l 705 487 l 144 487 l 153 566 l 804 566 z "},"µ":{"ha":918,"x_min":88,"x_max":838,"o":"m 88 -252 l 216 606 q 219 644 219 629 q 199 684 219 684 q 127 645 166 684 l 94 705 q 123 733 102 716 q 177 765 144 751 q 248 780 210 780 q 303 756 283 780 q 324 687 324 733 q 322 656 324 672 q 294 452 318 623 q 262 222 271 282 q 261 202 261 215 q 298 107 261 137 q 391 78 334 78 q 469 97 429 78 q 543 145 509 117 q 599 201 576 174 l 679 773 l 779 773 l 695 153 q 693 125 693 138 q 700 90 693 103 q 720 77 707 77 q 804 133 757 77 l 838 75 q 808 42 829 63 q 753 4 786 22 q 684 -13 721 -13 q 618 13 643 -13 q 595 92 594 39 q 495 15 547 43 q 363 -13 442 -13 q 308 -2 336 -12 q 258 26 279 7 q 231 68 237 44 l 184 -252 l 88 -252 z "},"−":{"ha":859,"x_min":149,"x_max":726,"o":"m 726 565 l 717 483 l 149 483 l 159 565 l 726 565 z "},"×":{"ha":929,"x_min":165,"x_max":802,"o":"m 432 519 l 222 749 l 291 813 l 490 570 l 749 817 l 802 753 l 536 518 l 746 288 l 677 223 l 478 467 l 219 222 l 165 287 l 432 519 z "},"≠":{"ha":721,"x_min":67,"x_max":676,"o":"m 472 588 l 351 324 l 629 324 l 619 243 l 313 243 l 201 0 l 119 0 l 231 243 l 67 243 l 76 324 l 269 324 l 390 588 l 115 588 l 123 669 l 427 669 l 533 898 l 615 898 l 509 669 l 676 669 l 667 588 l 472 588 z "},"∂":{"ha":927,"x_min":115,"x_max":824,"o":"m 505 712 q 612 692 565 712 q 711 638 660 671 q 625 939 705 821 q 372 1057 546 1057 q 271 1043 321 1057 q 185 1008 220 1029 l 147 1073 q 261 1124 192 1107 q 393 1142 330 1142 q 646 1061 549 1142 q 783 853 742 979 q 824 584 824 727 q 787 287 824 420 q 663 72 750 154 q 433 -11 575 -11 q 273 30 343 -11 q 161 142 202 70 q 116 306 119 214 l 115 328 q 167 533 115 446 q 308 666 219 621 q 505 712 397 712 m 714 550 q 616 610 667 587 q 496 633 565 633 q 362 597 424 633 q 262 495 300 562 q 224 338 224 429 q 277 146 224 218 q 442 73 330 73 q 648 212 589 73 q 714 550 707 351 z "},"%":{"ha":1296,"x_min":136,"x_max":1171,"o":"m 1006 1038 l 364 0 l 281 0 l 923 1038 l 1006 1038 m 136 715 q 173 854 136 787 q 273 962 209 921 q 414 1004 336 1004 q 557 950 511 1004 q 604 804 604 896 q 570 660 604 728 q 472 548 536 591 q 327 505 409 505 q 223 532 267 505 q 158 607 180 559 q 136 715 136 655 m 516 800 q 486 902 516 865 q 400 940 456 940 q 305 905 347 940 q 242 819 264 871 q 220 716 220 766 q 252 610 220 650 q 342 569 284 569 q 436 605 396 569 q 496 695 475 642 q 516 800 516 749 m 981 542 q 1124 488 1078 542 q 1171 342 1171 434 q 1137 198 1171 267 q 1039 86 1103 129 q 894 43 976 43 q 790 71 833 43 q 725 145 747 98 q 703 254 703 193 q 740 392 703 326 q 840 500 776 459 q 981 542 903 542 m 909 107 q 1003 143 963 107 q 1063 234 1042 180 q 1083 338 1083 288 q 1053 440 1083 403 q 967 478 1023 478 q 872 444 913 478 q 809 357 831 409 q 787 254 787 304 q 819 148 787 189 q 909 107 851 107 z "},"‰":{"ha":1832,"x_min":136,"x_max":1707,"o":"m 1006 1038 l 364 0 l 281 0 l 923 1038 l 1006 1038 m 136 715 q 173 854 136 787 q 273 962 209 921 q 414 1004 336 1004 q 557 950 511 1004 q 604 804 604 896 q 570 660 604 728 q 472 548 536 591 q 327 505 409 505 q 223 532 267 505 q 158 607 180 559 q 136 715 136 655 m 516 800 q 486 902 516 865 q 400 940 456 940 q 305 905 347 940 q 242 819 264 871 q 220 716 220 766 q 252 610 220 650 q 342 569 284 569 q 436 605 396 569 q 496 695 475 642 q 516 800 516 749 m 981 542 q 1124 488 1078 542 q 1171 342 1171 434 q 1137 198 1171 267 q 1039 86 1103 129 q 894 43 976 43 q 790 71 833 43 q 725 145 747 98 q 703 254 703 193 q 740 392 703 326 q 840 500 776 459 q 981 542 903 542 m 1518 542 q 1660 488 1614 542 q 1707 342 1707 434 q 1673 198 1707 267 q 1575 86 1638 129 q 1430 43 1512 43 q 1326 71 1369 43 q 1261 145 1283 98 q 1239 254 1239 193 q 1275 392 1239 326 q 1376 500 1312 459 q 1518 542 1440 542 m 909 107 q 1003 143 963 107 q 1063 234 1042 180 q 1083 338 1083 288 q 1053 440 1083 403 q 967 478 1023 478 q 872 444 913 478 q 809 357 831 409 q 787 254 787 304 q 819 148 787 189 q 909 107 851 107 m 1444 107 q 1538 143 1499 107 q 1598 234 1578 180 q 1619 338 1619 288 q 1589 440 1619 403 q 1503 478 1559 478 q 1408 444 1449 478 q 1344 357 1367 409 q 1322 254 1322 304 q 1355 148 1322 189 q 1444 107 1387 107 z "},"+":{"ha":926,"x_min":165,"x_max":783,"o":"m 427 486 l 317 483 l 165 483 l 174 565 l 328 565 l 435 559 l 446 682 l 465 838 l 557 838 l 539 682 l 519 559 l 610 565 l 783 565 l 774 483 l 600 483 l 511 486 q 505 405 510 454 l 501 363 l 481 200 l 388 200 l 408 363 l 427 486 z "},"±":{"ha":926,"x_min":117,"x_max":783,"o":"m 427 486 l 317 483 l 165 483 l 174 565 l 327 565 l 435 559 q 441 622 440 616 q 444 652 442 636 q 446 682 446 667 l 465 838 l 557 838 l 539 682 l 519 559 l 609 565 l 783 565 l 773 483 l 600 483 l 511 486 q 507 425 511 473 q 501 363 503 388 l 481 200 l 388 200 l 408 363 l 427 486 m 715 98 l 706 20 l 117 20 l 125 98 l 715 98 z "},"∏":{"ha":1091,"x_min":94,"x_max":1023,"o":"m 94 947 l 94 1032 l 1023 1032 l 1023 947 l 890 947 l 890 -115 l 774 -115 l 774 947 l 342 947 l 342 -115 l 227 -115 l 227 947 l 94 947 z "},"√":{"ha":1066,"x_min":58,"x_max":1069,"o":"m 182 484 l 278 484 l 519 -106 l 960 1268 l 1069 1268 l 570 -240 l 479 -240 l 201 387 l 104 332 l 58 408 l 182 484 z "},"∑":{"ha":1037,"x_min":154,"x_max":883,"o":"m 155 989 l 170 1032 l 873 1032 l 873 947 l 303 947 l 654 463 l 311 -35 l 883 -35 l 883 -115 l 168 -115 l 154 -87 l 534 460 l 155 989 z "},"◊":{"ha":797,"x_min":39,"x_max":765,"o":"m 39 524 l 399 1028 l 404 1028 l 765 524 l 765 515 l 405 0 l 397 0 l 39 515 l 39 524 m 654 520 l 654 522 l 402 880 l 400 880 l 151 522 l 151 518 l 400 150 l 402 150 l 654 520 z "},"|":{"ha":579,"x_min":254,"x_max":343,"o":"m 343 1207 l 343 -126 l 254 -126 l 254 1207 l 343 1207 z "},"¦":{"ha":579,"x_min":254,"x_max":343,"o":"m 343 1207 l 343 601 l 254 601 l 254 1207 l 343 1207 m 343 480 l 343 -126 l 254 -126 l 254 480 l 343 480 z "},"@":{"ha":1335,"x_min":82,"x_max":1267,"o":"m 806 1048 q 1051 993 947 1048 q 1212 838 1156 939 q 1267 603 1267 738 q 1206 290 1267 427 q 1052 80 1145 154 q 867 5 958 5 q 822 24 837 5 q 804 72 808 43 q 800 144 800 100 q 806 217 800 171 q 821 313 812 264 q 699 92 766 180 q 559 3 632 3 q 468 34 511 3 q 396 128 424 65 q 368 283 368 191 q 409 496 368 390 q 533 671 450 602 q 736 741 616 741 q 820 731 771 741 q 895 704 869 721 l 981 720 q 939 525 961 643 q 904 302 918 408 q 895 208 898 254 q 891 139 891 163 q 897 108 891 121 q 918 96 903 96 q 1041 166 978 96 q 1146 351 1105 237 q 1187 587 1187 465 q 1079 886 1187 793 q 787 979 970 979 q 462 881 605 979 q 240 618 319 782 q 161 265 161 454 q 222 -11 161 100 q 386 -173 283 -121 q 616 -226 488 -226 q 715 -217 663 -226 q 813 -194 768 -208 q 880 -168 858 -180 l 898 -220 q 773 -277 851 -255 q 609 -298 696 -298 q 336 -233 456 -298 q 150 -43 217 -168 q 82 253 82 81 q 178 672 82 492 q 440 950 275 853 q 806 1048 606 1048 m 574 83 q 682 172 622 83 q 793 391 741 262 q 869 628 846 521 q 809 662 852 649 q 732 675 767 675 q 588 618 649 675 q 494 475 526 562 q 462 301 462 389 q 492 141 462 199 q 574 83 522 83 z "},"&":{"ha":1040,"x_min":71,"x_max":979,"o":"m 973 471 l 850 471 q 860 397 860 437 q 830 227 860 303 q 743 98 800 151 q 820 65 779 75 q 915 56 862 55 q 934 56 924 56 q 951 59 945 57 l 941 -4 q 842 -14 902 -14 q 749 1 798 -14 q 665 43 700 16 q 422 -12 562 -12 q 247 15 326 -12 q 119 99 168 41 q 71 248 71 157 q 101 359 71 309 q 179 446 131 408 q 297 523 227 484 q 251 649 269 581 q 233 771 233 717 q 269 915 233 852 q 368 1014 304 979 q 511 1049 431 1049 q 636 1018 585 1049 q 714 940 688 987 q 741 844 741 893 q 699 708 741 766 q 597 609 657 649 q 438 516 538 569 l 410 501 q 678 151 539 279 q 743 249 720 192 q 766 375 766 305 q 751 471 766 425 q 702 466 725 470 q 667 456 679 462 l 673 527 q 706 541 682 535 q 766 547 731 547 l 979 546 l 973 471 m 326 774 q 340 662 326 716 q 376 565 355 607 q 519 647 466 612 q 608 728 572 681 q 644 833 644 774 q 610 939 644 898 q 508 980 576 980 q 412 952 454 980 q 348 878 371 925 q 326 774 326 831 m 176 250 q 210 144 176 186 q 301 82 244 102 q 431 62 359 62 q 603 99 527 62 q 455 266 514 184 q 332 457 396 347 q 217 363 258 412 q 176 250 176 314 z "},"¶":{"ha":925,"x_min":109,"x_max":901,"o":"m 362 525 q 229 555 286 527 q 141 637 172 583 q 109 766 109 690 q 200 986 109 907 q 483 1065 291 1065 q 648 1057 563 1065 q 738 1053 704 1053 l 901 1053 l 895 998 l 780 981 q 718 486 762 829 q 657 0 680 193 l 559 0 l 680 981 q 602 983 669 981 q 519 983 536 984 l 391 0 l 292 0 l 362 525 z "},"©":{"ha":1398,"x_min":133,"x_max":1273,"o":"m 703 1209 q 990 1133 859 1209 q 1197 924 1120 1056 q 1273 636 1273 793 q 1197 348 1273 479 q 989 138 1120 216 q 703 61 859 61 q 416 138 547 61 q 209 348 286 216 q 133 636 133 479 q 209 924 133 793 q 416 1133 285 1056 q 703 1209 547 1209 m 703 129 q 955 197 841 129 q 1133 381 1068 265 q 1198 636 1198 498 q 1133 890 1198 774 q 955 1075 1068 1007 q 703 1143 841 1143 q 451 1075 564 1143 q 273 890 338 1007 q 208 636 208 774 q 273 381 208 498 q 451 197 338 265 q 703 129 564 129 m 736 958 q 893 924 822 958 l 875 839 q 810 866 848 856 q 726 876 772 876 q 611 845 659 876 q 537 760 563 814 q 512 640 512 706 q 538 509 512 563 q 610 427 564 454 q 713 399 655 399 q 808 412 763 399 q 886 444 854 425 l 911 380 q 821 334 878 352 q 700 317 764 317 q 547 360 612 317 q 447 475 481 403 q 412 632 412 547 q 449 799 411 725 q 561 916 487 873 q 736 958 634 958 z "}}}
